<svg width="1024" height="1024" viewBox="0 0 1024 1024" fill="none" xmlns="http://www.w3.org/2000/svg">
<path d="M385.181 122.49H331.695L310.803 292H270.689L291.303 122.49H237.678L241.578 89.8975H389.359L385.181 122.49ZM364.998 271.804C364.998 268.739 365.555 265.861 366.669 263.168C367.876 260.382 369.455 258.014 371.405 256.064C373.448 254.022 375.862 252.443 378.648 251.329C381.433 250.122 384.451 249.518 387.701 249.518C390.858 249.518 393.783 250.122 396.476 251.329C399.262 252.443 401.676 254.022 403.719 256.064C405.762 258.014 407.34 260.382 408.455 263.168C409.662 265.861 410.265 268.739 410.265 271.804C410.265 274.961 409.662 277.886 408.455 280.579C407.34 283.271 405.762 285.639 403.719 287.682C401.676 289.632 399.262 291.164 396.476 292.279C393.783 293.393 390.858 293.95 387.701 293.95C384.451 293.95 381.433 293.393 378.648 292.279C375.862 291.164 373.448 289.632 371.405 287.682C369.455 285.639 367.876 283.271 366.669 280.579C365.555 277.886 364.998 274.961 364.998 271.804ZM546.558 215.533L534.579 151.601C533.929 148.258 533.186 144.312 532.351 139.762C531.515 135.212 530.726 130.29 529.983 124.997C527.94 130.29 525.944 135.212 523.994 139.762C522.044 144.312 520.326 148.304 518.84 151.74L491.401 215.533H546.558ZM602.55 292H571.35C567.822 292 565.083 291.164 563.133 289.493C561.183 287.821 559.836 285.639 559.093 282.946L551.711 243.529H479.422L462.43 282.946C461.222 285.361 459.365 287.496 456.858 289.354C454.351 291.118 451.473 292 448.223 292H416.466L513.686 89.8975H554.915L602.55 292ZM614.731 271.804C614.731 268.739 615.288 265.861 616.403 263.168C617.61 260.382 619.188 258.014 621.138 256.064C623.181 254.022 625.595 252.443 628.381 251.329C631.167 250.122 634.185 249.518 637.435 249.518C640.592 249.518 643.517 250.122 646.21 251.329C648.995 252.443 651.41 254.022 653.452 256.064C655.495 258.014 657.074 260.382 658.188 263.168C659.395 265.861 659.999 268.739 659.999 271.804C659.999 274.961 659.395 277.886 658.188 280.579C657.074 283.271 655.495 285.639 653.452 287.682C651.41 289.632 648.995 291.164 646.21 292.279C643.517 293.393 640.592 293.95 637.435 293.95C634.185 293.95 631.167 293.393 628.381 292.279C625.595 291.164 623.181 289.632 621.138 287.682C619.188 285.639 617.61 283.271 616.403 280.579C615.288 277.886 614.731 274.961 614.731 271.804ZM782.147 189.765H847.193L836.886 272.5C831.686 276.307 826.347 279.557 820.869 282.25C815.39 284.943 809.586 287.218 803.458 289.075C797.422 290.839 791.062 292.139 784.376 292.975C777.69 293.811 770.54 294.229 762.926 294.229C750.483 294.229 739.155 292 728.94 287.543C718.819 282.993 710.137 276.725 702.894 268.739C695.651 260.661 690.034 251.143 686.041 240.186C682.048 229.229 680.051 217.297 680.051 204.39C680.051 193.061 681.305 182.336 683.812 172.215C686.319 162.001 689.894 152.576 694.537 143.94C699.273 135.304 704.891 127.551 711.391 120.68C717.983 113.715 725.273 107.819 733.258 102.99C741.337 98.0689 750.065 94.3082 759.444 91.7082C768.822 89.0154 778.619 87.669 788.833 87.669C797.19 87.669 804.758 88.4583 811.536 90.0368C818.408 91.5225 824.583 93.5654 830.061 96.1654C835.54 98.6725 840.415 101.644 844.686 105.08C849.051 108.422 852.904 111.951 856.247 115.665L843.154 132.101C841.018 135.072 838.465 136.883 835.493 137.533C832.522 138.183 829.458 137.487 826.301 135.444C823.329 133.494 820.451 131.683 817.665 130.012C814.972 128.247 812.047 126.762 808.89 125.554C805.826 124.347 802.437 123.419 798.722 122.769C795.008 122.026 790.737 121.655 785.908 121.655C776.437 121.655 767.708 123.604 759.722 127.504C751.83 131.404 745.005 136.929 739.248 144.079C733.583 151.136 729.173 159.679 726.016 169.708C722.858 179.736 721.28 190.833 721.28 202.997C721.28 212.283 722.441 220.64 724.762 228.068C727.176 235.404 730.473 241.625 734.651 246.732C738.923 251.84 744.03 255.786 749.973 258.572C756.008 261.264 762.647 262.611 769.89 262.611C776.576 262.611 782.472 262.007 787.579 260.8C792.779 259.5 797.747 257.736 802.483 255.507L806.801 219.433H786.744C784.237 219.433 782.333 218.783 781.033 217.483C779.733 216.183 779.222 214.465 779.501 212.329L782.147 189.765Z" fill="#0C213F"/>
<path d="M209.836 325.588H202.3L199.4 349.114H194.477L197.339 325.588H189.764L190.26 321.524H210.352L209.836 325.588ZM219.992 334.708C220.985 334.708 221.837 334.568 222.549 334.289C223.274 333.996 223.872 333.602 224.343 333.106C224.813 332.597 225.163 332.005 225.392 331.331C225.621 330.657 225.736 329.932 225.736 329.156C225.736 327.96 225.36 327.025 224.61 326.351C223.872 325.677 222.734 325.34 221.195 325.34H218.294L217.15 334.708H219.992ZM221.652 321.524C223.242 321.524 224.604 321.696 225.736 322.039C226.88 322.37 227.815 322.84 228.54 323.451C229.265 324.049 229.8 324.768 230.143 325.607C230.487 326.447 230.658 327.369 230.658 328.374C230.658 329.429 230.506 330.428 230.2 331.369C229.908 332.311 229.482 333.163 228.922 333.926C228.362 334.689 227.675 335.357 226.861 335.929C226.047 336.502 225.125 336.947 224.095 337.265C224.387 337.443 224.648 337.659 224.877 337.914C225.119 338.168 225.329 338.473 225.507 338.83L230.429 349.114H225.984C225.131 349.114 224.565 348.783 224.286 348.122L220.241 339.173C220.088 338.842 219.897 338.607 219.668 338.467C219.452 338.314 219.108 338.238 218.638 338.238H216.711L215.375 349.114H210.452L213.811 321.524H221.652ZM243.853 345.145C244.743 345.145 245.558 344.98 246.295 344.649C247.046 344.306 247.701 343.829 248.261 343.218C248.82 342.595 249.278 341.851 249.634 340.986C250.003 340.121 250.251 339.16 250.378 338.105L252.401 321.524H257.362L255.32 338.105C255.117 339.733 254.684 341.24 254.023 342.627C253.361 344.013 252.509 345.209 251.466 346.214C250.436 347.218 249.227 348.007 247.841 348.58C246.467 349.139 244.96 349.419 243.319 349.419C241.678 349.419 240.234 349.139 238.988 348.58C237.754 348.007 236.743 347.218 235.954 346.214C235.165 345.209 234.612 344.013 234.294 342.627C233.976 341.24 233.919 339.733 234.122 338.105L236.107 321.524H241.067L239.045 338.085C238.918 339.141 238.924 340.108 239.064 340.986C239.217 341.851 239.496 342.595 239.903 343.218C240.323 343.829 240.857 344.306 241.506 344.649C242.168 344.98 242.95 345.145 243.853 345.145ZM271.058 345.221C271.834 345.221 272.508 345.164 273.08 345.05C273.653 344.923 274.155 344.764 274.588 344.573C275.02 344.382 275.383 344.185 275.675 343.981C275.98 343.765 276.248 343.561 276.476 343.371C276.705 343.18 276.909 343.027 277.087 342.913C277.265 342.786 277.443 342.722 277.621 342.722C277.787 342.722 277.92 342.754 278.022 342.817C278.124 342.881 278.206 342.945 278.27 343.008L280.006 345.164C278.811 346.538 277.405 347.594 275.79 348.331C274.174 349.057 272.317 349.419 270.218 349.419C268.514 349.419 267 349.12 265.677 348.522C264.354 347.912 263.235 347.072 262.319 346.004C261.416 344.935 260.723 343.67 260.239 342.207C259.769 340.744 259.533 339.148 259.533 337.418C259.533 335.828 259.705 334.327 260.049 332.915C260.392 331.49 260.882 330.18 261.518 328.984C262.154 327.776 262.911 326.695 263.788 325.741C264.679 324.787 265.664 323.973 266.746 323.298C267.84 322.624 269.01 322.109 270.256 321.753C271.516 321.397 272.826 321.219 274.187 321.219C275.192 321.219 276.108 321.314 276.934 321.505C277.761 321.683 278.505 321.937 279.167 322.268C279.841 322.599 280.445 322.999 280.979 323.47C281.526 323.928 282.016 324.443 282.449 325.016L280.731 327.076C280.604 327.229 280.452 327.362 280.273 327.477C280.108 327.591 279.898 327.649 279.644 327.649C279.364 327.649 279.097 327.534 278.842 327.305C278.588 327.076 278.264 326.828 277.869 326.561C277.488 326.281 276.985 326.027 276.362 325.798C275.751 325.569 274.944 325.454 273.939 325.454C272.616 325.454 271.382 325.728 270.237 326.275C269.105 326.809 268.119 327.579 267.28 328.584C266.44 329.588 265.779 330.803 265.296 332.228C264.825 333.64 264.59 335.23 264.59 336.998C264.59 338.283 264.749 339.434 265.067 340.451C265.397 341.469 265.849 342.334 266.421 343.046C267.006 343.746 267.693 344.286 268.482 344.668C269.271 345.037 270.129 345.221 271.058 345.221ZM289.99 333.182H291.058C291.503 333.182 291.879 333.118 292.184 332.991C292.502 332.851 292.788 332.629 293.043 332.323L301.018 322.592C301.336 322.173 301.679 321.893 302.048 321.753C302.43 321.6 302.869 321.524 303.365 321.524H307.62L297.851 333.067C297.571 333.424 297.291 333.722 297.011 333.964C296.731 334.193 296.439 334.378 296.134 334.517C296.502 334.67 296.827 334.88 297.107 335.147C297.399 335.402 297.654 335.751 297.87 336.197L304.891 349.114H300.522C300.229 349.114 299.981 349.095 299.778 349.057C299.574 349.006 299.396 348.942 299.244 348.866C299.104 348.777 298.983 348.675 298.881 348.56C298.792 348.433 298.709 348.293 298.633 348.141L292.947 337.856C292.782 337.513 292.553 337.271 292.26 337.131C291.98 336.992 291.567 336.922 291.02 336.922H289.532L288.044 349.114H283.121L286.479 321.505H291.44L289.99 333.182ZM312.584 349.114H307.605L310.963 321.524H315.943L312.584 349.114ZM343.35 321.524L339.954 349.114H337.397C337.016 349.114 336.698 349.05 336.443 348.923C336.202 348.783 335.973 348.56 335.756 348.255L325.071 329.404C325.046 329.722 325.021 330.027 324.995 330.32C324.97 330.6 324.944 330.867 324.919 331.121L322.744 349.114H318.374L321.771 321.524H324.366C324.582 321.524 324.76 321.537 324.9 321.562C325.052 321.575 325.186 321.613 325.3 321.677C325.415 321.727 325.517 321.804 325.606 321.906C325.695 322.007 325.79 322.147 325.892 322.325L336.634 341.157C336.659 340.776 336.685 340.413 336.71 340.07C336.749 339.714 336.787 339.389 336.825 339.097L338.981 321.524H343.35ZM359.922 335.357H368.508L367.135 346.443C365.735 347.46 364.228 348.211 362.613 348.694C360.997 349.177 359.153 349.419 357.079 349.419C355.388 349.419 353.848 349.114 352.462 348.503C351.088 347.893 349.905 347.047 348.913 345.966C347.934 344.872 347.177 343.581 346.642 342.092C346.108 340.591 345.841 338.957 345.841 337.189C345.841 335.637 346.013 334.168 346.356 332.781C346.7 331.382 347.183 330.091 347.806 328.908C348.442 327.725 349.206 326.663 350.096 325.722C350.986 324.768 351.979 323.96 353.072 323.298C354.166 322.624 355.349 322.109 356.621 321.753C357.906 321.397 359.248 321.219 360.647 321.219C361.767 321.219 362.778 321.32 363.681 321.524C364.597 321.715 365.424 321.982 366.161 322.325C366.899 322.669 367.561 323.069 368.146 323.527C368.731 323.985 369.252 324.469 369.71 324.977L368.108 327.038C367.853 327.394 367.542 327.617 367.173 327.706C366.804 327.782 366.429 327.693 366.047 327.439C365.678 327.197 365.309 326.962 364.94 326.733C364.571 326.491 364.164 326.275 363.719 326.084C363.287 325.893 362.791 325.741 362.231 325.626C361.671 325.512 361.016 325.454 360.266 325.454C358.892 325.454 357.633 325.734 356.488 326.294C355.343 326.841 354.357 327.623 353.53 328.641C352.704 329.646 352.061 330.86 351.603 332.285C351.145 333.697 350.916 335.274 350.916 337.017C350.916 338.34 351.082 339.523 351.412 340.566C351.756 341.609 352.233 342.493 352.844 343.218C353.454 343.943 354.185 344.503 355.038 344.897C355.903 345.279 356.863 345.469 357.919 345.469C358.962 345.469 359.878 345.374 360.666 345.183C361.455 344.98 362.212 344.694 362.937 344.325L363.567 339.078H360.514C360.196 339.078 359.954 338.995 359.789 338.83C359.636 338.652 359.572 338.435 359.598 338.181L359.922 335.357ZM393.681 338.734L391.811 329.29C391.735 328.857 391.646 328.355 391.544 327.782C391.442 327.21 391.341 326.587 391.239 325.912C390.985 326.587 390.737 327.21 390.495 327.782C390.253 328.355 390.037 328.863 389.846 329.309L385.668 338.734H393.681ZM400.874 349.114H397.039C396.607 349.114 396.27 349.012 396.028 348.808C395.799 348.592 395.634 348.319 395.532 347.988L394.387 342.226H384.103L381.546 347.988C381.406 348.281 381.177 348.541 380.859 348.77C380.554 348.999 380.198 349.114 379.791 349.114H375.899L389.236 321.524H394.292L400.874 349.114ZM414.345 345.221C415.121 345.221 415.795 345.164 416.367 345.05C416.94 344.923 417.442 344.764 417.875 344.573C418.307 344.382 418.67 344.185 418.962 343.981C419.268 343.765 419.535 343.561 419.764 343.371C419.993 343.18 420.196 343.027 420.374 342.913C420.552 342.786 420.73 342.722 420.909 342.722C421.074 342.722 421.207 342.754 421.309 342.817C421.411 342.881 421.494 342.945 421.557 343.008L423.294 345.164C422.098 346.538 420.692 347.594 419.077 348.331C417.461 349.057 415.604 349.419 413.505 349.419C411.801 349.419 410.287 349.12 408.964 348.522C407.642 347.912 406.522 347.072 405.606 346.004C404.703 344.935 404.01 343.67 403.527 342.207C403.056 340.744 402.821 339.148 402.821 337.418C402.821 335.828 402.992 334.327 403.336 332.915C403.679 331.49 404.169 330.18 404.805 328.984C405.441 327.776 406.198 326.695 407.075 325.741C407.966 324.787 408.952 323.973 410.033 323.298C411.127 322.624 412.297 322.109 413.544 321.753C414.803 321.397 416.113 321.219 417.474 321.219C418.479 321.219 419.395 321.314 420.222 321.505C421.048 321.683 421.793 321.937 422.454 322.268C423.128 322.599 423.732 322.999 424.267 323.47C424.814 323.928 425.303 324.443 425.736 325.016L424.019 327.076C423.891 327.229 423.739 327.362 423.561 327.477C423.395 327.591 423.185 327.649 422.931 327.649C422.651 327.649 422.384 327.534 422.13 327.305C421.875 327.076 421.551 326.828 421.157 326.561C420.775 326.281 420.273 326.027 419.649 325.798C419.039 325.569 418.231 325.454 417.226 325.454C415.903 325.454 414.669 325.728 413.525 326.275C412.392 326.809 411.407 327.579 410.567 328.584C409.728 329.588 409.066 330.803 408.583 332.228C408.112 333.64 407.877 335.23 407.877 336.998C407.877 338.283 408.036 339.434 408.354 340.451C408.685 341.469 409.136 342.334 409.709 343.046C410.294 343.746 410.981 344.286 411.769 344.668C412.558 345.037 413.416 345.221 414.345 345.221ZM437.413 345.221C438.188 345.221 438.863 345.164 439.435 345.05C440.007 344.923 440.51 344.764 440.942 344.573C441.375 344.382 441.737 344.185 442.03 343.981C442.335 343.765 442.602 343.561 442.831 343.371C443.06 343.18 443.264 343.027 443.442 342.913C443.62 342.786 443.798 342.722 443.976 342.722C444.141 342.722 444.275 342.754 444.377 342.817C444.479 342.881 444.561 342.945 444.625 343.008L446.361 345.164C445.165 346.538 443.76 347.594 442.144 348.331C440.529 349.057 438.672 349.419 436.573 349.419C434.869 349.419 433.355 349.12 432.032 348.522C430.709 347.912 429.59 347.072 428.674 346.004C427.771 344.935 427.077 343.67 426.594 342.207C426.123 340.744 425.888 339.148 425.888 337.418C425.888 335.828 426.06 334.327 426.403 332.915C426.747 331.49 427.237 330.18 427.873 328.984C428.509 327.776 429.265 326.695 430.143 325.741C431.033 324.787 432.019 323.973 433.1 323.298C434.194 322.624 435.365 322.109 436.611 321.753C437.87 321.397 439.181 321.219 440.542 321.219C441.547 321.219 442.462 321.314 443.289 321.505C444.116 321.683 444.86 321.937 445.522 322.268C446.196 322.599 446.8 322.999 447.334 323.47C447.881 323.928 448.371 324.443 448.803 325.016L447.086 327.076C446.959 327.229 446.806 327.362 446.628 327.477C446.463 327.591 446.253 327.649 445.999 327.649C445.719 327.649 445.452 327.534 445.197 327.305C444.943 327.076 444.618 326.828 444.224 326.561C443.843 326.281 443.34 326.027 442.717 325.798C442.106 325.569 441.299 325.454 440.294 325.454C438.971 325.454 437.737 325.728 436.592 326.275C435.46 326.809 434.474 327.579 433.635 328.584C432.795 329.588 432.134 330.803 431.65 332.228C431.18 333.64 430.944 335.23 430.944 336.998C430.944 338.283 431.103 339.434 431.421 340.451C431.752 341.469 432.204 342.334 432.776 343.046C433.361 343.746 434.048 344.286 434.837 344.668C435.625 345.037 436.484 345.221 437.413 345.221ZM475.134 333.468C475.134 334.994 474.962 336.451 474.619 337.837C474.288 339.211 473.811 340.49 473.187 341.673C472.564 342.855 471.807 343.924 470.917 344.878C470.027 345.832 469.028 346.646 467.921 347.32C466.827 347.994 465.638 348.516 464.353 348.885C463.069 349.241 461.72 349.419 460.308 349.419C458.553 349.419 456.976 349.107 455.577 348.484C454.177 347.861 452.982 347.002 451.989 345.908C451.01 344.814 450.26 343.523 449.738 342.035C449.216 340.547 448.956 338.931 448.956 337.189C448.956 335.662 449.121 334.212 449.452 332.838C449.795 331.452 450.279 330.167 450.902 328.984C451.538 327.801 452.295 326.733 453.172 325.779C454.063 324.825 455.055 324.011 456.149 323.337C457.256 322.65 458.451 322.128 459.736 321.772C461.021 321.403 462.375 321.219 463.8 321.219C465.555 321.219 467.133 321.53 468.532 322.154C469.931 322.777 471.12 323.635 472.1 324.729C473.079 325.823 473.83 327.121 474.351 328.622C474.873 330.11 475.134 331.725 475.134 333.468ZM470.058 333.583C470.058 332.336 469.899 331.204 469.581 330.186C469.276 329.169 468.825 328.297 468.227 327.572C467.642 326.847 466.923 326.288 466.071 325.893C465.218 325.499 464.258 325.302 463.19 325.302C461.816 325.302 460.563 325.582 459.431 326.141C458.311 326.701 457.351 327.496 456.55 328.526C455.748 329.557 455.125 330.797 454.68 332.247C454.247 333.697 454.031 335.306 454.031 337.074C454.031 338.321 454.184 339.453 454.489 340.47C454.794 341.488 455.239 342.359 455.825 343.084C456.41 343.797 457.122 344.35 457.962 344.744C458.814 345.126 459.781 345.317 460.862 345.317C462.248 345.317 463.508 345.037 464.64 344.477C465.772 343.918 466.738 343.129 467.54 342.111C468.341 341.094 468.958 339.866 469.391 338.429C469.836 336.979 470.058 335.363 470.058 333.583ZM488.392 345.145C489.282 345.145 490.096 344.98 490.834 344.649C491.584 344.306 492.24 343.829 492.799 343.218C493.359 342.595 493.817 341.851 494.173 340.986C494.542 340.121 494.79 339.16 494.917 338.105L496.94 321.524H501.9L499.859 338.105C499.655 339.733 499.223 341.24 498.561 342.627C497.9 344.013 497.048 345.209 496.005 346.214C494.974 347.218 493.766 348.007 492.379 348.58C491.006 349.139 489.498 349.419 487.857 349.419C486.217 349.419 484.773 349.139 483.526 348.58C482.292 348.007 481.281 347.218 480.493 346.214C479.704 345.209 479.151 344.013 478.833 342.627C478.515 341.24 478.457 339.733 478.661 338.105L480.645 321.524H485.606L483.583 338.085C483.456 339.141 483.463 340.108 483.603 340.986C483.755 341.851 484.035 342.595 484.442 343.218C484.862 343.829 485.396 344.306 486.045 344.649C486.706 344.98 487.489 345.145 488.392 345.145ZM528.972 321.524L525.575 349.114H523.019C522.637 349.114 522.319 349.05 522.065 348.923C521.823 348.783 521.594 348.56 521.378 348.255L510.693 329.404C510.667 329.722 510.642 330.027 510.616 330.32C510.591 330.6 510.566 330.867 510.54 331.121L508.365 349.114H503.996L507.392 321.524H509.987C510.203 321.524 510.381 321.537 510.521 321.562C510.674 321.575 510.807 321.613 510.922 321.677C511.036 321.727 511.138 321.804 511.227 321.906C511.316 322.007 511.411 322.147 511.513 322.325L522.255 341.157C522.281 340.776 522.306 340.413 522.332 340.07C522.37 339.714 522.408 339.389 522.446 339.097L524.602 321.524H528.972ZM552.012 325.588H544.475L541.575 349.114H536.652L539.514 325.588H531.939L532.435 321.524H552.527L552.012 325.588ZM557.608 349.114H552.628L555.986 321.524H560.966L557.608 349.114ZM588.373 321.524L584.977 349.114H582.42C582.039 349.114 581.721 349.05 581.466 348.923C581.225 348.783 580.996 348.56 580.779 348.255L570.095 329.404C570.069 329.722 570.044 330.027 570.018 330.32C569.993 330.6 569.967 330.867 569.942 331.121L567.767 349.114H563.397L566.794 321.524H569.389C569.605 321.524 569.783 321.537 569.923 321.562C570.075 321.575 570.209 321.613 570.324 321.677C570.438 321.727 570.54 321.804 570.629 321.906C570.718 322.007 570.813 322.147 570.915 322.325L581.657 341.157C581.683 340.776 581.708 340.413 581.733 340.07C581.772 339.714 581.81 339.389 581.848 339.097L584.004 321.524H588.373ZM604.945 335.357H613.531L612.158 346.443C610.758 347.46 609.251 348.211 607.636 348.694C606.02 349.177 604.176 349.419 602.102 349.419C600.411 349.419 598.871 349.114 597.485 348.503C596.111 347.893 594.928 347.047 593.936 345.966C592.957 344.872 592.2 343.581 591.666 342.092C591.131 340.591 590.864 338.957 590.864 337.189C590.864 335.637 591.036 334.168 591.379 332.781C591.723 331.382 592.206 330.091 592.829 328.908C593.465 327.725 594.229 326.663 595.119 325.722C596.009 324.768 597.002 323.96 598.096 323.298C599.189 322.624 600.372 322.109 601.644 321.753C602.929 321.397 604.271 321.219 605.67 321.219C606.79 321.219 607.801 321.32 608.704 321.524C609.62 321.715 610.447 321.982 611.185 322.325C611.922 322.669 612.584 323.069 613.169 323.527C613.754 323.985 614.275 324.469 614.733 324.977L613.131 327.038C612.876 327.394 612.565 327.617 612.196 327.706C611.827 327.782 611.452 327.693 611.07 327.439C610.701 327.197 610.332 326.962 609.963 326.733C609.595 326.491 609.187 326.275 608.742 326.084C608.31 325.893 607.814 325.741 607.254 325.626C606.694 325.512 606.039 325.454 605.289 325.454C603.915 325.454 602.656 325.734 601.511 326.294C600.366 326.841 599.38 327.623 598.553 328.641C597.727 329.646 597.084 330.86 596.626 332.285C596.168 333.697 595.939 335.274 595.939 337.017C595.939 338.34 596.105 339.523 596.436 340.566C596.779 341.609 597.256 342.493 597.867 343.218C598.477 343.943 599.209 344.503 600.061 344.897C600.926 345.279 601.886 345.469 602.942 345.469C603.985 345.469 604.901 345.374 605.689 345.183C606.478 344.98 607.235 344.694 607.96 344.325L608.59 339.078H605.537C605.219 339.078 604.977 338.995 604.812 338.83C604.659 338.652 604.596 338.435 604.621 338.181L604.945 335.357ZM651.252 333.468C651.252 334.994 651.08 336.451 650.737 337.837C650.406 339.211 649.929 340.49 649.306 341.673C648.683 342.855 647.926 343.924 647.035 344.878C646.145 345.832 645.147 346.646 644.04 347.32C642.946 347.994 641.757 348.516 640.472 348.885C639.187 349.241 637.839 349.419 636.427 349.419C634.672 349.419 633.094 349.107 631.695 348.484C630.296 347.861 629.1 347.002 628.108 345.908C627.129 344.814 626.378 343.523 625.857 342.035C625.335 340.547 625.074 338.931 625.074 337.189C625.074 335.662 625.24 334.212 625.57 332.838C625.914 331.452 626.397 330.167 627.02 328.984C627.656 327.801 628.413 326.733 629.291 325.779C630.181 324.825 631.174 324.011 632.267 323.337C633.374 322.65 634.57 322.128 635.855 321.772C637.139 321.403 638.494 321.219 639.919 321.219C641.674 321.219 643.251 321.53 644.65 322.154C646.05 322.777 647.239 323.635 648.218 324.729C649.198 325.823 649.948 327.121 650.47 328.622C650.991 330.11 651.252 331.725 651.252 333.468ZM646.177 333.583C646.177 332.336 646.018 331.204 645.7 330.186C645.395 329.169 644.943 328.297 644.345 327.572C643.76 326.847 643.041 326.288 642.189 325.893C641.337 325.499 640.376 325.302 639.308 325.302C637.934 325.302 636.681 325.582 635.549 326.141C634.43 326.701 633.469 327.496 632.668 328.526C631.867 329.557 631.243 330.797 630.798 332.247C630.366 333.697 630.15 335.306 630.15 337.074C630.15 338.321 630.302 339.453 630.607 340.47C630.913 341.488 631.358 342.359 631.943 343.084C632.528 343.797 633.241 344.35 634.08 344.744C634.932 345.126 635.899 345.317 636.98 345.317C638.367 345.317 639.626 345.037 640.758 344.477C641.89 343.918 642.857 343.129 643.658 342.111C644.46 341.094 645.077 339.866 645.509 338.429C645.954 336.979 646.177 335.363 646.177 333.583ZM678.706 321.524L675.31 349.114H672.753C672.371 349.114 672.053 349.05 671.799 348.923C671.557 348.783 671.328 348.56 671.112 348.255L660.427 329.404C660.402 329.722 660.376 330.027 660.351 330.32C660.325 330.6 660.3 330.867 660.274 331.121L658.099 349.114H653.73L657.126 321.524H659.721C659.937 321.524 660.115 321.537 660.255 321.562C660.408 321.575 660.542 321.613 660.656 321.677C660.77 321.727 660.872 321.804 660.961 321.906C661.05 322.007 661.146 322.147 661.247 322.325L671.99 341.157C672.015 340.776 672.04 340.413 672.066 340.07C672.104 339.714 672.142 339.389 672.18 339.097L674.336 321.524H678.706ZM708.975 325.588H701.439L698.539 349.114H693.616L696.478 325.588H688.903L689.399 321.524H709.491L708.975 325.588ZM734.567 321.524L731.171 349.114H726.172L727.679 336.998H716.06L714.571 349.114H709.591L712.988 321.524H717.968L716.498 333.487H728.099L729.587 321.524H734.567ZM744.881 325.473L743.908 333.315H752.628L752.151 337.112H743.431L742.439 345.164H753.582L753.085 349.114H736.982L740.378 321.524H756.463L755.967 325.473H744.881ZM779.946 335.357H788.532L787.158 346.443C785.759 347.46 784.252 348.211 782.636 348.694C781.021 349.177 779.176 349.419 777.103 349.419C775.411 349.419 773.872 349.114 772.486 348.503C771.112 347.893 769.929 347.047 768.937 345.966C767.957 344.872 767.2 343.581 766.666 342.092C766.132 340.591 765.865 338.957 765.865 337.189C765.865 335.637 766.036 334.168 766.38 332.781C766.723 331.382 767.207 330.091 767.83 328.908C768.466 327.725 769.229 326.663 770.12 325.722C771.01 324.768 772.002 323.96 773.096 323.298C774.19 322.624 775.373 322.109 776.645 321.753C777.93 321.397 779.272 321.219 780.671 321.219C781.79 321.219 782.801 321.32 783.705 321.524C784.62 321.715 785.447 321.982 786.185 322.325C786.923 322.669 787.584 323.069 788.169 323.527C788.754 323.985 789.276 324.469 789.734 324.977L788.131 327.038C787.877 327.394 787.565 327.617 787.196 327.706C786.827 327.782 786.452 327.693 786.071 327.439C785.702 327.197 785.333 326.962 784.964 326.733C784.595 326.491 784.188 326.275 783.743 326.084C783.31 325.893 782.814 325.741 782.255 325.626C781.695 325.512 781.04 325.454 780.289 325.454C778.916 325.454 777.656 325.734 776.511 326.294C775.367 326.841 774.381 327.623 773.554 328.641C772.727 329.646 772.085 330.86 771.627 332.285C771.169 333.697 770.94 335.274 770.94 337.017C770.94 338.34 771.105 339.523 771.436 340.566C771.78 341.609 772.257 342.493 772.867 343.218C773.478 343.943 774.209 344.503 775.061 344.897C775.926 345.279 776.887 345.469 777.942 345.469C778.985 345.469 779.901 345.374 780.69 345.183C781.479 344.98 782.235 344.694 782.96 344.325L783.59 339.078H780.537C780.219 339.078 779.978 338.995 779.812 338.83C779.66 338.652 779.596 338.435 779.621 338.181L779.946 335.357ZM817.905 333.468C817.905 334.994 817.733 336.451 817.39 337.837C817.059 339.211 816.582 340.49 815.959 341.673C815.336 342.855 814.579 343.924 813.688 344.878C812.798 345.832 811.799 346.646 810.693 347.32C809.599 347.994 808.41 348.516 807.125 348.885C805.84 349.241 804.492 349.419 803.08 349.419C801.324 349.419 799.747 349.107 798.348 348.484C796.949 347.861 795.753 347.002 794.761 345.908C793.781 344.814 793.031 343.523 792.509 342.035C791.988 340.547 791.727 338.931 791.727 337.189C791.727 335.662 791.893 334.212 792.223 332.838C792.567 331.452 793.05 330.167 793.673 328.984C794.309 327.801 795.066 326.733 795.944 325.779C796.834 324.825 797.826 324.011 798.92 323.337C800.027 322.65 801.223 322.128 802.507 321.772C803.792 321.403 805.147 321.219 806.572 321.219C808.327 321.219 809.904 321.53 811.303 322.154C812.703 322.777 813.892 323.635 814.871 324.729C815.851 325.823 816.601 327.121 817.123 328.622C817.644 330.11 817.905 331.725 817.905 333.468ZM812.83 333.583C812.83 332.336 812.671 331.204 812.353 330.186C812.048 329.169 811.596 328.297 810.998 327.572C810.413 326.847 809.694 326.288 808.842 325.893C807.99 325.499 807.029 325.302 805.961 325.302C804.587 325.302 803.334 325.582 802.202 326.141C801.083 326.701 800.122 327.496 799.321 328.526C798.52 329.557 797.896 330.797 797.451 332.247C797.019 333.697 796.803 335.306 796.803 337.074C796.803 338.321 796.955 339.453 797.26 340.47C797.566 341.488 798.011 342.359 798.596 343.084C799.181 343.797 799.893 344.35 800.733 344.744C801.585 345.126 802.552 345.317 803.633 345.317C805.02 345.317 806.279 345.037 807.411 344.477C808.543 343.918 809.51 343.129 810.311 342.111C811.113 341.094 811.73 339.866 812.162 338.429C812.607 336.979 812.83 335.363 812.83 333.583Z" fill="#E2A827"/>
<path d="M200.944 815.909H193.156L190.159 840.219H185.072L188.03 815.909H180.202L180.715 811.71H201.476L200.944 815.909ZM203.908 824.841C204.421 823.842 204.966 822.987 205.545 822.278C206.136 821.555 206.747 820.996 207.378 820.602C208.009 820.194 208.66 819.958 209.33 819.892C210 819.813 210.671 819.918 211.341 820.207L210.454 824.86C208.85 824.19 207.444 824.354 206.235 825.353C205.038 826.352 204.079 828.317 203.356 831.248L202.272 840.219H197.5L199.945 819.971H202.429C202.942 819.971 203.336 820.096 203.612 820.345C203.902 820.595 204.046 820.996 204.046 821.548L203.908 824.841ZM224.077 823.185C223.893 823.171 223.716 823.165 223.545 823.165C223.387 823.152 223.229 823.145 223.072 823.145C221.981 823.145 220.968 823.395 220.035 823.894C219.102 824.394 218.294 825.071 217.61 825.925C216.94 826.766 216.407 827.752 216.013 828.882C215.632 830 215.441 831.183 215.441 832.431C215.441 833.851 215.665 834.889 216.112 835.547C216.559 836.204 217.17 836.532 217.945 836.532C218.484 836.532 219.01 836.348 219.523 835.98C220.048 835.599 220.541 835.086 221.001 834.442C221.475 833.785 221.902 833.016 222.283 832.136C222.677 831.255 223.019 830.309 223.308 829.297L224.077 823.185ZM222.736 836C221.843 837.38 220.83 838.478 219.7 839.293C218.583 840.108 217.36 840.515 216.033 840.515C215.271 840.515 214.554 840.364 213.884 840.062C213.227 839.759 212.648 839.312 212.149 838.721C211.662 838.116 211.275 837.367 210.986 836.473C210.71 835.566 210.572 834.508 210.572 833.299C210.572 832.09 210.723 830.913 211.025 829.77C211.327 828.626 211.754 827.555 212.307 826.556C212.872 825.544 213.549 824.617 214.337 823.776C215.126 822.935 216.007 822.212 216.979 821.607C217.965 821.003 219.023 820.536 220.154 820.207C221.297 819.866 222.5 819.695 223.762 819.695C224.669 819.695 225.575 819.76 226.482 819.892C227.403 820.023 228.296 820.26 229.164 820.602L226.739 840.219H224.156C223.538 840.219 223.118 840.068 222.894 839.766C222.684 839.45 222.579 839.063 222.579 838.603L222.736 836ZM246.79 836.631C246.12 837.367 245.476 837.985 244.858 838.484C244.254 838.984 243.636 839.385 243.005 839.687C242.374 839.989 241.71 840.2 241.014 840.318C240.33 840.449 239.574 840.515 238.746 840.515C237.576 840.515 236.525 840.318 235.592 839.923C234.672 839.516 233.889 838.944 233.245 838.208C232.601 837.472 232.108 836.585 231.767 835.547C231.425 834.508 231.254 833.351 231.254 832.076C231.254 830.986 231.372 829.921 231.609 828.882C231.846 827.844 232.187 826.865 232.634 825.945C233.081 825.025 233.62 824.183 234.251 823.421C234.882 822.659 235.592 822.002 236.38 821.449C237.169 820.897 238.023 820.47 238.943 820.168C239.877 819.852 240.862 819.695 241.901 819.695C243.241 819.695 244.378 819.931 245.312 820.405C246.258 820.878 247.093 821.587 247.816 822.534L246.258 824.387C246.153 824.505 246.021 824.617 245.864 824.722C245.706 824.814 245.535 824.86 245.351 824.86C245.128 824.86 244.924 824.795 244.74 824.663C244.569 824.519 244.359 824.367 244.109 824.21C243.872 824.052 243.57 823.907 243.202 823.776C242.847 823.631 242.381 823.559 241.802 823.559C241.053 823.559 240.337 823.763 239.653 824.17C238.97 824.578 238.365 825.156 237.839 825.905C237.313 826.655 236.893 827.555 236.577 828.606C236.275 829.658 236.124 830.821 236.124 832.096C236.124 833.581 236.453 834.732 237.11 835.547C237.767 836.348 238.661 836.749 239.791 836.749C240.291 836.749 240.731 836.697 241.112 836.591C241.493 836.486 241.828 836.361 242.118 836.217C242.42 836.059 242.683 835.895 242.906 835.724C243.13 835.54 243.34 835.376 243.537 835.231C243.734 835.073 243.918 834.942 244.089 834.837C244.273 834.732 244.47 834.679 244.681 834.679C244.852 834.679 245.009 834.725 245.154 834.817C245.312 834.896 245.45 835.001 245.568 835.132L246.79 836.631ZM257.422 810.921L255.372 827.699H255.865C256.167 827.699 256.41 827.653 256.594 827.561C256.791 827.469 256.995 827.299 257.205 827.049L262.588 820.838C262.811 820.562 263.048 820.352 263.298 820.207C263.547 820.063 263.863 819.99 264.244 819.99H268.582L261.918 827.502C261.444 828.081 260.932 828.534 260.38 828.863C260.629 829.047 260.84 829.27 261.011 829.533C261.195 829.796 261.359 830.085 261.504 830.401L266.492 840.219H262.272C261.918 840.219 261.622 840.16 261.385 840.042C261.149 839.91 260.958 839.68 260.813 839.352L256.89 831.682C256.745 831.38 256.588 831.183 256.417 831.091C256.259 830.999 255.996 830.953 255.628 830.953H254.958L253.834 840.219H249.023L252.631 810.921H257.422ZM286.335 815.791L285.33 823.894H294.34L293.847 827.818H284.837L283.811 836.138H295.326L294.813 840.219H278.173L281.682 811.71H298.303L297.79 815.791H286.335ZM317.293 819.99L307.317 840.219H303.236L298.169 819.99H302.171C302.513 819.99 302.782 820.076 302.979 820.247C303.19 820.418 303.321 820.635 303.374 820.897L305.483 831.702C305.589 832.359 305.674 833.003 305.74 833.634C305.805 834.265 305.858 834.896 305.897 835.527C306.292 834.265 306.752 832.99 307.278 831.702L312.108 820.897C312.226 820.635 312.404 820.418 312.64 820.247C312.89 820.076 313.166 819.99 313.468 819.99H317.293ZM327.231 823.106C326.574 823.106 325.963 823.244 325.397 823.52C324.832 823.783 324.32 824.157 323.859 824.643C323.413 825.13 323.018 825.715 322.677 826.398C322.348 827.069 322.085 827.805 321.888 828.606C323.518 828.383 324.826 828.14 325.811 827.877C326.81 827.601 327.579 827.312 328.118 827.009C328.657 826.694 329.012 826.359 329.183 826.004C329.367 825.636 329.459 825.255 329.459 824.86C329.459 824.663 329.413 824.459 329.321 824.249C329.242 824.039 329.111 823.855 328.927 823.697C328.756 823.526 328.526 823.388 328.236 823.283C327.96 823.165 327.625 823.106 327.231 823.106ZM321.474 831.978C321.474 835.159 322.821 836.749 325.516 836.749C326.094 836.749 326.607 836.697 327.053 836.591C327.5 836.473 327.888 836.335 328.217 836.177C328.558 836.02 328.861 835.842 329.124 835.645C329.4 835.448 329.649 835.27 329.873 835.113C330.109 834.955 330.34 834.824 330.563 834.718C330.786 834.6 331.03 834.541 331.292 834.541C331.45 834.541 331.601 834.58 331.746 834.659C331.904 834.738 332.042 834.843 332.16 834.975L333.402 836.473C332.705 837.17 332.022 837.774 331.352 838.287C330.681 838.8 329.998 839.22 329.301 839.549C328.604 839.877 327.868 840.121 327.093 840.278C326.317 840.436 325.476 840.515 324.569 840.515C323.386 840.515 322.315 840.318 321.356 839.923C320.396 839.516 319.575 838.951 318.891 838.228C318.208 837.492 317.675 836.611 317.294 835.586C316.926 834.548 316.742 833.391 316.742 832.116C316.742 831.051 316.854 830.006 317.077 828.981C317.314 827.956 317.649 826.983 318.083 826.063C318.516 825.143 319.049 824.295 319.68 823.52C320.311 822.744 321.02 822.074 321.809 821.509C322.611 820.943 323.485 820.503 324.431 820.188C325.391 819.872 326.416 819.714 327.507 819.714C328.558 819.714 329.479 819.866 330.267 820.168C331.069 820.47 331.733 820.865 332.259 821.351C332.797 821.824 333.198 822.356 333.461 822.948C333.724 823.539 333.856 824.118 333.856 824.683C333.856 825.59 333.672 826.418 333.304 827.167C332.949 827.916 332.305 828.587 331.371 829.178C330.451 829.77 329.189 830.282 327.586 830.716C325.982 831.137 323.945 831.472 321.474 831.722V831.978ZM342.306 824.841C342.819 823.842 343.364 822.987 343.943 822.278C344.534 821.555 345.145 820.996 345.776 820.602C346.407 820.194 347.058 819.958 347.728 819.892C348.398 819.813 349.069 819.918 349.739 820.207L348.852 824.86C347.248 824.19 345.842 824.354 344.633 825.353C343.436 826.352 342.477 828.317 341.754 831.248L340.67 840.219H335.898L338.343 819.971H340.827C341.34 819.971 341.734 820.096 342.01 820.345C342.299 820.595 342.444 820.996 342.444 821.548L342.306 824.841ZM369.397 819.99L356.029 845.819C355.845 846.16 355.628 846.41 355.378 846.568C355.129 846.739 354.82 846.824 354.452 846.824H350.844L355.339 838.662L350.233 819.99H354.314C354.669 819.99 354.932 820.082 355.102 820.267C355.286 820.437 355.411 820.648 355.477 820.897L357.961 831.386C358.093 832.057 358.191 832.727 358.257 833.397C358.402 833.056 358.546 832.721 358.691 832.392C358.849 832.05 359.006 831.708 359.164 831.367L364.152 820.878C364.284 820.615 364.474 820.405 364.724 820.247C364.974 820.076 365.23 819.99 365.493 819.99H369.397ZM409.854 811.71L406.345 840.219H401.849L404.136 821.647C404.189 821.305 404.248 820.937 404.314 820.543C404.393 820.148 404.478 819.741 404.57 819.32L394.771 835.566C394.548 835.934 394.265 836.21 393.924 836.394C393.595 836.578 393.233 836.67 392.839 836.67H392.129C391.735 836.67 391.387 836.578 391.084 836.394C390.795 836.21 390.585 835.934 390.453 835.566L384.578 819.32C384.565 819.728 384.545 820.122 384.519 820.503C384.506 820.884 384.479 821.239 384.44 821.568L382.192 840.219H377.677L381.187 811.71H385.032C385.255 811.71 385.439 811.723 385.584 811.749C385.741 811.762 385.879 811.802 385.998 811.867C386.116 811.92 386.228 812.005 386.333 812.124C386.438 812.229 386.55 812.367 386.668 812.538L392.563 828.823C392.8 829.52 392.997 830.23 393.155 830.953C393.325 830.585 393.496 830.223 393.667 829.868C393.851 829.513 394.048 829.165 394.259 828.823L404.156 812.538C404.314 812.367 404.452 812.229 404.57 812.124C404.702 812.005 404.833 811.92 404.965 811.867C405.096 811.802 405.241 811.762 405.398 811.749C405.556 811.723 405.747 811.71 405.97 811.71H409.854ZM418.749 819.99L416.324 840.219H411.533L413.958 819.99H418.749ZM419.991 814.095C419.991 814.516 419.899 814.91 419.715 815.278C419.544 815.646 419.314 815.968 419.025 816.244C418.736 816.52 418.407 816.744 418.039 816.915C417.671 817.073 417.29 817.151 416.896 817.151C416.514 817.151 416.146 817.073 415.791 816.915C415.437 816.744 415.121 816.52 414.845 816.244C414.569 815.968 414.346 815.646 414.175 815.278C414.017 814.91 413.938 814.516 413.938 814.095C413.938 813.675 414.024 813.274 414.194 812.893C414.365 812.512 414.589 812.183 414.865 811.907C415.141 811.618 415.456 811.394 415.811 811.237C416.179 811.066 416.554 810.98 416.935 810.98C417.329 810.98 417.711 811.066 418.079 811.237C418.447 811.394 418.769 811.611 419.045 811.887C419.334 812.163 419.564 812.492 419.735 812.873C419.906 813.254 419.991 813.662 419.991 814.095ZM421.06 840.219L424.609 810.921H429.42L425.851 840.219H421.06ZM440.945 823.106C440.288 823.106 439.677 823.244 439.112 823.52C438.546 823.783 438.034 824.157 437.574 824.643C437.127 825.13 436.733 825.715 436.391 826.398C436.062 827.069 435.799 827.805 435.602 828.606C437.232 828.383 438.54 828.14 439.526 827.877C440.525 827.601 441.294 827.312 441.832 827.009C442.371 826.694 442.726 826.359 442.897 826.004C443.081 825.636 443.173 825.255 443.173 824.86C443.173 824.663 443.127 824.459 443.035 824.249C442.956 824.039 442.825 823.855 442.641 823.697C442.47 823.526 442.24 823.388 441.951 823.283C441.675 823.165 441.34 823.106 440.945 823.106ZM435.188 831.978C435.188 835.159 436.535 836.749 439.23 836.749C439.808 836.749 440.321 836.697 440.768 836.591C441.215 836.473 441.602 836.335 441.931 836.177C442.273 836.02 442.575 835.842 442.838 835.645C443.114 835.448 443.364 835.27 443.587 835.113C443.824 834.955 444.054 834.824 444.277 834.718C444.501 834.6 444.744 834.541 445.007 834.541C445.165 834.541 445.316 834.58 445.46 834.659C445.618 834.738 445.756 834.843 445.874 834.975L447.116 836.473C446.42 837.17 445.736 837.774 445.066 838.287C444.396 838.8 443.712 839.22 443.015 839.549C442.319 839.877 441.583 840.121 440.807 840.278C440.032 840.436 439.191 840.515 438.284 840.515C437.101 840.515 436.029 840.318 435.07 839.923C434.11 839.516 433.289 838.951 432.605 838.228C431.922 837.492 431.389 836.611 431.008 835.586C430.64 834.548 430.456 833.391 430.456 832.116C430.456 831.051 430.568 830.006 430.791 828.981C431.028 827.956 431.363 826.983 431.797 826.063C432.231 825.143 432.763 824.295 433.394 823.52C434.025 822.744 434.735 822.074 435.523 821.509C436.325 820.943 437.199 820.503 438.146 820.188C439.105 819.872 440.13 819.714 441.221 819.714C442.273 819.714 443.193 819.866 443.982 820.168C444.783 820.47 445.447 820.865 445.973 821.351C446.512 821.824 446.913 822.356 447.176 822.948C447.438 823.539 447.57 824.118 447.57 824.683C447.57 825.59 447.386 826.418 447.018 827.167C446.663 827.916 446.019 828.587 445.086 829.178C444.166 829.77 442.904 830.282 441.3 830.716C439.697 831.137 437.659 831.472 435.188 831.722V831.978ZM449.435 837.538C449.435 837.13 449.507 836.743 449.652 836.375C449.81 836.007 450.02 835.691 450.283 835.428C450.559 835.165 450.881 834.955 451.249 834.797C451.617 834.64 452.011 834.561 452.432 834.561C452.84 834.561 453.227 834.64 453.595 834.797C453.963 834.955 454.279 835.165 454.542 835.428C454.818 835.691 455.035 836.007 455.192 836.375C455.35 836.743 455.429 837.13 455.429 837.538C455.429 837.958 455.35 838.353 455.192 838.721C455.035 839.076 454.818 839.385 454.542 839.647C454.279 839.91 453.963 840.114 453.595 840.259C453.227 840.416 452.84 840.495 452.432 840.495C452.011 840.495 451.617 840.416 451.249 840.259C450.881 840.114 450.559 839.91 450.283 839.647C450.02 839.385 449.81 839.076 449.652 838.721C449.507 838.353 449.435 837.958 449.435 837.538ZM480.351 836.197C481.153 836.197 481.85 836.138 482.441 836.02C483.033 835.888 483.552 835.724 483.999 835.527C484.446 835.33 484.82 835.126 485.123 834.916C485.438 834.692 485.714 834.482 485.951 834.285C486.187 834.088 486.398 833.93 486.582 833.811C486.766 833.68 486.95 833.614 487.134 833.614C487.305 833.614 487.443 833.647 487.548 833.713C487.653 833.779 487.738 833.844 487.804 833.91L489.598 836.138C488.363 837.558 486.91 838.649 485.241 839.411C483.572 840.16 481.653 840.535 479.484 840.535C477.722 840.535 476.158 840.226 474.791 839.608C473.424 838.977 472.268 838.11 471.321 837.006C470.388 835.901 469.672 834.594 469.172 833.082C468.686 831.57 468.443 829.921 468.443 828.133C468.443 826.49 468.62 824.939 468.975 823.48C469.33 822.008 469.836 820.654 470.493 819.419C471.15 818.17 471.933 817.053 472.839 816.067C473.76 815.081 474.778 814.24 475.895 813.543C477.026 812.847 478.235 812.314 479.523 811.946C480.825 811.578 482.178 811.394 483.585 811.394C484.623 811.394 485.57 811.493 486.424 811.69C487.278 811.874 488.047 812.137 488.731 812.479C489.427 812.82 490.052 813.234 490.604 813.721C491.169 814.194 491.675 814.726 492.122 815.318L490.347 817.447C490.216 817.605 490.058 817.743 489.874 817.861C489.703 817.979 489.486 818.039 489.224 818.039C488.934 818.039 488.658 817.92 488.395 817.684C488.133 817.447 487.797 817.191 487.39 816.915C486.996 816.626 486.476 816.363 485.832 816.126C485.201 815.89 484.367 815.771 483.328 815.771C481.961 815.771 480.686 816.054 479.504 816.619C478.334 817.171 477.315 817.966 476.448 819.005C475.58 820.043 474.897 821.298 474.397 822.77C473.911 824.229 473.668 825.872 473.668 827.699C473.668 829.027 473.832 830.217 474.16 831.268C474.502 832.32 474.969 833.213 475.56 833.95C476.165 834.672 476.875 835.231 477.69 835.625C478.505 836.007 479.392 836.197 480.351 836.197ZM499.714 836.769C500.529 836.769 501.265 836.539 501.922 836.079C502.58 835.606 503.138 834.981 503.598 834.206C504.058 833.417 504.413 832.504 504.663 831.465C504.913 830.427 505.037 829.336 505.037 828.192C505.037 826.549 504.761 825.347 504.209 824.584C503.657 823.809 502.816 823.421 501.686 823.421C500.871 823.421 500.128 823.651 499.458 824.111C498.801 824.571 498.242 825.196 497.782 825.984C497.322 826.76 496.967 827.667 496.717 828.705C496.468 829.743 496.343 830.841 496.343 831.998C496.343 833.641 496.619 834.85 497.171 835.625C497.723 836.388 498.571 836.769 499.714 836.769ZM499.261 840.515C498.143 840.515 497.112 840.331 496.165 839.963C495.219 839.582 494.397 839.03 493.701 838.307C493.004 837.584 492.459 836.697 492.064 835.645C491.67 834.594 491.473 833.391 491.473 832.037C491.473 830.289 491.755 828.659 492.321 827.147C492.886 825.636 493.648 824.328 494.608 823.224C495.58 822.12 496.711 821.252 497.999 820.621C499.287 819.99 500.66 819.675 502.119 819.675C503.237 819.675 504.269 819.866 505.215 820.247C506.174 820.615 506.996 821.16 507.679 821.883C508.376 822.606 508.922 823.493 509.316 824.545C509.71 825.596 509.907 826.799 509.907 828.153C509.907 829.888 509.625 831.511 509.06 833.023C508.494 834.521 507.725 835.829 506.753 836.946C505.793 838.05 504.669 838.925 503.381 839.569C502.093 840.2 500.72 840.515 499.261 840.515ZM531.297 819.99L528.852 840.219H526.388C525.231 840.219 524.653 839.661 524.653 838.543L524.771 836.217C523.746 837.663 522.622 838.741 521.399 839.45C520.19 840.16 518.935 840.515 517.634 840.515C516.792 840.515 516.037 840.344 515.366 840.002C514.696 839.661 514.144 839.168 513.71 838.524C513.276 837.866 512.967 837.058 512.783 836.099C512.613 835.139 512.606 834.048 512.764 832.826L514.282 819.99H519.152L517.634 832.826C517.463 834.153 517.528 835.106 517.831 835.685C518.133 836.25 518.685 836.532 519.487 836.532C520.013 836.532 520.545 836.388 521.084 836.099C521.636 835.809 522.168 835.395 522.681 834.856C523.194 834.318 523.667 833.673 524.1 832.924C524.534 832.162 524.896 831.314 525.185 830.381L526.427 819.99H531.297ZM539.775 824.17C540.801 822.659 541.938 821.535 543.186 820.799C544.435 820.05 545.723 819.675 547.051 819.675C547.892 819.675 548.648 819.846 549.318 820.188C549.988 820.529 550.54 821.029 550.974 821.686C551.408 822.33 551.71 823.132 551.881 824.091C552.065 825.038 552.078 826.122 551.921 827.345L550.402 840.219H545.533L547.051 827.345C547.222 826.03 547.156 825.09 546.854 824.525C546.551 823.947 545.999 823.658 545.197 823.658C544.658 823.658 544.106 823.815 543.541 824.131C542.976 824.433 542.431 824.874 541.905 825.452C541.379 826.017 540.893 826.701 540.446 827.502C540.012 828.291 539.657 829.178 539.381 830.164L538.257 840.219H533.387L535.812 819.971H538.277C538.79 819.971 539.184 820.096 539.46 820.345C539.749 820.595 539.894 820.996 539.894 821.548L539.775 824.17ZM556.147 836.099C556.147 836.007 556.147 835.901 556.147 835.783C556.147 835.652 556.153 835.468 556.167 835.231C556.193 834.981 556.226 834.659 556.265 834.265C556.318 833.858 556.383 833.338 556.462 832.707L557.586 823.638H555.674C555.437 823.638 555.24 823.553 555.082 823.382C554.938 823.211 554.892 822.954 554.944 822.613L555.161 820.681L558.237 820.148L559.854 814.628C559.946 814.365 560.084 814.161 560.268 814.017C560.452 813.872 560.682 813.8 560.958 813.8H563.56L562.772 820.168H567.661L567.247 823.638H562.338L561.253 832.451C561.188 832.99 561.135 833.417 561.096 833.733C561.056 834.048 561.023 834.298 560.997 834.482C560.984 834.653 560.977 834.778 560.977 834.856C560.977 834.922 560.977 834.968 560.977 834.994C560.977 835.494 561.096 835.888 561.332 836.177C561.582 836.467 561.93 836.611 562.377 836.611C562.653 836.611 562.89 836.578 563.087 836.513C563.284 836.434 563.455 836.355 563.6 836.276C563.744 836.197 563.876 836.125 563.994 836.059C564.112 835.98 564.224 835.941 564.329 835.941C564.474 835.941 564.585 835.98 564.664 836.059C564.743 836.125 564.815 836.23 564.881 836.375L565.926 838.741C565.203 839.332 564.401 839.779 563.521 840.081C562.653 840.384 561.766 840.535 560.859 840.535C559.426 840.535 558.289 840.147 557.448 839.371C556.62 838.596 556.186 837.505 556.147 836.099ZM586.39 815.791L585.384 823.894H594.395L593.902 827.818H584.891L583.866 836.138H595.38L594.868 840.219H578.227L581.737 811.71H598.358L597.845 815.791H586.39ZM617.348 819.99L607.372 840.219H603.291L598.224 819.99H602.226C602.568 819.99 602.837 820.076 603.034 820.247C603.245 820.418 603.376 820.635 603.429 820.897L605.538 831.702C605.643 832.359 605.729 833.003 605.795 833.634C605.86 834.265 605.913 834.896 605.952 835.527C606.347 834.265 606.807 832.99 607.332 831.702L612.163 820.897C612.281 820.635 612.459 820.418 612.695 820.247C612.945 820.076 613.221 819.99 613.523 819.99H617.348ZM627.286 823.106C626.629 823.106 626.017 823.244 625.452 823.52C624.887 823.783 624.374 824.157 623.914 824.643C623.467 825.13 623.073 825.715 622.731 826.398C622.403 827.069 622.14 827.805 621.943 828.606C623.573 828.383 624.88 828.14 625.866 827.877C626.865 827.601 627.634 827.312 628.173 827.009C628.712 826.694 629.067 826.359 629.238 826.004C629.422 825.636 629.514 825.255 629.514 824.86C629.514 824.663 629.468 824.459 629.376 824.249C629.297 824.039 629.165 823.855 628.981 823.697C628.81 823.526 628.58 823.388 628.291 823.283C628.015 823.165 627.68 823.106 627.286 823.106ZM621.529 831.978C621.529 835.159 622.876 836.749 625.57 836.749C626.149 836.749 626.661 836.697 627.108 836.591C627.555 836.473 627.943 836.335 628.272 836.177C628.613 836.02 628.916 835.842 629.179 835.645C629.455 835.448 629.704 835.27 629.928 835.113C630.164 834.955 630.394 834.824 630.618 834.718C630.841 834.6 631.084 834.541 631.347 834.541C631.505 834.541 631.656 834.58 631.801 834.659C631.959 834.738 632.097 834.843 632.215 834.975L633.457 836.473C632.76 837.17 632.077 837.774 631.406 838.287C630.736 838.8 630.053 839.22 629.356 839.549C628.659 839.877 627.923 840.121 627.148 840.278C626.372 840.436 625.531 840.515 624.624 840.515C623.441 840.515 622.37 840.318 621.41 839.923C620.451 839.516 619.629 838.951 618.946 838.228C618.262 837.492 617.73 836.611 617.349 835.586C616.981 834.548 616.797 833.391 616.797 832.116C616.797 831.051 616.909 830.006 617.132 828.981C617.369 827.956 617.704 826.983 618.137 826.063C618.571 825.143 619.104 824.295 619.735 823.52C620.365 822.744 621.075 822.074 621.864 821.509C622.666 820.943 623.54 820.503 624.486 820.188C625.446 819.872 626.471 819.714 627.562 819.714C628.613 819.714 629.533 819.866 630.322 820.168C631.124 820.47 631.788 820.865 632.313 821.351C632.852 821.824 633.253 822.356 633.516 822.948C633.779 823.539 633.91 824.118 633.91 824.683C633.91 825.59 633.726 826.418 633.358 827.167C633.003 827.916 632.359 828.587 631.426 829.178C630.506 829.77 629.244 830.282 627.641 830.716C626.037 831.137 624 831.472 621.529 831.722V831.978ZM642.361 824.841C642.874 823.842 643.419 822.987 643.997 822.278C644.589 821.555 645.2 820.996 645.831 820.602C646.462 820.194 647.112 819.958 647.783 819.892C648.453 819.813 649.124 819.918 649.794 820.207L648.907 824.86C647.303 824.19 645.897 824.354 644.687 825.353C643.491 826.352 642.532 828.317 641.809 831.248L640.724 840.219H635.953L638.398 819.971H640.882C641.395 819.971 641.789 820.096 642.065 820.345C642.354 820.595 642.499 820.996 642.499 821.548L642.361 824.841ZM669.452 819.99L656.084 845.819C655.9 846.16 655.683 846.41 655.433 846.568C655.184 846.739 654.875 846.824 654.507 846.824H650.899L655.394 838.662L650.287 819.99H654.369C654.724 819.99 654.986 820.082 655.157 820.267C655.341 820.437 655.466 820.648 655.532 820.897L658.016 831.386C658.148 832.057 658.246 832.727 658.312 833.397C658.456 833.056 658.601 832.721 658.746 832.392C658.903 832.05 659.061 831.708 659.219 831.367L664.207 820.878C664.338 820.615 664.529 820.405 664.779 820.247C665.029 820.076 665.285 819.99 665.548 819.99H669.452ZM703.048 824.052C703.048 826.418 702.667 828.593 701.904 830.578C701.142 832.563 700.077 834.272 698.71 835.704C697.356 837.124 695.746 838.234 693.88 839.036C692.013 839.825 689.976 840.219 687.768 840.219H677.732L681.242 811.71H691.297C693.111 811.71 694.741 812.019 696.187 812.636C697.646 813.254 698.881 814.109 699.893 815.199C700.905 816.29 701.681 817.592 702.22 819.103C702.772 820.615 703.048 822.264 703.048 824.052ZM697.803 824.17C697.803 822.895 697.646 821.739 697.33 820.7C697.015 819.662 696.555 818.781 695.95 818.058C695.358 817.322 694.629 816.757 693.761 816.363C692.894 815.968 691.902 815.771 690.784 815.771H685.895L683.371 836.138H688.28C689.713 836.138 691.014 835.862 692.184 835.31C693.354 834.758 694.353 833.969 695.181 832.944C696.022 831.906 696.666 830.65 697.113 829.178C697.573 827.693 697.803 826.024 697.803 824.17ZM713.164 836.769C713.979 836.769 714.715 836.539 715.373 836.079C716.03 835.606 716.588 834.981 717.048 834.206C717.508 833.417 717.863 832.504 718.113 831.465C718.363 830.427 718.488 829.336 718.488 828.192C718.488 826.549 718.212 825.347 717.66 824.584C717.108 823.809 716.266 823.421 715.136 823.421C714.321 823.421 713.578 823.651 712.908 824.111C712.251 824.571 711.692 825.196 711.232 825.984C710.772 826.76 710.417 827.667 710.167 828.705C709.918 829.743 709.793 830.841 709.793 831.998C709.793 833.641 710.069 834.85 710.621 835.625C711.173 836.388 712.021 836.769 713.164 836.769ZM712.711 840.515C711.594 840.515 710.562 840.331 709.615 839.963C708.669 839.582 707.848 839.03 707.151 838.307C706.454 837.584 705.909 836.697 705.514 835.645C705.12 834.594 704.923 833.391 704.923 832.037C704.923 830.289 705.206 828.659 705.771 827.147C706.336 825.636 707.098 824.328 708.058 823.224C709.031 822.12 710.161 821.252 711.449 820.621C712.737 819.99 714.111 819.675 715.57 819.675C716.687 819.675 717.719 819.866 718.665 820.247C719.625 820.615 720.446 821.16 721.13 821.883C721.826 822.606 722.372 823.493 722.766 824.545C723.16 825.596 723.358 826.799 723.358 828.153C723.358 829.888 723.075 831.511 722.51 833.023C721.945 834.521 721.176 835.829 720.203 836.946C719.243 838.05 718.12 838.925 716.832 839.569C715.543 840.2 714.17 840.515 712.711 840.515ZM725.544 840.219L729.092 810.921H733.903L730.335 840.219H725.544ZM734.94 840.219L738.488 810.921H743.299L739.731 840.219H734.94ZM757.683 823.185C757.499 823.171 757.322 823.165 757.151 823.165C756.993 823.152 756.836 823.145 756.678 823.145C755.587 823.145 754.575 823.395 753.642 823.894C752.708 824.394 751.9 825.071 751.216 825.925C750.546 826.766 750.014 827.752 749.619 828.882C749.238 830 749.048 831.183 749.048 832.431C749.048 833.851 749.271 834.889 749.718 835.547C750.165 836.204 750.776 836.532 751.552 836.532C752.091 836.532 752.616 836.348 753.129 835.98C753.655 835.599 754.148 835.086 754.608 834.442C755.081 833.785 755.508 833.016 755.889 832.136C756.284 831.255 756.625 830.309 756.914 829.297L757.683 823.185ZM756.343 836C755.449 837.38 754.437 838.478 753.306 839.293C752.189 840.108 750.967 840.515 749.639 840.515C748.877 840.515 748.16 840.364 747.49 840.062C746.833 839.759 746.255 839.312 745.755 838.721C745.269 838.116 744.881 837.367 744.592 836.473C744.316 835.566 744.178 834.508 744.178 833.299C744.178 832.09 744.329 830.913 744.631 829.77C744.934 828.626 745.361 827.555 745.913 826.556C746.478 825.544 747.155 824.617 747.944 823.776C748.732 822.935 749.613 822.212 750.586 821.607C751.571 821.003 752.629 820.536 753.76 820.207C754.903 819.866 756.106 819.695 757.368 819.695C758.275 819.695 759.182 819.76 760.089 819.892C761.009 820.023 761.903 820.26 762.77 820.602L760.345 840.219H757.762C757.144 840.219 756.724 840.068 756.5 839.766C756.29 839.45 756.185 839.063 756.185 838.603L756.343 836ZM771.209 824.841C771.722 823.842 772.267 822.987 772.845 822.278C773.437 821.555 774.048 820.996 774.679 820.602C775.31 820.194 775.96 819.958 776.631 819.892C777.301 819.813 777.972 819.918 778.642 820.207L777.755 824.86C776.151 824.19 774.745 824.354 773.535 825.353C772.339 826.352 771.38 828.317 770.657 831.248L769.572 840.219H764.801L767.246 819.971H769.73C770.243 819.971 770.637 820.096 770.913 820.345C771.202 820.595 771.347 820.996 771.347 821.548L771.209 824.841ZM776.869 837.538C776.869 837.13 776.942 836.743 777.086 836.375C777.244 836.007 777.454 835.691 777.717 835.428C777.993 835.165 778.315 834.955 778.683 834.797C779.051 834.64 779.445 834.561 779.866 834.561C780.274 834.561 780.661 834.64 781.029 834.797C781.397 834.955 781.713 835.165 781.976 835.428C782.252 835.691 782.469 836.007 782.626 836.375C782.784 836.743 782.863 837.13 782.863 837.538C782.863 837.958 782.784 838.353 782.626 838.721C782.469 839.076 782.252 839.385 781.976 839.647C781.713 839.91 781.397 840.114 781.029 840.259C780.661 840.416 780.274 840.495 779.866 840.495C779.445 840.495 779.051 840.416 778.683 840.259C778.315 840.114 777.993 839.91 777.717 839.647C777.454 839.385 777.244 839.076 777.086 838.721C776.942 838.353 776.869 837.958 776.869 837.538Z" fill="#0C213F"/>
<path fill-rule="evenodd" clip-rule="evenodd" d="M913.728 623.736L913.652 620.251C910.853 619.678 866.702 621.752 859.757 621.993C824.255 623.227 787.761 625.021 752.615 625.924C736.512 626.356 713.603 627.921 698.937 627.832L698.975 608.268L699 596.07L699.178 499.601L699.204 487.898L699.242 467.368L699.267 455.729L699.369 401.173C703.389 402.216 709.049 404.709 713.03 406.299C717.419 408.041 721.845 409.606 726.425 411.374C735.265 414.783 744.373 418.243 753.2 421.576C771.136 428.355 788.957 435.021 806.803 441.902C824.662 448.784 842.661 455.246 860.329 462.305C864.005 463.768 910.828 481.869 914.084 482.505C912.1 480.991 894.063 473.346 890.119 471.642C858.281 457.879 825.718 442.742 793.739 428.775C780.205 422.86 758.149 413.447 745.594 407.329C737.924 403.577 729.643 400.448 721.807 396.721C717.953 394.876 713.666 393.032 709.621 391.289C697.016 385.883 694.675 382.881 682.044 383.937L480.215 401.198C478.955 401.313 477.734 401.402 476.399 401.478C473.969 401.631 473.906 401.274 473.524 402.966C474.109 404.098 473.638 403.666 474.974 403.971L526.274 402.419C543.306 401.427 561.585 401.465 578.795 400.829L658.207 398.45C666.717 398.26 676.18 397.407 684.665 397.675L684.537 409.848L683.024 575.501L682.897 592.966L682.375 640.437C678.75 640.641 677.389 639.852 673.751 641.086C671.258 641.926 668.243 641.811 665.585 642.155C650.231 644.088 630.095 644.889 616.192 648.54C610.023 650.168 608.319 651.593 606.156 656.834C605.075 659.441 604.083 660.446 602.938 662.698C600.318 667.811 596.158 675.761 590.434 677.542C587.903 678.318 576.964 679.959 574.394 679.666C573.822 676.969 574.165 671.449 573.936 668.282L573.364 645.157C573.44 638.682 573.987 639.814 571.151 635.629C569.866 636.291 570.705 635.438 570.069 636.723C571.138 638.25 570.489 664.86 570.4 669.108C570.133 682.541 572.028 681.612 566.762 681.867C561.483 682.134 556.306 682.655 551.027 682.783C539.732 683.037 528.309 682.617 517.001 682.248L417.53 679.463C406.54 679.208 395.346 678.712 384.369 678.47C373.798 678.242 361.333 677.084 350.966 677.555C352.212 690.097 339.62 679.437 341.757 692.437C348.091 694.701 359.412 695.274 366.866 696.393C367.324 699.255 366.255 704.687 367.884 706.734C368.66 707.523 372.527 707.231 373.697 707.269L461.262 710.741L507.601 712.522C508.708 712.573 509.827 712.649 510.921 712.7C515.462 712.904 513.579 711.81 514.165 703.605C516.327 702.957 548.649 703.122 556.103 702.461C560.402 702.066 564.651 701.278 568.937 700.858L568.823 718.284C558.71 720.078 552.516 720.994 541.576 720.587C531.935 720.23 522.255 720.116 512.689 719.811C493.94 719.2 474.885 717.648 456.148 717.139C437.59 716.631 418.026 715.524 399.493 714.417C392.79 714.01 345.751 712.789 344.148 711.568L342.253 711.861C339.861 715.384 340.701 726.896 341.184 731.844C341.375 733.739 341.617 735.596 342.036 737.275C342.533 739.26 343.27 741.015 344.453 742.351C345.636 743.686 347.252 744.628 349.503 744.946C362.91 746.892 377.169 746.917 390.678 748.355C396.097 761.482 403.716 763.072 405.319 765.018C398.018 767.435 386.976 770.716 373.226 773.324C357.479 776.313 347.264 776.695 347.214 778.323C347.175 779.557 352.912 781.49 380.235 784.48C385.908 785.039 391.556 785.586 397.229 786.146C478.345 792.608 594.441 791.59 726.259 754.664C793.765 735.736 851.349 711.339 898.375 687.336C899.443 686.828 900.245 686.446 900.792 686.191C901.339 685.937 901.631 685.785 901.631 685.785C902.382 682.808 900.423 681.867 898.693 680.658C898.82 679.234 899.443 678.076 900.092 677.097C903.259 676.715 905.066 678.063 905.511 674.985C906.643 667.175 905.231 636.113 903.399 628.455C901.975 622.54 900.626 625.288 913.741 623.736H913.728ZM512.804 699.955C511.341 701.01 443.047 697.627 434.893 697.474L367.26 694.739C365.874 694.218 363.953 690.58 367.006 688.341C367.973 687.642 367.095 687.769 368.99 687.629L405.573 689.321C418.344 689.842 431.37 690.275 444.191 690.923L512.524 693.2C514.89 693.874 513.478 699.484 512.804 699.967V699.955ZM368.431 737.886C367.044 738.751 349.109 737.543 347.799 736.817C346.488 736.092 347.735 723.372 347.735 723.372L373.213 724.479C373.213 724.479 369.83 736.996 368.431 737.873V737.886ZM457.382 757.691C457.484 756.457 459.163 754.511 459.761 752.45L461.605 752.4H462.025L482.263 753.163C480.075 754.486 461.3 757.462 457.382 757.691ZM538.88 744.488C536.997 745.086 511.862 744.628 509.98 743.635C508.11 742.631 504.294 729.834 504.294 729.834L539.948 731.093C539.948 731.093 540.775 743.89 538.88 744.488ZM659.186 691.063C661.056 690.046 673.433 687.451 676.371 687.336L676.447 690.834C671.805 691.636 663.079 694.498 658.919 694.6L659.186 691.063ZM572.206 709.711C573.669 709.037 591.999 705.144 594.11 705.068L593.92 709.444L572.041 713.323L572.206 709.711ZM592.19 747.63C582.993 749.461 575.336 754.715 567.971 752.629C567.882 752.59 567.691 752.629 567.614 752.489C567.551 752.349 567.373 752.412 567.258 752.349C569.052 749.22 570.222 748.736 572.283 748.393C578.197 747.401 586.923 743.61 592.19 742.758V747.642V747.63ZM613.585 663.97C604.897 674.387 601.857 704.318 600.598 718.679C599.631 729.682 601.653 731.933 593.144 732.365C592.851 727.621 596.044 712.649 597.023 707.065C598.69 697.678 604.681 668.752 611.588 663.283C616.956 659.021 626.139 655.231 633.097 656.528L634.153 656.884C634.204 656.783 634.369 656.986 634.471 657.05C632.907 657.699 629.777 657.317 627.679 657.546C623.239 658.029 615.531 661.667 613.598 663.982L613.585 663.97ZM623.634 754.816C612.987 745.938 612.644 712.013 622.731 701.214C630.63 692.742 638.911 706.951 639.368 714.697C638.224 713.26 633.861 701.125 627.03 709.825C623.659 714.125 622.451 721.922 622.514 728.486C622.705 746.065 633.11 757.742 639.572 739.234C639.712 743.483 633.059 762.703 623.621 754.829L623.634 754.816ZM672.097 724.123L655.663 728.664C655.205 728.397 654.187 724.733 656.973 723.894C660.255 722.902 672.11 719.645 674.323 719.505C674.476 722.825 675.468 723.194 672.084 724.123H672.097ZM705.755 718.551L674.921 726.234C677.02 720.205 676.994 722.482 677.567 714.379C677.898 709.698 677.77 704.865 677.783 700.145C677.783 695.248 678.801 683.202 677.694 680.251C676.867 678.025 675.735 678.152 674.247 676.601L681.446 674.107C688.023 672.11 697.563 669.426 704.152 668.243C719.683 665.483 716.656 680.633 716.643 692.106C716.618 709.266 719.352 715.181 705.742 718.551H705.755ZM739.768 721.502C733.802 725.064 730.711 710.589 730.253 705.513C730.94 707.345 731.932 708.49 733.039 708.49C735.151 708.49 736.881 704.279 736.893 699.077C736.893 693.963 735.265 689.817 733.204 689.651C733.128 689.613 733.039 689.588 732.95 689.55C732.874 689.588 732.81 689.639 732.747 689.677C731.793 689.88 730.94 690.949 730.317 692.552C730.648 687.514 734.006 671.932 740.201 676.728C748.494 683.151 747.604 716.834 739.781 721.502H739.768ZM774.914 711.237C769.457 715.842 765.552 701.341 765.399 696.24C766.073 697.932 767.027 698.975 768.058 698.975C770.144 698.975 771.835 694.816 771.848 689.702C771.848 684.576 770.169 680.404 768.083 680.404C767.103 680.404 766.213 681.32 765.539 682.808C765.641 678.47 769.355 664.542 774.875 668.803C782.431 674.616 782.317 704.954 774.901 711.237H774.914ZM787.099 691.305C786.12 686.026 785.993 673.128 784.314 663.486C783.589 659.327 782.686 654.976 780.447 651.784C777.839 648.069 774.1 647.383 770.245 651.033C765.45 655.574 762.664 664.771 760.769 672.467C757.729 684.729 758.25 691.33 756.622 699.026C755.554 696.889 754.994 688.914 754.523 685.81C746.79 634.739 727.582 653.755 722.125 682.986C721.693 685.327 720.497 694.447 719.887 695.668C718.233 680.544 724.936 657.686 734.591 652.242C743.52 647.205 749.092 656.706 751.56 662.672C755.096 671.207 754.714 678.076 755.961 687.311C757.245 684.843 757.271 677.427 757.843 674.171C758.568 670.062 759.535 666.056 760.731 662.265C762.83 655.651 767.333 645.932 774.672 645.742C792.06 645.296 787.43 690.465 787.099 691.305ZM789.987 684.385L789.961 681.243C791.475 681.04 793.727 681.46 794.833 680.862C796.512 679.526 794.439 678.585 792.849 678.165C793.383 675.71 794.235 676.461 794.312 672.797L794.363 653.679C794.401 650.346 793.51 650.944 793.46 648.031C793.421 646.009 793.498 643.948 793.498 641.913C793.498 639.394 792.976 637.804 794.388 636.38C796.334 634.421 794.884 635.07 795.609 631.457C798.993 631.025 797.301 631.419 798.929 632.78L806.116 633.047C806.866 636.978 806.281 662.799 806.269 670.368C806.269 672.085 806.434 674.858 806.218 676.461C805.912 678.827 805.302 678.305 805.34 681.638C807.452 682.058 811.09 680.035 810.962 682.083C810.733 685.759 791.615 684.614 789.974 684.398L789.987 684.385ZM856.78 674.947C851.349 676.143 821.164 683.673 818.391 683.393C817.869 681.905 817.857 674.336 818.391 672.708L856.602 665.725C857.162 667.62 856.996 672.835 856.793 674.96L856.78 674.947ZM856.755 651.008C850.992 652.432 843.589 653.755 837.509 654.926C834.024 655.6 820.706 659.25 818.264 658.347C818.035 656.159 818.2 653.883 818.162 651.669C818.124 648.642 817.577 648.298 820.795 647.828C829.267 646.607 851.31 642.994 856.984 642.816L856.755 651.008ZM860.749 648.616C860.087 654.926 860.1 662.367 859.133 668.383C855.432 661.807 859.35 636.291 862.848 630.02C863.127 631.063 861.003 645.983 860.749 648.629V648.616ZM868.139 680.671C865.074 679.501 864.45 674.947 863.751 671.271C864.094 671.691 864.476 671.92 864.883 671.92C866.346 671.92 867.541 668.905 867.541 665.191C867.541 661.464 866.371 658.449 864.908 658.449C864.539 658.449 864.183 658.64 863.865 658.983C864.323 655.091 865.481 650.486 868.597 649.888C873.965 653.501 874.69 677.389 868.126 680.684L868.139 680.671ZM883.454 676.244C880.796 674.96 879.422 670.228 879.447 666.806C879.803 667.239 880.198 667.48 880.605 667.48C882.068 667.48 883.263 664.58 883.263 660.993C883.263 657.406 882.093 654.493 880.63 654.493C880.198 654.493 879.778 654.76 879.409 655.218C879.854 646.149 885.464 639.598 887.435 654.62C888.186 660.344 888.364 673.955 883.454 676.257V676.244ZM897.484 672.632C894.686 671.487 893.694 667.01 893.439 663.384C893.745 663.69 894.075 663.855 894.432 663.855C894.788 663.855 895.131 663.677 895.449 663.359H895.487V663.295C896.429 662.278 897.077 660.001 897.077 657.355C897.077 654.595 896.39 652.229 895.386 651.288C895.36 651.224 895.335 651.173 895.296 651.11H895.195C894.953 650.944 894.699 650.842 894.444 650.842C894.088 650.842 893.757 651.02 893.452 651.326C893.605 647.79 895.818 638.885 898.985 643.109C902.458 647.739 903.145 669.732 897.484 672.606V672.632Z" fill="#0C213F"/>
<path fill-rule="evenodd" clip-rule="evenodd" d="M642.944 516.429C642.715 512.105 643.287 505.134 640.196 503.137C637.372 501.331 563.583 492.834 551.029 492.198C540.306 491.651 528.59 491.714 517.766 491.931C510.909 492.325 502.667 492.172 495.658 492.223C479.224 492.338 345.765 496.357 343.03 497.426C342.495 498.99 342.356 504.892 342.623 506.699L351.501 508.276C351.387 511.545 350.178 516.111 349.581 519.584C348.983 523.12 348.448 526.974 348.245 530.829C346.172 531.566 338.883 530.332 337.204 536.502C336.479 539.148 337 564.27 337.204 568.556C337.509 574.497 340.206 575.184 345.485 576.468C345.892 580.819 344.556 581.264 344.493 584.431C347.253 585.054 358.612 585.996 359.922 586.721C361.385 590.626 359.96 604.478 361.385 609.935C365.175 610.495 394.711 610.711 400.626 610.711C426.55 610.711 453.402 611.563 479.275 611.601C491.893 611.601 505.821 612.606 518.287 612.059C519.763 606.818 518.821 594.251 520.551 589.837C522.103 585.919 528.59 586.784 535.854 586.225C538.83 585.996 541.234 586.301 540.738 585.118L508.035 585.347C507.119 583.324 506.89 583.668 504.384 582.917L471.108 574.293L512.487 508.136C524.991 508.098 537.647 508.072 549.159 507.704C556.18 507.487 559.755 503.379 565.033 504.587C565.797 507.322 565.504 519.902 565.44 523.756C565.326 529.976 564.423 535.866 564.308 542.429C564.194 550.774 563.329 574.09 563.787 580.691C566.051 580.475 569.485 578.885 571.495 579.101C574.408 579.432 573.2 581.811 577.474 581.849C589.214 581.951 586.25 581.073 588.464 577.282C590.461 573.848 598.436 576.812 605.661 575.438C612.301 574.179 610.851 568.34 613.217 566.826C613.904 566.394 631.407 560.441 636.927 557.426C645.577 552.707 643.478 526.351 642.918 516.442L642.944 516.429ZM345.879 567.437C344.734 565.465 344.849 555.137 344.874 552.173C344.874 548.408 344.836 540.152 346.82 537.545C347.227 540.267 346.54 566.178 345.879 567.424V567.437ZM366.524 560.734C366.562 558.635 366.486 553.229 366.664 548.586V548.56C366.664 548.382 366.689 548.204 366.689 548.039V548.001C366.727 547.059 366.791 546.156 366.854 545.342L367.452 535.255C367.414 533.513 367.567 531.35 367.796 529.607L368.673 521.785C368.635 519.597 368.953 516.722 369.513 514.203C369.996 512.066 370.658 510.184 371.459 509.166C377.921 500.911 405.231 506.431 406.554 507.436C409.06 509.383 408.398 513.008 407.915 516.061C407.419 519.152 407.457 521.339 407.419 522.879C407.419 523.108 407.419 523.311 407.393 523.502L406.961 537.837V537.952L406.706 545.775C407.114 550.672 406.986 561.064 406.567 563.138C404.404 564.41 393.49 566.852 390.145 567.717L369.411 573.136C367.071 573.53 366.905 573.021 366.702 570.91C366.422 567.971 366.473 563.723 366.524 560.721V560.734ZM362.962 606.488C361.792 605.483 362.326 592.368 362.428 591.135L380.897 590.982C379.625 592.038 378.328 591.682 377.285 592.839C378.621 593.729 378.811 593.119 380.312 594.429C381.063 595.09 381.94 596.121 382.398 597.304C383.658 600.509 382.5 602.901 382.424 605.941L385.54 606.895C382.755 607.175 364.158 607.251 362.975 606.5L362.962 606.488ZM516.226 599.174C516.201 610.126 518.745 608.536 490.761 608.497L482.365 608.294L494.424 607.136C494.679 605.178 493.661 603.155 493.737 600.764C493.814 597.94 495.289 596.884 495.34 595.243L478.588 595.205C479.376 594.378 485.495 592.546 487.148 591.999C491.155 590.702 493.445 590.511 498.037 590.524C517.435 590.562 516.252 589.214 516.239 599.199L516.226 599.174ZM501.28 587.191C491.473 587.408 481.399 588.044 471.426 588.26C440.987 588.921 408.793 588.489 378.544 586.988C384.294 585.728 401.682 586.67 408.742 586.67L470.383 586.937C479.834 586.962 492.198 586.186 501.268 587.191H501.28ZM574.319 570.21L569.918 570.299L569.333 568.035C568.875 560.657 570.083 563.71 567.221 561.509L568.404 504.447C570.376 503.786 572.754 504.04 574.751 504.18C574.993 511.405 575.298 567.45 574.319 570.21ZM612.734 555.569C611.36 552.033 612.657 540.636 611.843 535.764C610.686 528.819 603.652 529.544 596.337 529.531C587.764 529.531 583.961 528.997 583.287 537.583L582.765 553.012C582.702 557.083 582.765 556.345 582.294 557.719C582.256 557.795 582.205 557.935 582.155 558.037C581.557 552.847 581.201 541.666 581.773 536.349C582.651 528.285 587.688 527.814 595.93 527.738C603.575 527.649 610.737 527.827 612.797 533.741C613.675 536.298 612.988 551.982 612.759 555.582L612.734 555.569ZM615.15 548.459L614.642 507.996C614.642 502.908 612.161 503.379 609.172 501.471C616.092 501.979 616.143 506.33 616.13 512.868C616.13 518.706 616.55 544.057 615.138 548.459H615.15Z" fill="#0C213F"/>
<path fill-rule="evenodd" clip-rule="evenodd" d="M504.6 458.045L466.364 459.558C463.591 459.635 463.031 459.851 460.652 460.398C459.024 460.767 456.633 460.767 454.903 460.894C450.756 461.199 446.584 461.441 442.501 461.683C435.708 462.064 435.009 461.416 431.956 464.328C433.215 460.665 434.398 460.538 437.082 458.592C438.659 457.447 443.773 444.409 457.078 435.874C459.228 434.5 461.25 433.342 463.756 432.096C477.596 425.24 486.309 426.448 500.606 425.647C535.027 423.713 569.409 422.734 604.186 420.686C611.067 420.279 617.453 419.719 624.144 419.07C634.243 418.078 655.219 414.707 659.912 424.4C662.227 429.183 665.293 453.198 666.12 459.787C668.651 479.872 666.374 472.736 670.903 476.12C661.77 476.234 644.585 472.469 638.428 472.304L638.161 473.131C638.301 479.669 642.486 478.88 653.794 479.783C659.226 480.216 668.626 480.572 673.421 481.551C673.472 481.653 673.51 481.793 673.536 481.882C674.108 484.095 673.637 485.762 673.93 491.867L674.502 507.055C674.884 506.534 674.706 506.89 674.96 506.025C675.062 505.681 675.1 505.338 675.138 504.982C675.202 504.384 675.177 503.468 675.189 502.832L675.711 484.948C675.736 482.963 675.66 482.836 676.423 481.78C677.657 480.076 677.581 475.662 677.403 473.385C676.296 472.558 674.184 471.821 672.849 471.35C671.03 457.396 670.394 443.607 668.002 429.704C665.268 413.779 656.109 410.675 638.212 411.286C631.012 411.489 623.673 412.672 616.092 413.067L502.998 418.918C486.296 419.884 476.832 419.388 462.827 425.888C440.656 436.179 435.53 452.829 433.177 454.839C424.833 461.975 430.442 462.471 423.84 462.929C407.126 464.112 385.031 468.03 371.408 475.344C357.378 482.874 358.116 487.377 354.529 487.479C350.7 487.593 346.35 486.627 344.047 494.335C345.688 493.178 345.892 490.875 348.321 489.412C350.713 487.975 354.274 489.133 357.085 488.802C374.347 465.779 415.661 469.124 441.801 465.588C454.763 463.832 489.145 462.56 502.934 462.217C518.211 461.835 532.534 461.009 547.556 460.449C551.334 460.309 554.832 460.194 558.622 460.22C561.841 460.245 566.623 460.703 569.6 460.309C570.198 452.88 512.588 457.79 504.588 458.032L504.6 458.045Z" fill="#0C213F"/>
<path fill-rule="evenodd" clip-rule="evenodd" d="M630.847 635.769L609.439 639.687C607.658 639.98 603.931 639.827 602.621 641.15C604.593 641.989 633.734 639.776 639.458 639.445C643.783 639.191 647.027 638.797 651.25 638.186C659.086 637.054 657.254 628.608 657.025 618.508C656.936 614.387 656.86 610.418 656.745 606.322C656.542 598.512 652.84 597.329 645.755 599.212C642.969 599.95 630.605 602.722 628.875 604.414C633.645 604.287 648.413 601.183 651.237 602.061C653.412 603.88 652.153 613.496 652.077 616.88C651.975 621.383 652.446 628.939 651.733 633.034C650.131 633.836 633.098 636.075 630.86 635.769H630.847Z" fill="#0C213F"/>
<path fill-rule="evenodd" clip-rule="evenodd" d="M610.698 585.181L581.569 592.597C573.797 594.734 566.725 595.586 563.278 601.921C562.489 603.384 561.013 606.538 561.764 608.026C564.041 606.271 563.252 601.705 569.065 599.326C572.067 598.092 578.732 597.291 582.307 596.578C600.255 592.953 617.262 589.112 634.764 584.202L659.365 576.964C658.869 576.468 659.314 575.895 656.083 576.531C655.053 576.735 654.264 576.926 653.208 577.104C651.11 577.473 649.214 577.727 647.039 578.058C634.116 580.042 621.294 583.528 610.685 585.194L610.698 585.181Z" fill="#0C213F"/>
<path fill-rule="evenodd" clip-rule="evenodd" d="M340.726 671.131C341.502 674.705 346.565 675.214 348.104 672.238C348.994 670.508 348.893 640.857 348.473 638.86C347.71 635.235 342.825 635.171 341.324 637.677C340.078 639.75 340.383 669.566 340.726 671.144V671.131Z" fill="#0C213F"/>
<path fill-rule="evenodd" clip-rule="evenodd" d="M622.616 605.852C615.557 605.432 611.206 612.352 609.909 618.521C607.95 627.82 610.341 626.331 613.992 626.039C615.862 625.886 617.872 625.733 619.729 625.606C622.489 625.415 623.29 625.721 623.29 622.922C623.29 618.89 623.456 609.057 622.629 605.852H622.616Z" fill="#0C213F"/>
<path fill-rule="evenodd" clip-rule="evenodd" d="M529.824 640.59C526.771 641.277 524.125 642.371 523.311 645.016C528.793 641.709 526.199 641.887 535.777 642.027C540.089 642.091 546.296 641.913 550.405 642.574L550.125 677.961C547.912 678.521 526.873 680.556 525.283 680.187C524.176 679.055 523.934 678.356 523.337 676.524L523.019 677.542C523.286 679.157 524.062 680.2 524.647 681.167C528.832 682.045 542.786 680.874 547.708 680.544C552.466 680.226 552.911 678.776 552.923 674.349C552.936 670.558 553.013 666.78 553.013 662.99C553.063 638.02 555.188 639.967 541.297 640.157C537.418 640.208 533.589 640.374 529.824 640.59Z" fill="#0C213F"/>
<path fill-rule="evenodd" clip-rule="evenodd" d="M637.702 457.281C635.845 458.172 631.164 459.024 628.811 459.724C617.897 463.018 619.22 463.349 608.777 462.471C606.856 462.306 605.139 462.153 603.269 461.988C601.31 461.81 599.351 461.224 598.066 462.242C605.584 464.112 611.639 464.023 615.111 467.432C619.754 471.998 618.304 472.227 620.021 473.716C621.624 475.102 626.979 475.471 629.498 474.873L627.475 474.339C618.94 473.029 621.917 472.558 619.398 468.615C618.393 467.038 618.062 467.546 617.604 465.715C623.354 464.824 652.241 456.175 654.658 453.631L637.715 457.281H637.702Z" fill="#0C213F"/>
<path fill-rule="evenodd" clip-rule="evenodd" d="M569.294 452.892C572.436 452.065 574.675 449.394 576.011 446.952C579.509 440.617 582.256 437.322 586.479 431.776C587.586 430.326 591.847 426.167 592.038 424.946C590.537 425.277 586.657 428.762 585.207 430.136C577.13 437.793 573.975 447.511 572.462 449.241C571.139 450.755 570.058 451.175 569.294 452.879V452.892Z" fill="#0C213F"/>
<path fill-rule="evenodd" clip-rule="evenodd" d="M463.985 455.156C465.741 453.121 472.304 440.452 477.24 436.051C478.295 435.109 479.046 434.321 480.064 433.494C481.374 432.425 482.442 432.095 483.142 430.517C472.063 433.71 463.057 451.2 463.985 455.156Z" fill="#0C213F"/>
<path fill-rule="evenodd" clip-rule="evenodd" d="M481.005 477.493C482.531 475.445 484.121 473.766 485.813 472.342C487.568 470.853 489.336 469.492 491.753 468.284C492.771 467.775 494.094 467.228 495.302 466.796C497.833 465.905 497.757 466.236 498.647 464.964C492.313 465.231 487.161 467.979 483.79 470.802C482.251 472.087 480.521 474.377 479.249 476.615C478.333 478.218 476.324 481.869 476.972 483.421L481.017 477.493H481.005Z" fill="#0C213F"/>
<path fill-rule="evenodd" clip-rule="evenodd" d="M545.012 482.161C547.238 480.622 549.26 469.606 563.43 465.828C562.743 465.192 564.181 464.976 561.242 465.231L556.002 466.833C550.227 469.301 544.579 476.348 545.012 482.174V482.161Z" fill="#0C213F"/>
<path fill-rule="evenodd" clip-rule="evenodd" d="M504.473 482.682C506.089 481.957 507.386 479.515 508.302 478.052C509.498 476.131 510.439 474.923 511.698 473.167C514.967 468.652 518.605 466.197 519.305 464.556C514.102 464.467 505.834 475.572 504.473 482.682Z" fill="#0C213F"/>
<path fill-rule="evenodd" clip-rule="evenodd" d="M532.66 482.085C533.932 481.093 534.746 478.575 535.611 476.959C537.137 474.11 540.33 469.887 542.785 467.979C543.943 467.076 546.461 465.778 547.161 464.417C536.959 465.371 531.362 479.223 532.647 482.085H532.66Z" fill="#0C213F"/>
<path fill-rule="evenodd" clip-rule="evenodd" d="M517.536 481.997C519.368 480.953 520.246 476.998 524.214 472.138C525.995 469.963 528.59 468.081 531.337 466.758C532.927 465.995 532.864 466.325 533.513 465.155C525.308 465.092 518.579 473.092 517.536 481.997Z" fill="#0C213F"/>
<path fill-rule="evenodd" clip-rule="evenodd" d="M424.285 483.357C426.028 483.039 425.455 483.013 427.885 479.452C428.724 478.218 429.933 476.552 430.874 475.394C435.097 470.204 437.4 470.675 438.392 468.525C431.574 468.767 425.646 477.035 424.285 483.357Z" fill="#0C213F"/>
<path fill-rule="evenodd" clip-rule="evenodd" d="M400.524 485.634C401.949 484.947 402.801 482.772 403.691 481.462C408.792 473.906 412.646 472.456 414.274 470.675C411.158 469.301 401.427 476.564 400.537 485.634H400.524Z" fill="#0C213F"/>
<path fill-rule="evenodd" clip-rule="evenodd" d="M699.255 455.705L911.451 509.282L693.811 466.288L699.255 455.705Z" fill="#0C213F"/>
<path fill-rule="evenodd" clip-rule="evenodd" d="M698.976 608.28L914.428 600.674L689.168 595.866L698.976 608.28Z" fill="#0C213F"/>
<path fill-rule="evenodd" clip-rule="evenodd" d="M699.19 487.899L882.754 518.631L694.166 499.08L699.19 487.899Z" fill="#0C213F"/>
<path fill-rule="evenodd" clip-rule="evenodd" d="M513.452 620.289C512.804 618.94 511.506 618.126 509.942 618.101L369.703 616.168C367.693 616.129 366.014 617.541 365.76 619.437C365.327 622.655 365.912 626.166 366.09 629.396C366.128 630.274 366.09 631.101 366.205 631.89L366.574 637.868C366.548 638.071 366.548 638.3 366.574 638.517L367.184 649.838C367.21 650.219 367.273 650.588 367.4 650.906L367.896 658.869L368.176 668.409C368.227 670.19 369.537 671.653 371.369 671.983C372.081 672.11 372.959 672.136 373.684 672.174C375.058 672.238 376.419 672.289 377.793 672.352C382.372 672.53 386.951 672.67 391.53 672.81C405.026 673.243 418.522 673.624 432.031 673.993C451.722 674.54 471.425 675.011 491.103 675.621C493.774 675.71 496.458 675.863 499.142 675.965C500.923 676.028 502.729 676.079 504.51 676.092C505.833 676.092 507.449 676.092 508.746 675.825C510.094 675.545 511.125 674.705 511.608 673.471C511.926 672.645 512.206 671.22 512.435 669.554C512.651 667.887 512.804 665.979 512.867 664.199L513.669 651.44C513.707 651.084 513.72 650.741 513.732 650.385L514.19 634.446V634.345C514.241 630.834 514.903 623.227 513.478 620.289H513.452ZM507.894 672.161C505.541 672.645 494.589 671.97 491.205 671.881C479.744 671.525 374.753 668.803 372.081 668.307L371.725 656.261L508.733 659.632C509.331 661.68 508.568 670.393 507.881 672.161H507.894ZM509.318 652.814C508.619 653.565 475.954 652.445 475.076 652.42C463.513 652.14 451.976 651.949 440.452 651.682C428.889 651.402 417.289 651.326 405.662 650.932C404.034 650.881 373.035 650.499 371.865 650.079C371.153 649.825 371.547 649.99 371.077 649.634L370.466 638.313L509.713 641.213C508.797 644.139 510.552 650.283 509.306 652.827L509.318 652.814ZM510.234 634.294C497.858 634.675 484.489 633.848 472.036 633.798C459.227 633.747 446.29 633.543 433.57 633.212C420.736 632.869 407.939 632.983 395.105 632.665C388.77 632.513 382.601 632.513 376.254 632.386C369.156 632.246 370.212 632.907 370.021 629.206C369.868 626.471 369.321 622.502 369.665 619.92L509.904 621.853C510.807 623.723 510.285 631.737 510.26 634.281L510.234 634.294Z" fill="#0C213F"/>
<path fill-rule="evenodd" clip-rule="evenodd" d="M348.601 640.437L348.118 591.859L345.319 640.45L348.601 640.437Z" fill="#0C213F"/>
<path d="M388.669 764.739L384.001 759.409C374.016 757.552 360.711 754.893 345.141 751.217C325.476 746.587 293.231 738.23 252.819 723.742C252.017 723.462 251.102 723.119 249.842 722.661C216.478 710.526 189.956 697.857 169.604 686.816C161.768 682.643 155.497 678.636 150.982 675.558C138.224 666.845 129.523 658.717 123.303 652.013C115.34 643.44 113.178 639.077 111.918 635.363C111.053 632.793 109.069 626.688 110.532 619.259C112.186 610.877 117.261 605.623 121.039 601.833C128.671 594.15 136.773 590.982 149.621 585.945C157.545 582.841 165.839 580.45 168.383 579.725C172.263 578.618 175.557 577.779 177.987 577.194C176.04 577.537 148.972 582.434 131.66 589.163C128.187 590.512 122.082 592.916 114.806 597.431C111.473 599.505 109.4 600.79 106.881 602.99C104.057 605.458 96.3999 612.339 94.0467 623.419C93.8178 624.5 92.9019 629.092 93.7669 635.515C96.0183 652.077 107.835 663.512 117.146 672.518C124.422 679.565 131.876 684.908 137.333 688.813C142.218 692.311 146.428 695.045 149.43 696.915C158.55 702.296 166.246 706.43 171.69 709.266C194.853 721.325 215.282 729.555 227.569 734.465C256.33 745.519 297.683 759.384 350.763 770.832C363.407 768.796 376.038 766.761 388.682 764.726L388.669 764.739Z" fill="#E2A827"/>
<path d="M341.414 683.215C340.447 682.986 337.331 682.147 335.054 679.183C333.553 677.237 333.082 675.227 332.93 674.171V665.56C312.654 660.484 295.978 655.625 283.856 651.898C274.481 649.024 266.48 646.149 250.465 640.387C250.465 640.387 229.223 632.729 212.572 619.729C210.346 617.987 206.975 615.023 205.411 610.24C205.105 609.286 204.444 607.009 204.597 604.643C204.711 603.002 205.462 597.24 216.681 590.053C223.104 585.932 229.821 583.35 246.573 579.559C259.382 576.659 268.388 575.196 268.388 575.196C279.607 573.39 295.024 571.266 313.951 569.778C294.032 571.215 273.641 572.767 252.793 574.446C236.46 575.756 225.369 576.71 210.295 579.19C207.535 579.636 193.454 582.002 175.315 586.95C158.13 591.643 152.228 594.569 148.552 596.617C141.314 600.662 130.146 607.098 127.538 618.712C127.538 618.712 126.979 621.205 126.991 623.863C127.106 644.61 165.126 669.134 165.126 669.134C188.442 684.182 207.586 691.801 234.858 702.499C242.464 705.475 268.223 715.435 303.419 725.649C315.872 729.262 326.455 732.022 334.253 733.968C334.036 719.544 333.82 705.107 333.578 690.669C333.744 689.868 334.316 687.54 336.415 685.594C338.387 683.75 340.574 683.304 341.401 683.177L341.414 683.215ZM195.286 586.797C196.112 587.395 196.926 587.993 197.741 588.591C193.657 590.015 189.549 591.44 185.466 592.877C184.512 592.19 183.545 591.491 182.591 590.791C186.827 589.456 191.05 588.133 195.286 586.784V586.797ZM176.803 592.203L182.591 594.785L170.481 605.814L163.524 603.473L176.816 592.19L176.803 592.203ZM160.127 625.135C159.555 623.227 159.008 621.052 158.614 618.597C158.092 615.341 157.939 612.39 157.965 609.897H167.518C167.429 611.741 167.492 614.323 168.243 617.313C169.006 620.442 170.227 622.859 171.219 624.487L160.14 625.148L160.127 625.135ZM185.504 647.904L167.518 633.022L178.393 631.127L199.712 646.671L185.504 647.904ZM199.458 585.245L221.616 579.356L223.054 581.187L201.849 587.344L199.458 585.245ZM234.196 672.556L202.154 656.465L216.477 652.916L249.346 667.9L234.209 672.556H234.196ZM302.351 695.109C287.341 690.199 272.318 685.276 257.309 680.366C262.74 678.598 268.146 676.843 273.578 675.087L316.877 689.295C312.031 691.242 307.197 693.162 302.351 695.109Z" fill="#0C213F"/>
<path d="M245.709 457.051C244.92 456.186 230.152 440.528 207.816 442.449C195.235 443.53 186.827 449.635 185.085 450.946C177.86 456.377 173.522 463.335 170.902 469.987C166.488 481.219 166.424 493.672 169.973 505.209C170.419 506.672 170.927 508.186 171.512 509.75C173.191 514.241 174.845 517.472 184.767 534.059C191.419 545.163 194.739 550.722 197.907 555.657C203.262 563.963 208.235 571.188 212.56 577.218C218.984 567.741 224.364 559.346 228.664 552.439C236.08 540.495 233.485 543.904 243.724 527.012C248.291 519.481 250.619 515.831 252.959 509.75C255.503 503.123 256.648 497.298 257.208 493.291C257.538 490.543 259.395 472.086 245.709 457.064V457.051ZM212.255 512.333C199.153 512.333 188.545 501.724 188.545 488.622C188.545 475.521 199.153 464.912 212.255 464.912C225.357 464.912 235.965 475.521 235.965 488.622C235.965 501.724 225.344 512.333 212.255 512.333Z" fill="#E2A827"/>
<path d="M234.832 209.544L231.741 222.391H65.5527L153.741 379.713L140.054 381.596L43 209.544H234.832Z" fill="#E2A827"/>
<path d="M890.958 209.43L886.303 223.066H957.93L851.628 415.941L862.262 422.148L981.258 209.43H890.958Z" fill="#E2A827"/>
<path d="M394.341 867.516C430.861 913.678 467.393 959.839 503.912 1006C540.431 959.966 576.964 913.919 613.483 867.885L598.855 867.529C567.207 906.987 535.56 946.432 503.912 985.889C472.43 946.432 440.948 906.987 409.466 867.529H394.341V867.516Z" fill="#E2A827"/>
</svg>
