<svg width="204" height="216" viewBox="0 0 204 216" fill="none" xmlns="http://www.w3.org/2000/svg">
<path d="M74.3982 23.1445H62.7691L58.2266 60H49.5048L53.9868 23.1445H42.3275L43.1755 16.0581H75.3067L74.3982 23.1445ZM70.0098 55.6088C70.0098 54.9426 70.131 54.3167 70.3732 53.7312C70.6357 53.1256 70.9789 52.6107 71.4029 52.1868C71.8471 51.7426 72.372 51.3994 72.9777 51.1571C73.5833 50.8946 74.2395 50.7634 74.9461 50.7634C75.6325 50.7634 76.2685 50.8946 76.854 51.1571C77.4597 51.3994 77.9846 51.7426 78.4288 52.1868C78.8729 52.6107 79.2161 53.1256 79.4584 53.7312C79.7209 54.3167 79.8521 54.9426 79.8521 55.6088C79.8521 56.2953 79.7209 56.9312 79.4584 57.5167C79.2161 58.1022 78.8729 58.617 78.4288 59.0612C77.9846 59.4852 77.4597 59.8183 76.854 60.0606C76.2685 60.3028 75.6325 60.424 74.9461 60.424C74.2395 60.424 73.5833 60.3028 72.9777 60.0606C72.372 59.8183 71.8471 59.4852 71.4029 59.0612C70.9789 58.617 70.6357 58.1022 70.3732 57.5167C70.131 56.9312 70.0098 56.2953 70.0098 55.6088ZM109.485 43.3741L106.881 29.4738C106.74 28.747 106.578 27.889 106.396 26.8997C106.215 25.9104 106.043 24.8404 105.882 23.6896C105.437 24.8404 105.003 25.9104 104.579 26.8997C104.155 27.889 103.782 28.7571 103.459 29.5041L97.4929 43.3741H109.485ZM121.659 60H114.876C114.109 60 113.513 59.8183 113.089 59.4549C112.665 59.0915 112.372 58.617 112.211 58.0315L110.606 49.4612H94.8885L91.1939 58.0315C90.9314 58.5565 90.5276 59.0208 89.9825 59.4246C89.4374 59.8082 88.8116 60 88.1049 60H81.2002L102.338 16.0581H111.302L121.659 60ZM124.308 55.6088C124.308 54.9426 124.429 54.3167 124.671 53.7312C124.934 53.1256 125.277 52.6107 125.701 52.1868C126.145 51.7426 126.67 51.3994 127.276 51.1571C127.881 50.8946 128.538 50.7634 129.244 50.7634C129.931 50.7634 130.567 50.8946 131.152 51.1571C131.758 51.3994 132.283 51.7426 132.727 52.1868C133.171 52.6107 133.514 53.1256 133.756 53.7312C134.019 54.3167 134.15 54.9426 134.15 55.6088C134.15 56.2953 134.019 56.9312 133.756 57.5167C133.514 58.1022 133.171 58.617 132.727 59.0612C132.283 59.4852 131.758 59.8183 131.152 60.0606C130.567 60.3028 129.931 60.424 129.244 60.424C128.538 60.424 127.881 60.3028 127.276 60.0606C126.67 59.8183 126.145 59.4852 125.701 59.0612C125.277 58.617 124.934 58.1022 124.671 57.5167C124.429 56.9312 124.308 56.2953 124.308 55.6088ZM160.708 37.7716H174.851L172.61 55.7603C171.479 56.588 170.318 57.2946 169.127 57.8801C167.936 58.4656 166.674 58.9603 165.342 59.364C164.029 59.7476 162.646 60.0303 161.193 60.212C159.739 60.3937 158.185 60.4845 156.529 60.4845C153.824 60.4845 151.361 60 149.14 59.0309C146.939 58.0416 145.051 56.6789 143.477 54.9426C141.902 53.1861 140.68 51.1167 139.812 48.7344C138.944 46.3521 138.51 43.7577 138.51 40.9514C138.51 38.4883 138.783 36.1565 139.328 33.9559C139.873 31.735 140.65 29.6858 141.66 27.8082C142.689 25.9306 143.911 24.2448 145.324 22.7508C146.757 21.2366 148.342 19.9546 150.079 18.9048C151.835 17.8347 153.733 17.0171 155.772 16.4518C157.811 15.8663 159.941 15.5735 162.162 15.5735C163.979 15.5735 165.624 15.7451 167.098 16.0884C168.592 16.4114 169.935 16.8555 171.126 17.4208C172.317 17.966 173.377 18.612 174.306 19.359C175.255 20.0858 176.092 20.853 176.819 21.6606L173.973 25.2341C173.508 25.8801 172.953 26.2738 172.307 26.4152C171.661 26.5565 170.995 26.4051 170.308 25.9609C169.662 25.5369 169.036 25.1432 168.431 24.7798C167.845 24.3962 167.209 24.0732 166.523 23.8107C165.856 23.5483 165.12 23.3464 164.312 23.2051C163.504 23.0436 162.576 22.9628 161.526 22.9628C159.467 22.9628 157.569 23.3868 155.832 24.2347C154.116 25.0827 152.632 26.2839 151.381 27.8385C150.149 29.3729 149.19 31.2303 148.504 33.4107C147.817 35.5912 147.474 38.0038 147.474 40.6486C147.474 42.6675 147.726 44.4846 148.231 46.0997C148.756 47.6946 149.473 49.0473 150.381 50.1577C151.31 51.2681 152.42 52.1262 153.713 52.7319C155.025 53.3174 156.468 53.6101 158.043 53.6101C159.497 53.6101 160.779 53.4789 161.889 53.2164C163.02 52.9338 164.1 52.5502 165.13 52.0656L166.068 44.2221H161.708C161.162 44.2221 160.749 44.0808 160.466 43.7981C160.183 43.5155 160.072 43.142 160.133 42.6776L160.708 37.7716Z" fill="#0C213F"/>
<path d="M34.615 66.8322H32.9763L32.3458 71.9473H31.2754L31.8977 66.8322H30.2508L30.3586 65.9486H34.727L34.615 66.8322ZM36.8231 68.8152C37.0389 68.8152 37.2242 68.7847 37.379 68.7239C37.5367 68.6603 37.6667 68.5746 37.769 68.4667C37.8713 68.3561 37.9474 68.2275 37.9972 68.0809C38.0469 67.9343 38.0718 67.7767 38.0718 67.608C38.0718 67.348 37.9902 67.1447 37.8271 66.9981C37.6667 66.8516 37.4191 66.7783 37.0845 66.7783H36.4539L36.205 68.8152H36.8231ZM37.184 65.9486C37.5298 65.9486 37.8257 65.9859 38.0718 66.0606C38.3207 66.1325 38.524 66.2348 38.6816 66.3676C38.8393 66.4975 38.9554 66.6538 39.0301 66.8363C39.1048 67.0189 39.1421 67.2194 39.1421 67.4379C39.1421 67.6674 39.1089 67.8845 39.0426 68.0892C38.979 68.2938 38.8863 68.4791 38.7646 68.6451C38.6429 68.811 38.4936 68.9562 38.3166 69.0807C38.1396 69.2051 37.9391 69.3019 37.7151 69.3711C37.7787 69.4098 37.8354 69.4568 37.8851 69.5121C37.9377 69.5674 37.9833 69.6338 38.022 69.7112L39.0923 71.9473H38.1258C37.9405 71.9473 37.8174 71.8754 37.7565 71.7315L36.8771 69.7859C36.8439 69.714 36.8024 69.6628 36.7526 69.6324C36.7056 69.5992 36.6309 69.5826 36.5286 69.5826H36.1096L35.8192 71.9473H34.7489L35.479 65.9486H37.184ZM42.011 71.0844C42.2046 71.0844 42.3816 71.0484 42.542 70.9765C42.7052 70.9018 42.8476 70.7981 42.9693 70.6654C43.091 70.5299 43.1905 70.3681 43.268 70.18C43.3482 69.9919 43.4021 69.7831 43.4298 69.5536L43.8695 65.9486H44.9481L44.5042 69.5536C44.46 69.9076 44.366 70.2353 44.2221 70.5368C44.0783 70.8382 43.893 71.0982 43.6662 71.3167C43.4422 71.5352 43.1795 71.7067 42.878 71.8311C42.5793 71.9528 42.2516 72.0136 41.8948 72.0136C41.5381 72.0136 41.2242 71.9528 40.9531 71.8311C40.6849 71.7067 40.465 71.5352 40.2935 71.3167C40.1221 71.0982 40.0018 70.8382 39.9326 70.5368C39.8635 70.2353 39.851 69.9076 39.8953 69.5536L40.3267 65.9486H41.4053L40.9656 69.5494C40.9379 69.779 40.9393 69.9892 40.9697 70.18C41.0029 70.3681 41.0638 70.5299 41.1523 70.6654C41.2435 70.7981 41.3597 70.9018 41.5007 70.9765C41.6445 71.0484 41.8146 71.0844 42.011 71.0844ZM47.9259 71.101C48.0947 71.101 48.2412 71.0885 48.3657 71.0636C48.4901 71.036 48.5994 71.0014 48.6934 70.9599C48.7875 70.9184 48.8663 70.8756 48.9299 70.8313C48.9963 70.7843 49.0543 70.7401 49.1041 70.6986C49.1539 70.6571 49.1981 70.6239 49.2369 70.599C49.2756 70.5714 49.3143 70.5575 49.353 70.5575C49.389 70.5575 49.418 70.5644 49.4401 70.5783C49.4623 70.5921 49.4802 70.6059 49.4941 70.6198L49.8716 71.0885C49.6116 71.3872 49.306 71.6168 48.9548 71.7772C48.6035 71.9348 48.1997 72.0136 47.7434 72.0136C47.3728 72.0136 47.0437 71.9486 46.7561 71.8187C46.4685 71.6859 46.2251 71.5034 46.0259 71.2711C45.8296 71.0387 45.6789 70.7636 45.5738 70.4455C45.4714 70.1275 45.4203 69.7804 45.4203 69.4042C45.4203 69.0585 45.4576 68.7322 45.5323 68.4252C45.607 68.1155 45.7134 67.8306 45.8517 67.5706C45.99 67.3079 46.1545 67.0728 46.3454 66.8654C46.539 66.658 46.7533 66.481 46.9884 66.3344C47.2262 66.1878 47.4807 66.0758 47.7517 65.9983C48.0255 65.9209 48.3104 65.8822 48.6063 65.8822C48.8248 65.8822 49.0239 65.9029 49.2037 65.9444C49.3834 65.9831 49.5452 66.0384 49.6891 66.1104C49.8356 66.1823 49.967 66.2694 50.0832 66.3717C50.2021 66.4713 50.3086 66.5833 50.4026 66.7077L50.0292 67.1558C50.0016 67.189 49.9684 67.218 49.9297 67.2429C49.8937 67.2678 49.8481 67.2802 49.7928 67.2802C49.7319 67.2802 49.6738 67.2553 49.6185 67.2056C49.5632 67.1558 49.4927 67.1018 49.407 67.0438C49.324 66.9829 49.2147 66.9276 49.0792 66.8778C48.9465 66.828 48.7709 66.8032 48.5524 66.8032C48.2647 66.8032 47.9965 66.8626 47.7476 66.9815C47.5014 67.0977 47.2871 67.265 47.1046 67.4835C46.922 67.702 46.7782 67.9661 46.6731 68.2759C46.5708 68.5828 46.5196 68.9286 46.5196 69.313C46.5196 69.5923 46.5542 69.8426 46.6233 70.0639C46.6952 70.2851 46.7934 70.4732 46.9179 70.628C47.0451 70.7802 47.1944 70.8977 47.3659 70.9807C47.5374 71.0609 47.7241 71.101 47.9259 71.101ZM52.0422 68.4833H52.2745C52.3713 68.4833 52.4529 68.4695 52.5193 68.4418C52.5884 68.4114 52.6507 68.363 52.706 68.2966L54.44 66.1809C54.5092 66.0896 54.5838 66.0288 54.6641 65.9983C54.747 65.9652 54.8424 65.9486 54.9503 65.9486H55.8754L53.7514 68.4584C53.6905 68.5358 53.6297 68.6008 53.5689 68.6534C53.508 68.7032 53.4444 68.7433 53.378 68.7737C53.4582 68.8069 53.5288 68.8525 53.5896 68.9106C53.6532 68.9659 53.7085 69.0419 53.7555 69.1387L55.2822 71.9473H54.3322C54.2686 71.9473 54.2146 71.9431 54.1704 71.9348C54.1261 71.9238 54.0874 71.9099 54.0542 71.8933C54.0238 71.874 53.9975 71.8519 53.9754 71.827C53.956 71.7993 53.9381 71.7689 53.9215 71.7357L52.6852 69.4997C52.6493 69.425 52.5995 69.3724 52.5359 69.342C52.475 69.3116 52.3852 69.2964 52.2662 69.2964H51.9426L51.6191 71.9473H50.5488L51.2789 65.9444H52.3575L52.0422 68.4833ZM56.9549 71.9473H55.8721L56.6022 65.9486H57.685L56.9549 71.9473ZM63.6441 65.9486L62.9057 71.9473H62.3498C62.2668 71.9473 62.1976 71.9334 62.1423 71.9058C62.0898 71.8754 62.04 71.827 61.993 71.7606L59.6698 67.6619C59.6643 67.731 59.6588 67.7974 59.6532 67.861C59.6477 67.9219 59.6422 67.9799 59.6367 68.0353L59.1637 71.9473H58.2137L58.9522 65.9486H59.5163C59.5634 65.9486 59.6021 65.9513 59.6325 65.9569C59.6657 65.9596 59.6947 65.9679 59.7196 65.9818C59.7445 65.9928 59.7666 66.0094 59.786 66.0315C59.8054 66.0537 59.8261 66.0841 59.8482 66.1228L62.1838 70.2173C62.1893 70.1344 62.1949 70.0556 62.2004 69.9809C62.2087 69.9034 62.217 69.8329 62.2253 69.7693L62.6941 65.9486H63.6441ZM67.2472 68.9562H69.114L68.8154 71.3665C68.5111 71.5877 68.1834 71.7509 67.8322 71.856C67.4809 71.9611 67.0799 72.0136 66.6291 72.0136C66.2613 72.0136 65.9266 71.9473 65.6252 71.8145C65.3265 71.6818 65.0693 71.4978 64.8536 71.2628C64.6406 71.0249 64.476 70.7442 64.3599 70.4206C64.2437 70.0943 64.1857 69.7389 64.1857 69.3545C64.1857 69.0171 64.223 68.6976 64.2977 68.3962C64.3723 68.0919 64.4774 67.8112 64.6129 67.554C64.7512 67.2968 64.9172 67.0659 65.1108 66.8612C65.3044 66.6538 65.5201 66.4782 65.7579 66.3344C65.9958 66.1878 66.253 66.0758 66.5295 65.9983C66.8089 65.9209 67.1006 65.8822 67.4049 65.8822C67.6482 65.8822 67.8681 65.9043 68.0645 65.9486C68.2636 65.9901 68.4434 66.0481 68.6038 66.1228C68.7642 66.1975 68.908 66.2846 69.0352 66.3842C69.1624 66.4837 69.2758 66.5888 69.3754 66.6994L69.0269 67.1475C68.9716 67.2249 68.9039 67.2733 68.8237 67.2927C68.7434 67.3093 68.6619 67.2899 68.5789 67.2346C68.4987 67.182 68.4185 67.1309 68.3383 67.0811C68.2581 67.0286 68.1696 66.9815 68.0728 66.9401C67.9787 66.8986 67.8709 66.8654 67.7492 66.8405C67.6275 66.8156 67.4851 66.8032 67.3219 66.8032C67.0232 66.8032 66.7494 66.864 66.5005 66.9857C66.2516 67.1046 66.0373 67.2747 65.8575 67.4959C65.6777 67.7144 65.5381 67.9786 65.4385 68.2883C65.3389 68.5953 65.2891 68.9382 65.2891 69.3171C65.2891 69.6048 65.3251 69.862 65.397 70.0887C65.4717 70.3155 65.5754 70.5077 65.7081 70.6654C65.8409 70.823 65.9999 70.9447 66.1852 71.0305C66.3733 71.1134 66.5821 71.1549 66.8116 71.1549C67.0384 71.1549 67.2375 71.1342 67.409 71.0927C67.5805 71.0484 67.745 70.9862 67.9027 70.906L68.0396 69.7652H67.3758C67.3067 69.7652 67.2541 69.7472 67.2182 69.7112C67.185 69.6725 67.1712 69.6255 67.1767 69.5702L67.2472 68.9562ZM74.5872 69.6905L74.1807 67.637C74.1641 67.543 74.1447 67.4337 74.1226 67.3093C74.1005 67.1848 74.0784 67.0493 74.0562 66.9027C74.0009 67.0493 73.947 67.1848 73.8945 67.3093C73.8419 67.4337 73.7949 67.5443 73.7534 67.6411L72.8449 69.6905H74.5872ZM76.1512 71.9473H75.3174C75.2233 71.9473 75.1501 71.9251 75.0975 71.8809C75.0477 71.8339 75.0118 71.7744 74.9897 71.7025L74.7407 70.4497H72.5047L71.9488 71.7025C71.9184 71.7661 71.8686 71.8228 71.7995 71.8726C71.7331 71.9224 71.6557 71.9473 71.5672 71.9473H70.7209L73.6207 65.9486H74.72L76.1512 71.9473ZM79.0801 71.101C79.2488 71.101 79.3953 71.0885 79.5198 71.0636C79.6442 71.036 79.7535 71.0014 79.8475 70.9599C79.9416 70.9184 80.0204 70.8756 80.084 70.8313C80.1504 70.7843 80.2084 70.7401 80.2582 70.6986C80.308 70.6571 80.3523 70.6239 80.391 70.599C80.4297 70.5714 80.4684 70.5575 80.5071 70.5575C80.5431 70.5575 80.5721 70.5644 80.5942 70.5783C80.6164 70.5921 80.6343 70.6059 80.6482 70.6198L81.0257 71.0885C80.7657 71.3872 80.4601 71.6168 80.1089 71.7772C79.7576 71.9348 79.3538 72.0136 78.8975 72.0136C78.5269 72.0136 78.1978 71.9486 77.9102 71.8187C77.6226 71.6859 77.3792 71.5034 77.18 71.2711C76.9837 71.0387 76.833 70.7636 76.7279 70.4455C76.6255 70.1275 76.5744 69.7804 76.5744 69.4042C76.5744 69.0585 76.6117 68.7322 76.6864 68.4252C76.7611 68.1155 76.8675 67.8306 77.0058 67.5706C77.1441 67.3079 77.3086 67.0728 77.4995 66.8654C77.6931 66.658 77.9074 66.481 78.1425 66.3344C78.3803 66.1878 78.6348 66.0758 78.9058 65.9983C79.1796 65.9209 79.4645 65.8822 79.7604 65.8822C79.9789 65.8822 80.178 65.9029 80.3578 65.9444C80.5375 65.9831 80.6993 66.0384 80.8432 66.1104C80.9897 66.1823 81.1211 66.2694 81.2373 66.3717C81.3562 66.4713 81.4627 66.5833 81.5567 66.7077L81.1833 67.1558C81.1557 67.189 81.1225 67.218 81.0838 67.2429C81.0478 67.2678 81.0022 67.2802 80.9469 67.2802C80.886 67.2802 80.8279 67.2553 80.7726 67.2056C80.7173 67.1558 80.6468 67.1018 80.5611 67.0438C80.4781 66.9829 80.3688 66.9276 80.2333 66.8778C80.1006 66.828 79.925 66.8032 79.7065 66.8032C79.4188 66.8032 79.1506 66.8626 78.9017 66.9815C78.6555 67.0977 78.4412 67.265 78.2587 67.4835C78.0761 67.702 77.9323 67.9661 77.8272 68.2759C77.7249 68.5828 77.6737 68.9286 77.6737 69.313C77.6737 69.5923 77.7083 69.8426 77.7774 70.0639C77.8493 70.2851 77.9475 70.4732 78.072 70.628C78.1992 70.7802 78.3485 70.8977 78.52 70.9807C78.6915 71.0609 78.8782 71.101 79.0801 71.101ZM84.0955 71.101C84.2642 71.101 84.4108 71.0885 84.5352 71.0636C84.6597 71.036 84.7689 71.0014 84.863 70.9599C84.957 70.9184 85.0358 70.8756 85.0994 70.8313C85.1658 70.7843 85.2239 70.7401 85.2737 70.6986C85.3234 70.6571 85.3677 70.6239 85.4064 70.599C85.4451 70.5714 85.4839 70.5575 85.5226 70.5575C85.5585 70.5575 85.5876 70.5644 85.6097 70.5783C85.6318 70.5921 85.6498 70.6059 85.6636 70.6198L86.0411 71.0885C85.7812 71.3872 85.4756 71.6168 85.1243 71.7772C84.7731 71.9348 84.3693 72.0136 83.913 72.0136C83.5424 72.0136 83.2133 71.9486 82.9256 71.8187C82.638 71.6859 82.3946 71.5034 82.1955 71.2711C81.9991 71.0387 81.8484 70.7636 81.7433 70.4455C81.641 70.1275 81.5898 69.7804 81.5898 69.4042C81.5898 69.0585 81.6272 68.7322 81.7018 68.4252C81.7765 68.1155 81.883 67.8306 82.0213 67.5706C82.1595 67.3079 82.3241 67.0728 82.5149 66.8654C82.7085 66.658 82.9229 66.481 83.1579 66.3344C83.3958 66.1878 83.6502 66.0758 83.9213 65.9983C84.1951 65.9209 84.4799 65.8822 84.7758 65.8822C84.9943 65.8822 85.1935 65.9029 85.3732 65.9444C85.553 65.9831 85.7148 66.0384 85.8586 66.1104C86.0052 66.1823 86.1365 66.2694 86.2527 66.3717C86.3716 66.4713 86.4781 66.5833 86.5721 66.7077L86.1988 67.1558C86.1711 67.189 86.1379 67.218 86.0992 67.2429C86.0633 67.2678 86.0176 67.2802 85.9623 67.2802C85.9015 67.2802 85.8434 67.2553 85.7881 67.2056C85.7328 67.1558 85.6622 67.1018 85.5765 67.0438C85.4935 66.9829 85.3843 66.9276 85.2488 66.8778C85.116 66.828 84.9404 66.8032 84.7219 66.8032C84.4343 66.8032 84.166 66.8626 83.9171 66.9815C83.671 67.0977 83.4566 67.265 83.2741 67.4835C83.0916 67.702 82.9478 67.9661 82.8427 68.2759C82.7403 68.5828 82.6892 68.9286 82.6892 69.313C82.6892 69.5923 82.7237 69.8426 82.7929 70.0639C82.8648 70.2851 82.963 70.4732 83.0874 70.628C83.2146 70.7802 83.364 70.8977 83.5355 70.9807C83.7069 71.0609 83.8936 71.101 84.0955 71.101ZM92.297 68.5455C92.297 68.8774 92.2596 69.1941 92.185 69.4955C92.1131 69.7942 92.0093 70.0722 91.8738 70.3294C91.7383 70.5866 91.5738 70.8189 91.3802 71.0263C91.1866 71.2337 90.9695 71.4107 90.7288 71.5573C90.491 71.7039 90.2324 71.8173 89.9531 71.8975C89.6738 71.9749 89.3806 72.0136 89.0736 72.0136C88.6919 72.0136 88.349 71.9459 88.0448 71.8104C87.7406 71.6748 87.4806 71.4882 87.2649 71.2503C87.0519 71.0125 86.8887 70.7318 86.7753 70.4082C86.662 70.0846 86.6053 69.7334 86.6053 69.3545C86.6053 69.0226 86.6412 68.7073 86.7131 68.4086C86.7878 68.1072 86.8929 67.8278 87.0284 67.5706C87.1667 67.3134 87.3312 67.0811 87.5221 66.8737C87.7157 66.6663 87.9314 66.4893 88.1692 66.3427C88.4098 66.1933 88.6698 66.0799 88.9492 66.0025C89.2285 65.9223 89.523 65.8822 89.8328 65.8822C90.2144 65.8822 90.5574 65.9499 90.8616 66.0855C91.1658 66.221 91.4244 66.4077 91.6374 66.6455C91.8503 66.8834 92.0135 67.1655 92.1269 67.4918C92.2403 67.8154 92.297 68.1666 92.297 68.5455ZM91.1935 68.5704C91.1935 68.2994 91.1589 68.0532 91.0898 67.832C91.0234 67.6107 90.9252 67.4213 90.7952 67.2636C90.668 67.106 90.5117 66.9843 90.3264 66.8986C90.1411 66.8128 89.9323 66.77 89.7 66.77C89.4013 66.77 89.1289 66.8308 88.8828 66.9525C88.6394 67.0742 88.4306 67.247 88.2564 67.4711C88.0821 67.6951 87.9466 67.9647 87.8498 68.28C87.7558 68.5953 87.7088 68.9451 87.7088 69.3296C87.7088 69.6006 87.7419 69.8468 87.8083 70.068C87.8747 70.2893 87.9715 70.4787 88.0987 70.6363C88.2259 70.7912 88.3808 70.9115 88.5633 70.9973C88.7486 71.0802 88.9588 71.1217 89.1939 71.1217C89.4954 71.1217 89.7692 71.0609 90.0153 70.9392C90.2615 70.8175 90.4716 70.646 90.6459 70.4248C90.8201 70.2035 90.9542 69.9366 91.0483 69.6241C91.1451 69.3088 91.1935 68.9576 91.1935 68.5704ZM95.1796 71.0844C95.3732 71.0844 95.5502 71.0484 95.7106 70.9765C95.8738 70.9018 96.0162 70.7981 96.1379 70.6654C96.2596 70.5299 96.3591 70.3681 96.4366 70.18C96.5168 69.9919 96.5707 69.7831 96.5984 69.5536L97.0381 65.9486H98.1167L97.6728 69.5536C97.6286 69.9076 97.5345 70.2353 97.3907 70.5368C97.2469 70.8382 97.0616 71.0982 96.8348 71.3167C96.6108 71.5352 96.3481 71.7067 96.0466 71.8311C95.7479 71.9528 95.4202 72.0136 95.0634 72.0136C94.7067 72.0136 94.3928 71.9528 94.1217 71.8311C93.8535 71.7067 93.6336 71.5352 93.4621 71.3167C93.2906 71.0982 93.1703 70.8382 93.1012 70.5368C93.0321 70.2353 93.0196 69.9076 93.0639 69.5536L93.4953 65.9486H94.5739L94.1342 69.5494C94.1065 69.779 94.1079 69.9892 94.1383 70.18C94.1715 70.3681 94.2323 70.5299 94.3209 70.6654C94.4121 70.7981 94.5283 70.9018 94.6693 70.9765C94.8131 71.0484 94.9832 71.0844 95.1796 71.0844ZM104.003 65.9486L103.264 71.9473H102.708C102.625 71.9473 102.556 71.9334 102.501 71.9058C102.448 71.8754 102.399 71.827 102.352 71.7606L100.028 67.6619C100.023 67.731 100.017 67.7974 100.012 67.861C100.006 67.9219 100.001 67.9799 99.9952 68.0353L99.5223 71.9473H98.5723L99.3107 65.9486H99.8749C99.9219 65.9486 99.9606 65.9513 99.991 65.9569C100.024 65.9596 100.053 65.9679 100.078 65.9818C100.103 65.9928 100.125 66.0094 100.145 66.0315C100.164 66.0537 100.185 66.0841 100.207 66.1228L102.542 70.2173C102.548 70.1344 102.553 70.0556 102.559 69.9809C102.567 69.9034 102.576 69.8329 102.584 69.7693L103.053 65.9486H104.003ZM109.012 66.8322H107.373L106.743 71.9473H105.673L106.295 66.8322H104.648L104.756 65.9486H109.124L109.012 66.8322ZM110.229 71.9473H109.146L109.876 65.9486H110.959L110.229 71.9473ZM116.918 65.9486L116.18 71.9473H115.624C115.541 71.9473 115.472 71.9334 115.416 71.9058C115.364 71.8754 115.314 71.827 115.267 71.7606L112.944 67.6619C112.938 67.731 112.933 67.7974 112.927 67.861C112.922 67.9219 112.916 67.9799 112.911 68.0353L112.438 71.9473H111.488L112.226 65.9486H112.79C112.837 65.9486 112.876 65.9513 112.906 65.9569C112.94 65.9596 112.969 65.9679 112.994 65.9818C113.018 65.9928 113.041 66.0094 113.06 66.0315C113.079 66.0537 113.1 66.0841 113.122 66.1228L115.458 70.2173C115.463 70.1344 115.469 70.0556 115.474 69.9809C115.483 69.9034 115.491 69.8329 115.499 69.7693L115.968 65.9486H116.918ZM120.521 68.9562H122.388L122.089 71.3665C121.785 71.5877 121.457 71.7509 121.106 71.856C120.755 71.9611 120.354 72.0136 119.903 72.0136C119.535 72.0136 119.201 71.9473 118.899 71.8145C118.6 71.6818 118.343 71.4978 118.127 71.2628C117.915 71.0249 117.75 70.7442 117.634 70.4206C117.518 70.0943 117.46 69.7389 117.46 69.3545C117.46 69.0171 117.497 68.6976 117.572 68.3962C117.646 68.0919 117.751 67.8112 117.887 67.554C118.025 67.2968 118.191 67.0659 118.385 66.8612C118.578 66.6538 118.794 66.4782 119.032 66.3344C119.27 66.1878 119.527 66.0758 119.803 65.9983C120.083 65.9209 120.375 65.8822 120.679 65.8822C120.922 65.8822 121.142 65.9043 121.338 65.9486C121.538 65.9901 121.717 66.0481 121.878 66.1228C122.038 66.1975 122.182 66.2846 122.309 66.3842C122.436 66.4837 122.55 66.5888 122.649 66.6994L122.301 67.1475C122.246 67.2249 122.178 67.2733 122.098 67.2927C122.017 67.3093 121.936 67.2899 121.853 67.2346C121.773 67.182 121.692 67.1309 121.612 67.0811C121.532 67.0286 121.443 66.9815 121.347 66.9401C121.253 66.8986 121.145 66.8654 121.023 66.8405C120.901 66.8156 120.759 66.8032 120.596 66.8032C120.297 66.8032 120.023 66.864 119.774 66.9857C119.526 67.1046 119.311 67.2747 119.131 67.4959C118.952 67.7144 118.812 67.9786 118.712 68.2883C118.613 68.5953 118.563 68.9382 118.563 69.3171C118.563 69.6048 118.599 69.862 118.671 70.0887C118.746 70.3155 118.849 70.5077 118.982 70.6654C119.115 70.823 119.274 70.9447 119.459 71.0305C119.647 71.1134 119.856 71.1549 120.086 71.1549C120.312 71.1549 120.511 71.1342 120.683 71.0927C120.854 71.0484 121.019 70.9862 121.177 70.906L121.314 69.7652H120.65C120.581 69.7652 120.528 69.7472 120.492 69.7112C120.459 69.6725 120.445 69.6255 120.451 69.5702L120.521 68.9562ZM130.589 68.5455C130.589 68.8774 130.552 69.1941 130.477 69.4955C130.405 69.7942 130.302 70.0722 130.166 70.3294C130.031 70.5866 129.866 70.8189 129.673 71.0263C129.479 71.2337 129.262 71.4107 129.021 71.5573C128.783 71.7039 128.525 71.8173 128.245 71.8975C127.966 71.9749 127.673 72.0136 127.366 72.0136C126.984 72.0136 126.641 71.9459 126.337 71.8104C126.033 71.6748 125.773 71.4882 125.557 71.2503C125.344 71.0125 125.181 70.7318 125.068 70.4082C124.954 70.0846 124.898 69.7334 124.898 69.3545C124.898 69.0226 124.934 68.7073 125.006 68.4086C125.08 68.1072 125.185 67.8278 125.321 67.5706C125.459 67.3134 125.624 67.0811 125.814 66.8737C126.008 66.6663 126.224 66.4893 126.462 66.3427C126.702 66.1933 126.962 66.0799 127.242 66.0025C127.521 65.9223 127.815 65.8822 128.125 65.8822C128.507 65.8822 128.85 65.9499 129.154 66.0855C129.458 66.221 129.717 66.4077 129.93 66.6455C130.143 66.8834 130.306 67.1655 130.419 67.4918C130.533 67.8154 130.589 68.1666 130.589 68.5455ZM129.486 68.5704C129.486 68.2994 129.451 68.0532 129.382 67.832C129.316 67.6107 129.218 67.4213 129.088 67.2636C128.96 67.106 128.804 66.9843 128.619 66.8986C128.434 66.8128 128.225 66.77 127.992 66.77C127.694 66.77 127.421 66.8308 127.175 66.9525C126.932 67.0742 126.723 67.247 126.549 67.4711C126.375 67.6951 126.239 67.9647 126.142 68.28C126.048 68.5953 126.001 68.9451 126.001 69.3296C126.001 69.6006 126.034 69.8468 126.101 70.068C126.167 70.2893 126.264 70.4787 126.391 70.6363C126.518 70.7912 126.673 70.9115 126.856 70.9973C127.041 71.0802 127.251 71.1217 127.486 71.1217C127.788 71.1217 128.062 71.0609 128.308 70.9392C128.554 70.8175 128.764 70.646 128.938 70.4248C129.113 70.2035 129.247 69.9366 129.341 69.6241C129.437 69.3088 129.486 68.9576 129.486 68.5704ZM136.558 65.9486L135.82 71.9473H135.264C135.181 71.9473 135.112 71.9334 135.057 71.9058C135.004 71.8754 134.954 71.827 134.907 71.7606L132.584 67.6619C132.579 67.731 132.573 67.7974 132.568 67.861C132.562 67.9219 132.557 67.9799 132.551 68.0353L132.078 71.9473H131.128L131.867 65.9486H132.431C132.478 65.9486 132.516 65.9513 132.547 65.9569C132.58 65.9596 132.609 65.9679 132.634 65.9818C132.659 65.9928 132.681 66.0094 132.7 66.0315C132.72 66.0537 132.74 66.0841 132.763 66.1228L135.098 70.2173C135.104 70.1344 135.109 70.0556 135.115 69.9809C135.123 69.9034 135.131 69.8329 135.14 69.7693L135.608 65.9486H136.558ZM143.14 66.8322H141.501L140.871 71.9473H139.8L140.423 66.8322H138.776L138.883 65.9486H143.252L143.14 66.8322ZM148.704 65.9486L147.966 71.9473H146.879L147.206 69.313H144.68L144.356 71.9473H143.274L144.012 65.9486H145.095L144.775 68.5497H147.298L147.621 65.9486H148.704ZM150.312 71.9473H149.229L149.959 65.9486H151.042L150.312 71.9473ZM155.155 67.0272C155.116 67.0825 155.078 67.124 155.039 67.1516C155.003 67.1765 154.957 67.189 154.902 67.189C154.847 67.189 154.79 67.1668 154.732 67.1226C154.674 67.0783 154.605 67.0299 154.524 66.9774C154.444 66.9221 154.349 66.8723 154.238 66.828C154.128 66.7838 153.995 66.7617 153.84 66.7617C153.691 66.7617 153.558 66.7838 153.442 66.828C153.325 66.8723 153.227 66.9331 153.147 67.0106C153.07 67.088 153.01 67.1793 152.969 67.2844C152.93 67.3895 152.911 67.5029 152.911 67.6246C152.911 67.7518 152.942 67.8582 153.006 67.944C153.072 68.027 153.158 68.1002 153.263 68.1639C153.368 68.2275 153.489 68.2842 153.624 68.3339C153.76 68.3837 153.897 68.4363 154.035 68.4916C154.176 68.5469 154.314 68.6105 154.45 68.6824C154.585 68.7543 154.706 68.8428 154.811 68.9479C154.916 69.053 155 69.1802 155.064 69.3296C155.13 69.4762 155.163 69.6545 155.163 69.8647C155.163 70.1579 155.112 70.4345 155.01 70.6944C154.907 70.9544 154.762 71.1826 154.574 71.3789C154.386 71.5725 154.157 71.7274 153.886 71.8436C153.615 71.9569 153.312 72.0136 152.977 72.0136C152.803 72.0136 152.631 71.9943 152.463 71.9556C152.294 71.9196 152.135 71.8671 151.986 71.7979C151.836 71.7288 151.698 71.6458 151.571 71.549C151.443 71.4522 151.333 71.3444 151.239 71.2254L151.62 70.711C151.651 70.6723 151.69 70.6405 151.737 70.6156C151.784 70.5907 151.831 70.5783 151.878 70.5783C151.922 70.5783 151.965 70.5921 152.006 70.6198C152.051 70.6474 152.098 70.682 152.147 70.7235C152.2 70.7622 152.255 70.8064 152.313 70.8562C152.374 70.9032 152.442 70.9475 152.517 70.989C152.594 71.0277 152.681 71.0609 152.778 71.0885C152.877 71.1162 152.989 71.13 153.114 71.13C153.429 71.13 153.675 71.0415 153.852 70.8645C154.029 70.6875 154.118 70.4428 154.118 70.1302C154.118 69.9919 154.086 69.8786 154.022 69.7901C153.959 69.7016 153.874 69.6269 153.769 69.566C153.664 69.5052 153.544 69.4526 153.408 69.4084C153.276 69.3614 153.14 69.313 153.002 69.2632C152.864 69.2107 152.727 69.1512 152.591 69.0848C152.458 69.0157 152.34 68.9286 152.234 68.8235C152.129 68.7156 152.045 68.5842 151.981 68.4294C151.918 68.2745 151.886 68.0836 151.886 67.8569C151.886 67.5997 151.933 67.3521 152.027 67.1143C152.124 66.8764 152.261 66.6676 152.438 66.4879C152.617 66.3053 152.833 66.1601 153.085 66.0523C153.339 65.9417 153.626 65.8863 153.944 65.8863C154.107 65.8863 154.263 65.9029 154.412 65.9361C154.565 65.9693 154.706 66.0163 154.836 66.0772C154.966 66.138 155.084 66.2113 155.192 66.297C155.303 66.38 155.398 66.4727 155.479 66.575L155.155 67.0272ZM160.742 68.9562H162.609L162.31 71.3665C162.006 71.5877 161.678 71.7509 161.327 71.856C160.976 71.9611 160.575 72.0136 160.124 72.0136C159.756 72.0136 159.421 71.9473 159.12 71.8145C158.821 71.6818 158.564 71.4978 158.348 71.2628C158.135 71.0249 157.971 70.7442 157.855 70.4206C157.738 70.0943 157.68 69.7389 157.68 69.3545C157.68 69.0171 157.718 68.6976 157.792 68.3962C157.867 68.0919 157.972 67.8112 158.108 67.554C158.246 67.2968 158.412 67.0659 158.605 66.8612C158.799 66.6538 159.015 66.4782 159.253 66.3344C159.49 66.1878 159.748 66.0758 160.024 65.9983C160.304 65.9209 160.595 65.8822 160.9 65.8822C161.143 65.8822 161.363 65.9043 161.559 65.9486C161.758 65.9901 161.938 66.0481 162.098 66.1228C162.259 66.1975 162.403 66.2846 162.53 66.3842C162.657 66.4837 162.771 66.5888 162.87 66.6994L162.522 67.1475C162.466 67.2249 162.399 67.2733 162.318 67.2927C162.238 67.3093 162.157 67.2899 162.074 67.2346C161.993 67.182 161.913 67.1309 161.833 67.0811C161.753 67.0286 161.664 66.9815 161.567 66.9401C161.473 66.8986 161.366 66.8654 161.244 66.8405C161.122 66.8156 160.98 66.8032 160.817 66.8032C160.518 66.8032 160.244 66.864 159.995 66.9857C159.746 67.1046 159.532 67.2747 159.352 67.4959C159.172 67.7144 159.033 67.9786 158.933 68.2883C158.834 68.5953 158.784 68.9382 158.784 69.3171C158.784 69.6048 158.82 69.862 158.892 70.0887C158.966 70.3155 159.07 70.5077 159.203 70.6654C159.336 70.823 159.495 70.9447 159.68 71.0305C159.868 71.1134 160.077 71.1549 160.306 71.1549C160.533 71.1549 160.732 71.1342 160.904 71.0927C161.075 71.0484 161.24 70.9862 161.397 70.906L161.534 69.7652H160.871C160.801 69.7652 160.749 69.7472 160.713 69.7112C160.68 69.6725 160.666 69.6255 160.671 69.5702L160.742 68.9562ZM168.995 68.5455C168.995 68.8774 168.958 69.1941 168.883 69.4955C168.811 69.7942 168.708 70.0722 168.572 70.3294C168.437 70.5866 168.272 70.8189 168.078 71.0263C167.885 71.2337 167.668 71.4107 167.427 71.5573C167.189 71.7039 166.931 71.8173 166.651 71.8975C166.372 71.9749 166.079 72.0136 165.772 72.0136C165.39 72.0136 165.047 71.9459 164.743 71.8104C164.439 71.6748 164.179 71.4882 163.963 71.2503C163.75 71.0125 163.587 70.7318 163.474 70.4082C163.36 70.0846 163.303 69.7334 163.303 69.3545C163.303 69.0226 163.339 68.7073 163.411 68.4086C163.486 68.1072 163.591 67.8278 163.727 67.5706C163.865 67.3134 164.029 67.0811 164.22 66.8737C164.414 66.6663 164.63 66.4893 164.867 66.3427C165.108 66.1933 165.368 66.0799 165.647 66.0025C165.927 65.9223 166.221 65.8822 166.531 65.8822C166.913 65.8822 167.256 65.9499 167.56 66.0855C167.864 66.221 168.123 66.4077 168.336 66.6455C168.549 66.8834 168.712 67.1655 168.825 67.4918C168.939 67.8154 168.995 68.1666 168.995 68.5455ZM167.892 68.5704C167.892 68.2994 167.857 68.0532 167.788 67.832C167.722 67.6107 167.623 67.4213 167.493 67.2636C167.366 67.106 167.21 66.9843 167.025 66.8986C166.839 66.8128 166.631 66.77 166.398 66.77C166.1 66.77 165.827 66.8308 165.581 66.9525C165.338 67.0742 165.129 67.247 164.955 67.4711C164.78 67.6951 164.645 67.9647 164.548 68.28C164.454 68.5953 164.407 68.9451 164.407 69.3296C164.407 69.6006 164.44 69.8468 164.507 70.068C164.573 70.2893 164.67 70.4787 164.797 70.6363C164.924 70.7912 165.079 70.9115 165.262 70.9973C165.447 71.0802 165.657 71.1217 165.892 71.1217C166.194 71.1217 166.467 71.0609 166.714 70.9392C166.96 70.8175 167.17 70.646 167.344 70.4248C167.518 70.2035 167.652 69.9366 167.747 69.6241C167.843 69.3088 167.892 68.9576 167.892 68.5704Z" fill="#E2A827"/>
<path d="M34.341 173.222H32.6478L31.9962 178.508H30.8902L31.5332 173.222H29.8313L29.9428 172.309H34.4568L34.341 173.222ZM34.9856 175.164C35.097 174.947 35.2156 174.761 35.3414 174.607C35.47 174.45 35.6029 174.328 35.74 174.243C35.8772 174.154 36.0187 174.103 36.1644 174.088C36.3102 174.071 36.4559 174.094 36.6017 174.157L36.4088 175.169C36.0601 175.023 35.7543 175.059 35.4914 175.276C35.2314 175.493 35.0227 175.92 34.8655 176.558L34.6298 178.508H33.5924L34.1239 174.106H34.6641C34.7755 174.106 34.8613 174.133 34.9213 174.187C34.9841 174.241 35.0156 174.328 35.0156 174.448L34.9856 175.164ZM39.3708 174.804C39.3308 174.801 39.2922 174.8 39.2551 174.8C39.2208 174.797 39.1865 174.796 39.1522 174.796C38.915 174.796 38.6949 174.85 38.492 174.959C38.2891 175.067 38.1133 175.214 37.9647 175.4C37.819 175.583 37.7032 175.797 37.6175 176.043C37.5346 176.286 37.4932 176.543 37.4932 176.815C37.4932 177.123 37.5418 177.349 37.6389 177.492C37.7361 177.635 37.869 177.706 38.0376 177.706C38.1548 177.706 38.2691 177.666 38.3806 177.586C38.4949 177.504 38.602 177.392 38.7021 177.252C38.8049 177.109 38.8978 176.942 38.9807 176.75C39.0664 176.559 39.1407 176.353 39.2036 176.133L39.3708 174.804ZM39.0793 177.591C38.885 177.891 38.6649 178.129 38.4191 178.307C38.1762 178.484 37.9104 178.572 37.6218 178.572C37.456 178.572 37.3003 178.539 37.1545 178.474C37.0117 178.408 36.8859 178.311 36.7773 178.182C36.6716 178.051 36.5873 177.888 36.5244 177.694C36.4644 177.496 36.4344 177.266 36.4344 177.003C36.4344 176.74 36.4672 176.485 36.533 176.236C36.5987 175.987 36.6916 175.755 36.8116 175.537C36.9345 175.317 37.0817 175.116 37.2531 174.933C37.4246 174.75 37.6161 174.593 37.8276 174.461C38.0419 174.33 38.272 174.228 38.5177 174.157C38.7664 174.083 39.0279 174.046 39.3022 174.046C39.4994 174.046 39.6966 174.06 39.8938 174.088C40.0938 174.117 40.2882 174.168 40.4768 174.243L39.9495 178.508H39.3879C39.2536 178.508 39.1622 178.475 39.1136 178.409C39.0679 178.341 39.045 178.257 39.045 178.157L39.0793 177.591ZM44.3092 177.728C44.1635 177.888 44.0234 178.022 43.8891 178.131C43.7577 178.239 43.6233 178.327 43.4862 178.392C43.349 178.458 43.2047 178.504 43.0532 178.529C42.9046 178.558 42.7403 178.572 42.5602 178.572C42.3059 178.572 42.0772 178.529 41.8743 178.444C41.6743 178.355 41.5042 178.231 41.3642 178.071C41.2242 177.911 41.117 177.718 41.0427 177.492C40.9684 177.266 40.9312 177.015 40.9312 176.738C40.9312 176.5 40.957 176.269 41.0084 176.043C41.0598 175.817 41.1342 175.604 41.2313 175.404C41.3285 175.204 41.4457 175.021 41.5828 174.856C41.72 174.69 41.8743 174.547 42.0458 174.427C42.2173 174.307 42.403 174.214 42.6031 174.148C42.806 174.08 43.0203 174.046 43.2461 174.046C43.5376 174.046 43.7848 174.097 43.9877 174.2C44.1935 174.303 44.3749 174.457 44.5321 174.663L44.1935 175.066C44.1706 175.092 44.142 175.116 44.1077 175.139C44.0734 175.159 44.0363 175.169 43.9963 175.169C43.9477 175.169 43.9034 175.154 43.8634 175.126C43.8262 175.094 43.7805 175.062 43.7262 175.027C43.6748 174.993 43.609 174.961 43.529 174.933C43.4519 174.901 43.3504 174.886 43.2247 174.886C43.0618 174.886 42.906 174.93 42.7574 175.019C42.6088 175.107 42.4773 175.233 42.363 175.396C42.2487 175.559 42.1573 175.755 42.0887 175.983C42.0229 176.212 41.9901 176.465 41.9901 176.742C41.9901 177.065 42.0615 177.315 42.2044 177.492C42.3473 177.666 42.5416 177.754 42.7874 177.754C42.896 177.754 42.9917 177.742 43.0746 177.719C43.1575 177.696 43.2304 177.669 43.2933 177.638C43.359 177.604 43.4161 177.568 43.4647 177.531C43.5133 177.491 43.559 177.455 43.6019 177.424C43.6448 177.389 43.6848 177.361 43.7219 177.338C43.7619 177.315 43.8048 177.303 43.8505 177.303C43.8877 177.303 43.922 177.313 43.9534 177.333C43.9877 177.351 44.0177 177.373 44.0434 177.402L44.3092 177.728ZM46.6209 172.138L46.175 175.786H46.2822C46.3479 175.786 46.4008 175.776 46.4408 175.756C46.4837 175.736 46.528 175.699 46.5737 175.645L47.744 174.294C47.7926 174.234 47.844 174.188 47.8983 174.157C47.9526 174.126 48.0212 174.11 48.1041 174.11H49.0472L47.5982 175.743C47.4953 175.869 47.3839 175.967 47.2639 176.039C47.3182 176.079 47.3639 176.127 47.401 176.185C47.4411 176.242 47.4768 176.305 47.5082 176.373L48.5928 178.508H47.6754C47.5982 178.508 47.5339 178.495 47.4825 178.469C47.431 178.441 47.3896 178.391 47.3582 178.319L46.5051 176.652C46.4737 176.586 46.4394 176.543 46.4022 176.523C46.3679 176.503 46.3108 176.493 46.2308 176.493H46.085L45.8407 178.508H44.7947L45.5792 172.138H46.6209ZM52.9072 173.197L52.6886 174.959H54.6476L54.5404 175.812H52.5814L52.3585 177.621H54.8619L54.7505 178.508H51.1325L51.8955 172.309H55.5092L55.3978 173.197H52.9072ZM59.6383 174.11L57.4692 178.508H56.5818L55.4801 174.11H56.3503C56.4246 174.11 56.4832 174.128 56.5261 174.166C56.5718 174.203 56.6004 174.25 56.6118 174.307L57.0705 176.656C57.0934 176.799 57.1119 176.939 57.1262 177.076C57.1405 177.213 57.1519 177.351 57.1605 177.488C57.2463 177.213 57.3463 176.936 57.4606 176.656L58.5109 174.307C58.5366 174.25 58.5752 174.203 58.6266 174.166C58.6809 174.128 58.7409 174.11 58.8066 174.11H59.6383ZM61.7989 174.787C61.656 174.787 61.5231 174.817 61.4003 174.877C61.2774 174.934 61.1659 175.016 61.0659 175.122C60.9687 175.227 60.883 175.354 60.8087 175.503C60.7372 175.649 60.6801 175.809 60.6372 175.983C60.9916 175.935 61.2759 175.882 61.4903 175.825C61.7075 175.765 61.8747 175.702 61.9918 175.636C62.109 175.567 62.1862 175.494 62.2233 175.417C62.2633 175.337 62.2833 175.254 62.2833 175.169C62.2833 175.126 62.2733 175.082 62.2533 175.036C62.2362 174.99 62.2076 174.95 62.1676 174.916C62.1304 174.879 62.0804 174.849 62.0176 174.826C61.9575 174.8 61.8847 174.787 61.7989 174.787ZM60.5472 176.716C60.5472 177.408 60.8401 177.754 61.426 177.754C61.5517 177.754 61.6632 177.742 61.7604 177.719C61.8575 177.694 61.9418 177.664 62.0133 177.629C62.0876 177.595 62.1533 177.556 62.2105 177.514C62.2705 177.471 62.3248 177.432 62.3734 177.398C62.4248 177.363 62.4748 177.335 62.5234 177.312C62.572 177.286 62.6248 177.273 62.682 177.273C62.7163 177.273 62.7492 177.282 62.7806 177.299C62.8149 177.316 62.8449 177.339 62.8706 177.368L63.1407 177.694C62.9892 177.845 62.8406 177.976 62.6949 178.088C62.5491 178.199 62.4005 178.291 62.249 178.362C62.0976 178.434 61.9375 178.487 61.7689 178.521C61.6003 178.555 61.4174 178.572 61.2202 178.572C60.963 178.572 60.7301 178.529 60.5215 178.444C60.3129 178.355 60.1342 178.232 59.9856 178.075C59.837 177.915 59.7213 177.724 59.6384 177.501C59.5584 177.275 59.5184 177.023 59.5184 176.746C59.5184 176.515 59.5427 176.288 59.5912 176.065C59.6427 175.842 59.7156 175.63 59.8099 175.43C59.9042 175.23 60.0199 175.046 60.1571 174.877C60.2943 174.709 60.4486 174.563 60.6201 174.44C60.7944 174.317 60.9844 174.221 61.1902 174.153C61.3988 174.084 61.6217 174.05 61.8589 174.05C62.0876 174.05 62.2876 174.083 62.4591 174.148C62.6334 174.214 62.7777 174.3 62.8921 174.406C63.0092 174.509 63.0964 174.624 63.1535 174.753C63.2107 174.881 63.2393 175.007 63.2393 175.13C63.2393 175.327 63.1993 175.507 63.1193 175.67C63.0421 175.833 62.9021 175.979 62.6992 176.107C62.4991 176.236 62.2247 176.348 61.8761 176.442C61.5274 176.533 61.0845 176.606 60.5472 176.66V176.716ZM65.0766 175.164C65.1881 174.947 65.3067 174.761 65.4324 174.607C65.561 174.45 65.6939 174.328 65.8311 174.243C65.9683 174.154 66.1097 174.103 66.2555 174.088C66.4012 174.071 66.547 174.094 66.6927 174.157L66.4998 175.169C66.1512 175.023 65.8454 175.059 65.5825 175.276C65.3224 175.493 65.1138 175.92 64.9566 176.558L64.7208 178.508H63.6834L64.215 174.106H64.7551C64.8666 174.106 64.9523 174.133 65.0123 174.187C65.0752 174.241 65.1066 174.328 65.1066 174.448L65.0766 175.164ZM70.9668 174.11L68.0603 179.725C68.0203 179.8 67.9732 179.854 67.9189 179.888C67.8646 179.926 67.7974 179.944 67.7174 179.944H66.9329L67.9103 178.169L66.8 174.11H67.6874C67.7646 174.11 67.8217 174.13 67.8589 174.17C67.8989 174.207 67.926 174.253 67.9403 174.307L68.4805 176.588C68.509 176.733 68.5305 176.879 68.5448 177.025C68.5762 176.951 68.6076 176.878 68.6391 176.806C68.6734 176.732 68.7076 176.658 68.7419 176.583L69.8265 174.303C69.8551 174.246 69.8965 174.2 69.9508 174.166C70.0051 174.128 70.0608 174.11 70.118 174.11H70.9668ZM79.7632 172.309L79.0002 178.508H78.0228L78.52 174.47C78.5315 174.396 78.5443 174.316 78.5586 174.23C78.5758 174.144 78.5943 174.056 78.6144 173.964L76.4838 177.496C76.4352 177.576 76.3738 177.636 76.2995 177.676C76.2281 177.716 76.1495 177.736 76.0637 177.736H75.9094C75.8237 177.736 75.7479 177.716 75.6822 177.676C75.6193 177.636 75.5736 177.576 75.545 177.496L74.2676 173.964C74.2647 174.053 74.2604 174.138 74.2547 174.221C74.2519 174.304 74.2461 174.381 74.2376 174.453L73.7489 178.508H72.7672L73.5303 172.309H74.3662C74.4148 172.309 74.4548 172.312 74.4862 172.318C74.5205 172.321 74.5505 172.329 74.5762 172.344C74.6019 172.355 74.6262 172.374 74.6491 172.399C74.672 172.422 74.6963 172.452 74.722 172.489L76.0037 176.03C76.0552 176.182 76.098 176.336 76.1323 176.493C76.1695 176.413 76.2066 176.335 76.2438 176.258C76.2838 176.18 76.3267 176.105 76.3724 176.03L78.5243 172.489C78.5586 172.452 78.5886 172.422 78.6144 172.399C78.6429 172.374 78.6715 172.355 78.7001 172.344C78.7287 172.329 78.7601 172.321 78.7944 172.318C78.8287 172.312 78.8701 172.309 78.9187 172.309H79.7632ZM81.6971 174.11L81.1699 178.508H80.1282L80.6555 174.11H81.6971ZM81.9672 172.828C81.9672 172.92 81.9472 173.005 81.9072 173.085C81.87 173.165 81.82 173.235 81.7572 173.295C81.6943 173.355 81.6228 173.404 81.5428 173.441C81.4628 173.475 81.3799 173.493 81.2942 173.493C81.2113 173.493 81.1313 173.475 81.0541 173.441C80.977 173.404 80.9084 173.355 80.8484 173.295C80.7883 173.235 80.7398 173.165 80.7026 173.085C80.6683 173.005 80.6512 172.92 80.6512 172.828C80.6512 172.737 80.6697 172.649 80.7069 172.567C80.744 172.484 80.7926 172.412 80.8526 172.352C80.9127 172.289 80.9812 172.241 81.0584 172.207C81.1384 172.169 81.2199 172.151 81.3028 172.151C81.3885 172.151 81.4714 172.169 81.5514 172.207C81.6314 172.241 81.7014 172.288 81.7614 172.348C81.8243 172.408 81.8743 172.479 81.9115 172.562C81.9486 172.645 81.9672 172.734 81.9672 172.828ZM82.1997 178.508L82.9713 172.138H84.0173L83.2414 178.508H82.1997ZM86.5232 174.787C86.3803 174.787 86.2474 174.817 86.1245 174.877C86.0016 174.934 85.8901 175.016 85.7901 175.122C85.693 175.227 85.6072 175.354 85.5329 175.503C85.4615 175.649 85.4043 175.809 85.3614 175.983C85.7158 175.935 86.0002 175.882 86.2145 175.825C86.4317 175.765 86.5989 175.702 86.7161 175.636C86.8332 175.567 86.9104 175.494 86.9475 175.417C86.9876 175.337 87.0076 175.254 87.0076 175.169C87.0076 175.126 86.9976 175.082 86.9776 175.036C86.9604 174.99 86.9318 174.95 86.8918 174.916C86.8547 174.879 86.8047 174.849 86.7418 174.826C86.6818 174.8 86.6089 174.787 86.5232 174.787ZM85.2714 176.716C85.2714 177.408 85.5644 177.754 86.1502 177.754C86.276 177.754 86.3874 177.742 86.4846 177.719C86.5817 177.694 86.666 177.664 86.7375 177.629C86.8118 177.595 86.8775 177.556 86.9347 177.514C86.9947 177.471 87.049 177.432 87.0976 177.398C87.149 177.363 87.199 177.335 87.2476 177.312C87.2962 177.286 87.3491 177.273 87.4062 177.273C87.4405 177.273 87.4734 177.282 87.5048 177.299C87.5391 177.316 87.5691 177.339 87.5948 177.368L87.8649 177.694C87.7134 177.845 87.5648 177.976 87.4191 178.088C87.2733 178.199 87.1247 178.291 86.9733 178.362C86.8218 178.434 86.6618 178.487 86.4931 178.521C86.3245 178.555 86.1416 178.572 85.9444 178.572C85.6872 178.572 85.4543 178.529 85.2457 178.444C85.0371 178.355 84.8585 178.232 84.7099 178.075C84.5612 177.915 84.4455 177.724 84.3626 177.501C84.2826 177.275 84.2426 177.023 84.2426 176.746C84.2426 176.515 84.2669 176.288 84.3155 176.065C84.3669 175.842 84.4398 175.63 84.5341 175.43C84.6284 175.23 84.7442 175.046 84.8813 174.877C85.0185 174.709 85.1728 174.563 85.3443 174.44C85.5186 174.317 85.7087 174.221 85.9144 174.153C86.1231 174.084 86.346 174.05 86.5832 174.05C86.8118 174.05 87.0118 174.083 87.1833 174.148C87.3576 174.214 87.502 174.3 87.6163 174.406C87.7335 174.509 87.8206 174.624 87.8778 174.753C87.9349 174.881 87.9635 175.007 87.9635 175.13C87.9635 175.327 87.9235 175.507 87.8435 175.67C87.7663 175.833 87.6263 175.979 87.4234 176.107C87.2233 176.236 86.949 176.348 86.6003 176.442C86.2517 176.533 85.8087 176.606 85.2714 176.66V176.716ZM88.3691 177.925C88.3691 177.836 88.3848 177.752 88.4162 177.672C88.4505 177.592 88.4963 177.524 88.5534 177.466C88.6134 177.409 88.6834 177.363 88.7635 177.329C88.8435 177.295 88.9292 177.278 89.0207 177.278C89.1093 177.278 89.1936 177.295 89.2736 177.329C89.3536 177.363 89.4222 177.409 89.4793 177.466C89.5394 177.524 89.5865 177.592 89.6208 177.672C89.6551 177.752 89.6723 177.836 89.6723 177.925C89.6723 178.017 89.6551 178.102 89.6208 178.182C89.5865 178.259 89.5394 178.327 89.4793 178.384C89.4222 178.441 89.3536 178.485 89.2736 178.517C89.1936 178.551 89.1093 178.568 89.0207 178.568C88.9292 178.568 88.8435 178.551 88.7635 178.517C88.6834 178.485 88.6134 178.441 88.5534 178.384C88.4963 178.327 88.4505 178.259 88.4162 178.182C88.3848 178.102 88.3691 178.017 88.3691 177.925ZM95.091 177.634C95.2653 177.634 95.4168 177.621 95.5454 177.595C95.674 177.566 95.7869 177.531 95.884 177.488C95.9812 177.445 96.0627 177.401 96.1284 177.355C96.197 177.306 96.257 177.261 96.3084 177.218C96.3599 177.175 96.4056 177.141 96.4456 177.115C96.4856 177.086 96.5256 177.072 96.5656 177.072C96.6028 177.072 96.6328 177.079 96.6557 177.093C96.6785 177.108 96.6971 177.122 96.7114 177.136L97.1015 177.621C96.8328 177.929 96.5171 178.167 96.1541 178.332C95.7912 178.495 95.3739 178.577 94.9024 178.577C94.5194 178.577 94.1793 178.509 93.8821 178.375C93.5849 178.238 93.3334 178.049 93.1277 177.809C92.9247 177.569 92.769 177.285 92.6604 176.956C92.5547 176.628 92.5018 176.269 92.5018 175.88C92.5018 175.523 92.5404 175.186 92.6175 174.869C92.6947 174.549 92.8047 174.254 92.9476 173.986C93.0905 173.714 93.2605 173.471 93.4577 173.257C93.6578 173.042 93.8793 172.86 94.1222 172.708C94.368 172.557 94.6309 172.441 94.9109 172.361C95.1939 172.281 95.4882 172.241 95.794 172.241C96.0198 172.241 96.2256 172.262 96.4113 172.305C96.5971 172.345 96.7643 172.402 96.9129 172.477C97.0643 172.551 97.2001 172.641 97.3201 172.747C97.443 172.85 97.553 172.965 97.6502 173.094L97.2644 173.557C97.2358 173.591 97.2015 173.621 97.1615 173.647C97.1243 173.673 97.0772 173.685 97.02 173.685C96.9572 173.685 96.8971 173.66 96.84 173.608C96.7828 173.557 96.71 173.501 96.6214 173.441C96.5356 173.378 96.4227 173.321 96.2827 173.27C96.1455 173.218 95.9641 173.192 95.7383 173.192C95.4411 173.192 95.1639 173.254 94.9067 173.377C94.6523 173.497 94.4308 173.67 94.2422 173.896C94.0536 174.121 93.905 174.394 93.7964 174.714C93.6906 175.031 93.6378 175.389 93.6378 175.786C93.6378 176.075 93.6735 176.333 93.7449 176.562C93.8192 176.79 93.9207 176.985 94.0493 177.145C94.1808 177.302 94.3351 177.424 94.5123 177.509C94.6895 177.592 94.8824 177.634 95.091 177.634ZM99.3009 177.758C99.4781 177.758 99.6381 177.708 99.781 177.608C99.9239 177.505 100.045 177.369 100.145 177.201C100.245 177.029 100.323 176.831 100.377 176.605C100.431 176.379 100.458 176.142 100.458 175.893C100.458 175.536 100.398 175.274 100.278 175.109C100.158 174.94 99.9754 174.856 99.7296 174.856C99.5524 174.856 99.3909 174.906 99.2452 175.006C99.1023 175.106 98.9808 175.242 98.8808 175.413C98.7808 175.582 98.7036 175.779 98.6493 176.005C98.595 176.23 98.5679 176.469 98.5679 176.72C98.5679 177.078 98.6279 177.341 98.7479 177.509C98.868 177.675 99.0523 177.758 99.3009 177.758ZM99.2023 178.572C98.9594 178.572 98.7351 178.532 98.5293 178.452C98.3235 178.369 98.1449 178.249 97.9935 178.092C97.842 177.935 97.7234 177.742 97.6377 177.514C97.5519 177.285 97.5091 177.023 97.5091 176.729C97.5091 176.349 97.5705 175.995 97.6934 175.666C97.8163 175.337 97.982 175.053 98.1906 174.813C98.4021 174.573 98.6479 174.384 98.928 174.247C99.208 174.11 99.5067 174.041 99.8239 174.041C100.067 174.041 100.291 174.083 100.497 174.166C100.706 174.246 100.884 174.364 101.033 174.521C101.184 174.679 101.303 174.871 101.389 175.1C101.474 175.329 101.517 175.59 101.517 175.885C101.517 176.262 101.456 176.615 101.333 176.943C101.21 177.269 101.043 177.554 100.831 177.796C100.623 178.037 100.378 178.227 100.098 178.367C99.8182 178.504 99.5195 178.572 99.2023 178.572ZM106.168 174.11L105.636 178.508H105.1C104.849 178.508 104.723 178.387 104.723 178.144L104.749 177.638C104.526 177.952 104.282 178.187 104.016 178.341C103.753 178.495 103.48 178.572 103.197 178.572C103.014 178.572 102.85 178.535 102.704 178.461C102.558 178.387 102.438 178.279 102.344 178.139C102.25 177.997 102.183 177.821 102.143 177.612C102.105 177.404 102.104 177.166 102.138 176.901L102.468 174.11H103.527L103.197 176.901C103.16 177.189 103.174 177.396 103.24 177.522C103.306 177.645 103.426 177.706 103.6 177.706C103.714 177.706 103.83 177.675 103.947 177.612C104.067 177.549 104.183 177.459 104.294 177.342C104.406 177.225 104.509 177.085 104.603 176.922C104.697 176.756 104.776 176.572 104.839 176.369L105.109 174.11H106.168ZM108.011 175.019C108.234 174.69 108.481 174.446 108.753 174.286C109.024 174.123 109.304 174.041 109.593 174.041C109.776 174.041 109.94 174.078 110.086 174.153C110.232 174.227 110.352 174.336 110.446 174.479C110.54 174.619 110.606 174.793 110.643 175.001C110.683 175.207 110.686 175.443 110.652 175.709L110.322 178.508H109.263L109.593 175.709C109.63 175.423 109.616 175.219 109.55 175.096C109.484 174.97 109.364 174.907 109.19 174.907C109.073 174.907 108.953 174.941 108.83 175.01C108.707 175.076 108.589 175.172 108.474 175.297C108.36 175.42 108.254 175.569 108.157 175.743C108.063 175.915 107.985 176.107 107.925 176.322L107.681 178.508H106.622L107.15 174.106H107.685C107.797 174.106 107.883 174.133 107.943 174.187C108.006 174.241 108.037 174.328 108.037 174.448L108.011 175.019ZM111.571 177.612C111.571 177.592 111.571 177.569 111.571 177.544C111.571 177.515 111.572 177.475 111.575 177.424C111.581 177.369 111.588 177.299 111.596 177.213C111.608 177.125 111.622 177.012 111.639 176.875L111.884 174.903H111.468C111.416 174.903 111.374 174.884 111.339 174.847C111.308 174.81 111.298 174.754 111.309 174.68L111.356 174.26L112.025 174.144L112.377 172.944C112.397 172.887 112.427 172.842 112.467 172.811C112.507 172.78 112.557 172.764 112.617 172.764H113.183L113.011 174.148H114.074L113.984 174.903H112.917L112.681 176.819C112.667 176.936 112.655 177.029 112.647 177.098C112.638 177.166 112.631 177.221 112.625 177.261C112.622 177.298 112.621 177.325 112.621 177.342C112.621 177.356 112.621 177.366 112.621 177.372C112.621 177.481 112.647 177.566 112.698 177.629C112.752 177.692 112.828 177.724 112.925 177.724C112.985 177.724 113.037 177.716 113.08 177.702C113.123 177.685 113.16 177.668 113.191 177.651C113.223 177.634 113.251 177.618 113.277 177.604C113.303 177.586 113.327 177.578 113.35 177.578C113.381 177.578 113.406 177.586 113.423 177.604C113.44 177.618 113.456 177.641 113.47 177.672L113.697 178.187C113.54 178.315 113.365 178.412 113.174 178.478C112.985 178.544 112.792 178.577 112.595 178.577C112.284 178.577 112.037 178.492 111.854 178.324C111.674 178.155 111.579 177.918 111.571 177.612ZM118.146 173.197L117.928 174.959H119.887L119.78 175.812H117.821L117.598 177.621H120.101L119.99 178.508H116.372L117.135 172.309H120.748L120.637 173.197H118.146ZM124.877 174.11L122.708 178.508H121.821L120.719 174.11H121.589C121.664 174.11 121.722 174.128 121.765 174.166C121.811 174.203 121.84 174.25 121.851 174.307L122.31 176.656C122.333 176.799 122.351 176.939 122.365 177.076C122.38 177.213 122.391 177.351 122.4 177.488C122.485 177.213 122.585 176.936 122.7 176.656L123.75 174.307C123.776 174.25 123.814 174.203 123.866 174.166C123.92 174.128 123.98 174.11 124.046 174.11H124.877ZM127.038 174.787C126.895 174.787 126.762 174.817 126.639 174.877C126.517 174.934 126.405 175.016 126.305 175.122C126.208 175.227 126.122 175.354 126.048 175.503C125.976 175.649 125.919 175.809 125.876 175.983C126.231 175.935 126.515 175.882 126.729 175.825C126.947 175.765 127.114 175.702 127.231 175.636C127.348 175.567 127.425 175.494 127.462 175.417C127.502 175.337 127.522 175.254 127.522 175.169C127.522 175.126 127.512 175.082 127.492 175.036C127.475 174.99 127.447 174.95 127.407 174.916C127.37 174.879 127.32 174.849 127.257 174.826C127.197 174.8 127.124 174.787 127.038 174.787ZM125.786 176.716C125.786 177.408 126.079 177.754 126.665 177.754C126.791 177.754 126.902 177.742 126.999 177.719C127.097 177.694 127.181 177.664 127.252 177.629C127.327 177.595 127.392 177.556 127.45 177.514C127.51 177.471 127.564 177.432 127.612 177.398C127.664 177.363 127.714 177.335 127.763 177.312C127.811 177.286 127.864 177.273 127.921 177.273C127.955 177.273 127.988 177.282 128.02 177.299C128.054 177.316 128.084 177.339 128.11 177.368L128.38 177.694C128.228 177.845 128.08 177.976 127.934 178.088C127.788 178.199 127.64 178.291 127.488 178.362C127.337 178.434 127.177 178.487 127.008 178.521C126.839 178.555 126.657 178.572 126.459 178.572C126.202 178.572 125.969 178.529 125.761 178.444C125.552 178.355 125.373 178.232 125.225 178.075C125.076 177.915 124.96 177.724 124.878 177.501C124.798 177.275 124.758 177.023 124.758 176.746C124.758 176.515 124.782 176.288 124.83 176.065C124.882 175.842 124.955 175.63 125.049 175.43C125.143 175.23 125.259 175.046 125.396 174.877C125.533 174.709 125.688 174.563 125.859 174.44C126.034 174.317 126.224 174.221 126.429 174.153C126.638 174.084 126.861 174.05 127.098 174.05C127.327 174.05 127.527 174.083 127.698 174.148C127.873 174.214 128.017 174.3 128.131 174.406C128.248 174.509 128.336 174.624 128.393 174.753C128.45 174.881 128.478 175.007 128.478 175.13C128.478 175.327 128.438 175.507 128.358 175.67C128.281 175.833 128.141 175.979 127.938 176.107C127.738 176.236 127.464 176.348 127.115 176.442C126.767 176.533 126.324 176.606 125.786 176.66V176.716ZM130.316 175.164C130.427 174.947 130.546 174.761 130.672 174.607C130.8 174.45 130.933 174.328 131.07 174.243C131.207 174.154 131.349 174.103 131.495 174.088C131.64 174.071 131.786 174.094 131.932 174.157L131.739 175.169C131.39 175.023 131.085 175.059 130.822 175.276C130.562 175.493 130.353 175.92 130.196 176.558L129.96 178.508H128.923L129.454 174.106H129.994C130.106 174.106 130.191 174.133 130.251 174.187C130.314 174.241 130.346 174.328 130.346 174.448L130.316 175.164ZM136.206 174.11L133.299 179.725C133.259 179.8 133.212 179.854 133.158 179.888C133.104 179.926 133.037 179.944 132.957 179.944H132.172L133.149 178.169L132.039 174.11H132.927C133.004 174.11 133.061 174.13 133.098 174.17C133.138 174.207 133.165 174.253 133.179 174.307L133.72 176.588C133.748 176.733 133.77 176.879 133.784 177.025C133.815 176.951 133.847 176.878 133.878 176.806C133.912 176.732 133.947 176.658 133.981 176.583L135.066 174.303C135.094 174.246 135.136 174.2 135.19 174.166C135.244 174.128 135.3 174.11 135.357 174.11H136.206ZM143.511 174.993C143.511 175.507 143.428 175.98 143.262 176.412C143.096 176.843 142.865 177.215 142.567 177.526C142.273 177.835 141.923 178.077 141.517 178.251C141.111 178.422 140.668 178.508 140.188 178.508H138.006L138.769 172.309H140.956C141.35 172.309 141.704 172.377 142.019 172.511C142.336 172.645 142.605 172.831 142.825 173.068C143.045 173.305 143.213 173.588 143.331 173.917C143.451 174.246 143.511 174.604 143.511 174.993ZM142.37 175.019C142.37 174.741 142.336 174.49 142.267 174.264C142.199 174.038 142.099 173.847 141.967 173.69C141.839 173.53 141.68 173.407 141.491 173.321C141.303 173.235 141.087 173.192 140.844 173.192H139.781L139.232 177.621H140.3C140.611 177.621 140.894 177.561 141.149 177.441C141.403 177.321 141.62 177.149 141.8 176.926C141.983 176.7 142.123 176.428 142.22 176.107C142.32 175.785 142.37 175.422 142.37 175.019ZM145.71 177.758C145.887 177.758 146.047 177.708 146.19 177.608C146.333 177.505 146.455 177.369 146.555 177.201C146.655 177.029 146.732 176.831 146.786 176.605C146.84 176.379 146.868 176.142 146.868 175.893C146.868 175.536 146.808 175.274 146.688 175.109C146.567 174.94 146.385 174.856 146.139 174.856C145.962 174.856 145.8 174.906 145.654 175.006C145.512 175.106 145.39 175.242 145.29 175.413C145.19 175.582 145.113 175.779 145.059 176.005C145.004 176.23 144.977 176.469 144.977 176.72C144.977 177.078 145.037 177.341 145.157 177.509C145.277 177.675 145.461 177.758 145.71 177.758ZM145.612 178.572C145.369 178.572 145.144 178.532 144.939 178.452C144.733 178.369 144.554 178.249 144.403 178.092C144.251 177.935 144.133 177.742 144.047 177.514C143.961 177.285 143.918 177.023 143.918 176.729C143.918 176.349 143.98 175.995 144.103 175.666C144.225 175.337 144.391 175.053 144.6 174.813C144.811 174.573 145.057 174.384 145.337 174.247C145.617 174.11 145.916 174.041 146.233 174.041C146.476 174.041 146.7 174.083 146.906 174.166C147.115 174.246 147.293 174.364 147.442 174.521C147.593 174.679 147.712 174.871 147.798 175.1C147.884 175.329 147.926 175.59 147.926 175.885C147.926 176.262 147.865 176.615 147.742 176.943C147.619 177.269 147.452 177.554 147.241 177.796C147.032 178.037 146.788 178.227 146.507 178.367C146.227 178.504 145.929 178.572 145.612 178.572ZM148.402 178.508L149.173 172.138H150.219L149.443 178.508H148.402ZM150.445 178.508L151.216 172.138H152.262L151.486 178.508H150.445ZM155.39 174.804C155.35 174.801 155.311 174.8 155.274 174.8C155.24 174.797 155.205 174.796 155.171 174.796C154.934 174.796 154.714 174.85 154.511 174.959C154.308 175.067 154.132 175.214 153.984 175.4C153.838 175.583 153.722 175.797 153.636 176.043C153.553 176.286 153.512 176.543 153.512 176.815C153.512 177.123 153.561 177.349 153.658 177.492C153.755 177.635 153.888 177.706 154.056 177.706C154.174 177.706 154.288 177.666 154.399 177.586C154.514 177.504 154.621 177.392 154.721 177.252C154.824 177.109 154.917 176.942 155 176.75C155.085 176.559 155.16 176.353 155.222 176.133L155.39 174.804ZM155.098 177.591C154.904 177.891 154.684 178.129 154.438 178.307C154.195 178.484 153.929 178.572 153.641 178.572C153.475 178.572 153.319 178.539 153.173 178.474C153.03 178.408 152.905 178.311 152.796 178.182C152.69 178.051 152.606 177.888 152.543 177.694C152.483 177.496 152.453 177.266 152.453 177.003C152.453 176.74 152.486 176.485 152.552 176.236C152.618 175.987 152.71 175.755 152.83 175.537C152.953 175.317 153.101 175.116 153.272 174.933C153.443 174.75 153.635 174.593 153.846 174.461C154.061 174.33 154.291 174.228 154.537 174.157C154.785 174.083 155.047 174.046 155.321 174.046C155.518 174.046 155.715 174.06 155.913 174.088C156.113 174.117 156.307 174.168 156.496 174.243L155.968 178.508H155.407C155.272 178.508 155.181 178.475 155.132 178.409C155.087 178.341 155.064 178.257 155.064 178.157L155.098 177.591ZM158.33 175.164C158.442 174.947 158.56 174.761 158.686 174.607C158.815 174.45 158.948 174.328 159.085 174.243C159.222 174.154 159.364 174.103 159.509 174.088C159.655 174.071 159.801 174.094 159.947 174.157L159.754 175.169C159.405 175.023 159.099 175.059 158.836 175.276C158.576 175.493 158.368 175.92 158.21 176.558L157.975 178.508H156.937L157.469 174.106H158.009C158.12 174.106 158.206 174.133 158.266 174.187C158.329 174.241 158.36 174.328 158.36 174.448L158.33 175.164ZM159.561 177.925C159.561 177.836 159.577 177.752 159.608 177.672C159.643 177.592 159.688 177.524 159.745 177.466C159.805 177.409 159.875 177.363 159.956 177.329C160.036 177.295 160.121 177.278 160.213 177.278C160.301 177.278 160.386 177.295 160.466 177.329C160.546 177.363 160.614 177.409 160.671 177.466C160.731 177.524 160.779 177.592 160.813 177.672C160.847 177.752 160.864 177.836 160.864 177.925C160.864 178.017 160.847 178.102 160.813 178.182C160.779 178.259 160.731 178.327 160.671 178.384C160.614 178.441 160.546 178.485 160.466 178.517C160.386 178.551 160.301 178.568 160.213 178.568C160.121 178.568 160.036 178.551 159.956 178.517C159.875 178.485 159.805 178.441 159.745 178.384C159.688 178.327 159.643 178.259 159.608 178.182C159.577 178.102 159.561 178.017 159.561 177.925Z" fill="#0C213F"/>
<path fill-rule="evenodd" clip-rule="evenodd" d="M189.317 131.919L189.301 131.161C188.692 131.037 179.093 131.487 177.583 131.54C169.864 131.808 161.929 132.198 154.287 132.395C150.786 132.489 145.805 132.829 142.616 132.809L142.625 128.556L142.63 125.904L142.669 104.929L142.675 102.384L142.683 97.9206L142.688 95.3901L142.71 83.5282C143.584 83.755 144.815 84.297 145.681 84.6427C146.635 85.0216 147.597 85.3618 148.593 85.7462C150.515 86.4874 152.495 87.2397 154.415 87.9643C158.314 89.4384 162.189 90.8876 166.069 92.3838C169.952 93.88 173.866 95.285 177.707 96.8199C178.506 97.138 188.687 101.073 189.395 101.212C188.963 100.883 185.042 99.2205 184.184 98.8499C177.262 95.8575 170.182 92.5663 163.229 89.5297C160.286 88.2436 155.491 86.197 152.761 84.8668C151.093 84.0509 149.293 83.3705 147.589 82.5602C146.751 82.1592 145.819 81.7582 144.94 81.3793C142.199 80.2039 141.69 79.5512 138.944 79.7807L95.061 83.5337C94.7873 83.5586 94.5218 83.578 94.2314 83.5946C93.7031 83.6278 93.6893 83.5503 93.6063 83.9181C93.7335 84.1643 93.6312 84.0703 93.9216 84.1366L105.075 83.7992C108.779 83.5835 112.753 83.5918 116.495 83.4535L133.761 82.9363C135.611 82.8949 137.669 82.7095 139.513 82.7676L139.486 85.4144L139.157 121.431L139.129 125.229L139.016 135.55C138.227 135.594 137.931 135.423 137.14 135.691C136.598 135.874 135.943 135.849 135.365 135.923C132.027 136.344 127.649 136.518 124.626 137.312C123.285 137.666 122.914 137.976 122.444 139.115C122.209 139.682 121.993 139.9 121.744 140.39C121.174 141.502 120.27 143.23 119.025 143.618C118.475 143.786 116.097 144.143 115.538 144.079C115.413 143.493 115.488 142.293 115.438 141.604L115.314 136.576C115.331 135.168 115.449 135.415 114.833 134.505C114.553 134.648 114.736 134.463 114.598 134.743C114.83 135.074 114.689 140.86 114.67 141.784C114.611 144.704 115.024 144.503 113.879 144.558C112.731 144.616 111.605 144.729 110.457 144.757C108.002 144.812 105.518 144.721 103.059 144.641L81.4319 144.035C79.0424 143.98 76.6086 143.872 74.2219 143.819C71.9236 143.77 69.2133 143.518 66.9593 143.62C67.2303 146.347 64.4923 144.03 64.9569 146.856C66.3342 147.348 68.7957 147.473 70.4163 147.716C70.5159 148.338 70.2836 149.519 70.6376 149.965C70.8063 150.136 71.647 150.073 71.9015 150.081L90.9402 150.836L101.016 151.223C101.256 151.234 101.499 151.251 101.737 151.262C102.725 151.306 102.315 151.068 102.443 149.284C102.913 149.143 109.94 149.179 111.561 149.035C112.496 148.95 113.419 148.778 114.351 148.687L114.327 152.476C112.128 152.866 110.781 153.065 108.403 152.976C106.306 152.899 104.202 152.874 102.122 152.808C98.0452 152.675 93.9022 152.338 89.8284 152.227C85.7934 152.116 81.5398 151.876 77.5102 151.635C76.0527 151.547 65.8253 151.281 65.4769 151.016L65.0648 151.079C64.5449 151.845 64.7274 154.348 64.8325 155.424C64.874 155.836 64.9265 156.24 65.0178 156.605C65.1256 157.036 65.286 157.418 65.5432 157.709C65.8005 157.999 66.1517 158.204 66.6412 158.273C69.5562 158.696 72.6565 158.701 75.5936 159.014C76.7718 161.868 78.4284 162.214 78.7769 162.637C77.1894 163.162 74.7888 163.876 71.7992 164.443C68.3753 165.093 66.1545 165.176 66.1434 165.53C66.1351 165.798 67.3824 166.218 73.323 166.868C74.5565 166.99 75.7845 167.109 77.0179 167.231C94.6545 168.636 119.897 168.414 148.557 160.386C163.234 156.27 175.755 150.966 185.979 145.747C186.211 145.636 186.386 145.553 186.505 145.498C186.624 145.443 186.687 145.41 186.687 145.41C186.85 144.762 186.424 144.558 186.048 144.295C186.076 143.985 186.211 143.734 186.352 143.521C187.041 143.438 187.434 143.731 187.531 143.062C187.777 141.363 187.47 134.61 187.072 132.945C186.762 131.659 186.469 132.256 189.32 131.919H189.317ZM102.147 148.491C101.829 148.72 86.9798 147.984 85.207 147.951L70.5021 147.357C70.2006 147.243 69.783 146.452 70.4468 145.966C70.6569 145.813 70.4661 145.841 70.8782 145.811L78.8322 146.179C81.6089 146.292 84.441 146.386 87.2287 146.527L102.086 147.022C102.6 147.169 102.293 148.388 102.147 148.493V148.491ZM70.7565 156.738C70.455 156.926 66.5555 156.663 66.2706 156.505C65.9858 156.348 66.2568 153.582 66.2568 153.582L71.7964 153.823C71.7964 153.823 71.0607 156.544 70.7565 156.735V156.738ZM90.0967 161.044C90.1188 160.776 90.4839 160.352 90.6139 159.904L91.0149 159.893H91.1062L95.5063 160.059C95.0306 160.347 90.9485 160.994 90.0967 161.044ZM107.816 158.173C107.407 158.303 101.942 158.204 101.533 157.988C101.126 157.769 100.296 154.987 100.296 154.987L108.049 155.261C108.049 155.261 108.228 158.043 107.816 158.173ZM133.974 146.557C134.38 146.336 137.071 145.772 137.71 145.747L137.727 146.508C136.717 146.682 134.82 147.304 133.916 147.326L133.974 146.557ZM115.062 150.612C115.38 150.465 119.366 149.619 119.825 149.602L119.783 150.554L115.026 151.397L115.062 150.612ZM119.407 158.856C117.408 159.255 115.743 160.397 114.141 159.943C114.122 159.935 114.08 159.943 114.064 159.913C114.05 159.882 114.011 159.896 113.986 159.882C114.376 159.202 114.631 159.097 115.079 159.022C116.365 158.806 118.262 157.982 119.407 157.797V158.859V158.856ZM124.059 140.667C122.17 142.932 121.509 149.439 121.235 152.562C121.025 154.954 121.465 155.443 119.615 155.537C119.551 154.506 120.245 151.251 120.458 150.037C120.82 147.996 122.123 141.706 123.625 140.517C124.792 139.591 126.789 138.767 128.301 139.049L128.531 139.126C128.542 139.104 128.578 139.148 128.6 139.162C128.26 139.303 127.58 139.22 127.123 139.27C126.158 139.375 124.482 140.166 124.062 140.669L124.059 140.667ZM126.244 160.419C123.929 158.488 123.854 151.112 126.047 148.764C127.765 146.922 129.565 150.012 129.665 151.696C129.416 151.383 128.467 148.745 126.982 150.637C126.249 151.572 125.987 153.267 126 154.694C126.042 158.516 128.304 161.055 129.709 157.031C129.74 157.955 128.293 162.134 126.241 160.422L126.244 160.419ZM136.781 153.745L133.208 154.733C133.108 154.675 132.887 153.878 133.493 153.696C134.206 153.48 136.784 152.772 137.265 152.741C137.298 153.463 137.514 153.543 136.778 153.745H136.781ZM144.099 152.534L137.395 154.204C137.851 152.894 137.846 153.389 137.97 151.627C138.042 150.609 138.014 149.558 138.017 148.532C138.017 147.467 138.238 144.848 137.998 144.207C137.818 143.723 137.572 143.75 137.248 143.413L138.814 142.871C140.244 142.437 142.318 141.853 143.75 141.596C147.127 140.996 146.469 144.29 146.466 146.784C146.461 150.515 147.055 151.801 144.096 152.534H144.099ZM151.494 153.176C150.197 153.95 149.525 150.803 149.425 149.699C149.575 150.097 149.791 150.346 150.031 150.346C150.49 150.346 150.866 149.431 150.869 148.3C150.869 147.188 150.515 146.286 150.067 146.25C150.051 146.242 150.031 146.237 150.012 146.228C149.995 146.237 149.981 146.248 149.968 146.256C149.76 146.3 149.575 146.533 149.439 146.881C149.511 145.786 150.241 142.398 151.588 143.441C153.391 144.837 153.198 152.161 151.497 153.176H151.494ZM159.136 150.944C157.949 151.945 157.1 148.792 157.067 147.683C157.214 148.051 157.421 148.278 157.645 148.278C158.099 148.278 158.466 147.373 158.469 146.261C158.469 145.147 158.104 144.24 157.651 144.24C157.438 144.24 157.244 144.439 157.097 144.762C157.12 143.819 157.927 140.791 159.127 141.718C160.77 142.981 160.745 149.577 159.133 150.944H159.136ZM161.785 146.61C161.572 145.462 161.545 142.658 161.18 140.561C161.022 139.657 160.826 138.711 160.339 138.017C159.772 137.209 158.959 137.06 158.121 137.854C157.078 138.841 156.472 140.841 156.06 142.514C155.399 145.18 155.513 146.615 155.159 148.289C154.926 147.824 154.805 146.09 154.702 145.415C153.021 134.311 148.845 138.446 147.658 144.801C147.564 145.31 147.304 147.293 147.171 147.559C146.812 144.27 148.269 139.3 150.369 138.117C152.31 137.021 153.521 139.087 154.058 140.384C154.827 142.24 154.744 143.734 155.015 145.742C155.294 145.205 155.3 143.593 155.424 142.885C155.582 141.991 155.792 141.12 156.052 140.296C156.508 138.858 157.487 136.745 159.083 136.703C162.864 136.607 161.857 146.427 161.785 146.61ZM162.413 145.105L162.407 144.422C162.737 144.378 163.226 144.469 163.467 144.339C163.832 144.049 163.381 143.844 163.035 143.753C163.151 143.219 163.337 143.382 163.353 142.586L163.364 138.429C163.373 137.705 163.179 137.835 163.168 137.201C163.16 136.761 163.176 136.313 163.176 135.871C163.176 135.323 163.063 134.978 163.37 134.668C163.793 134.242 163.478 134.383 163.635 133.598C164.371 133.504 164.003 133.589 164.357 133.885L165.92 133.943C166.083 134.798 165.956 140.412 165.953 142.058C165.953 142.431 165.989 143.034 165.942 143.382C165.876 143.897 165.743 143.783 165.751 144.508C166.21 144.599 167.001 144.16 166.974 144.605C166.924 145.404 162.767 145.155 162.41 145.108L162.413 145.105ZM176.935 143.053C175.755 143.313 169.192 144.951 168.589 144.89C168.475 144.566 168.473 142.921 168.589 142.567L176.897 141.048C177.018 141.46 176.982 142.594 176.938 143.056L176.935 143.053ZM176.93 137.848C175.677 138.158 174.067 138.446 172.745 138.7C171.988 138.847 169.092 139.641 168.561 139.444C168.511 138.968 168.547 138.473 168.539 137.992C168.531 137.334 168.412 137.259 169.111 137.157C170.953 136.891 175.746 136.106 176.98 136.067L176.93 137.848ZM177.798 137.328C177.655 138.7 177.657 140.318 177.447 141.626C176.642 140.196 177.494 134.648 178.255 133.285C178.315 133.512 177.854 136.756 177.798 137.331V137.328ZM179.405 144.298C178.739 144.043 178.603 143.053 178.451 142.254C178.526 142.345 178.609 142.395 178.697 142.395C179.015 142.395 179.275 141.74 179.275 140.932C179.275 140.122 179.021 139.466 178.703 139.466C178.622 139.466 178.545 139.508 178.476 139.582C178.575 138.736 178.827 137.735 179.505 137.605C180.672 138.39 180.829 143.584 179.402 144.301L179.405 144.298ZM182.735 143.335C182.157 143.056 181.858 142.027 181.864 141.283C181.941 141.377 182.027 141.43 182.115 141.43C182.434 141.43 182.694 140.799 182.694 140.019C182.694 139.239 182.439 138.606 182.121 138.606C182.027 138.606 181.936 138.664 181.856 138.764C181.952 136.792 183.172 135.368 183.601 138.634C183.764 139.878 183.803 142.838 182.735 143.338V143.335ZM185.786 142.55C185.177 142.301 184.961 141.328 184.906 140.539C184.972 140.606 185.044 140.642 185.122 140.642C185.199 140.642 185.274 140.603 185.343 140.534H185.351V140.52C185.556 140.299 185.697 139.804 185.697 139.228C185.697 138.628 185.548 138.114 185.329 137.909C185.324 137.895 185.318 137.884 185.31 137.87H185.288C185.235 137.835 185.18 137.812 185.125 137.812C185.047 137.812 184.975 137.851 184.909 137.917C184.942 137.149 185.423 135.213 186.112 136.131C186.867 137.138 187.016 141.919 185.786 142.544V142.55Z" fill="#0C213F"/>
<path fill-rule="evenodd" clip-rule="evenodd" d="M130.442 108.588C130.392 107.647 130.517 106.132 129.845 105.698C129.231 105.305 113.187 103.457 110.457 103.319C108.126 103.2 105.579 103.214 103.225 103.261C101.734 103.347 99.9423 103.314 98.4184 103.325C94.8452 103.35 65.828 104.224 65.2334 104.456C65.1172 104.796 65.0868 106.079 65.1449 106.472L67.0753 106.815C67.0504 107.526 66.7877 108.519 66.6577 109.274C66.5277 110.043 66.4115 110.881 66.3673 111.719C65.9165 111.879 64.3318 111.611 63.9667 112.952C63.8091 113.527 63.9225 118.989 63.9667 119.921C64.0331 121.213 64.6194 121.362 65.7671 121.642C65.8556 122.588 65.5653 122.684 65.5514 123.373C66.1516 123.508 68.6213 123.713 68.9062 123.871C69.2242 124.72 68.9145 127.732 69.2242 128.918C70.0484 129.04 76.4702 129.087 77.7563 129.087C83.3927 129.087 89.2309 129.272 94.8563 129.28C97.5998 129.28 100.628 129.499 103.339 129.38C103.659 128.241 103.455 125.508 103.831 124.548C104.168 123.697 105.579 123.885 107.158 123.763C107.805 123.713 108.328 123.78 108.22 123.522L101.109 123.572C100.91 123.132 100.861 123.207 100.316 123.044L93.0807 121.169L102.077 106.785C104.796 106.776 107.548 106.771 110.051 106.691C111.577 106.644 112.355 105.75 113.502 106.013C113.668 106.608 113.605 109.343 113.591 110.181C113.566 111.533 113.37 112.814 113.345 114.241C113.32 116.055 113.132 121.124 113.231 122.56C113.724 122.513 114.47 122.167 114.907 122.214C115.541 122.286 115.278 122.803 116.207 122.812C118.76 122.834 118.115 122.643 118.597 121.819C119.031 121.072 120.765 121.716 122.336 121.418C123.779 121.144 123.464 119.874 123.979 119.545C124.128 119.451 127.933 118.157 129.134 117.501C131.014 116.475 130.558 110.745 130.436 108.591L130.442 108.588ZM65.8529 119.678C65.604 119.249 65.6289 117.004 65.6344 116.359C65.6344 115.541 65.6261 113.746 66.0575 113.179C66.146 113.771 65.9967 119.404 65.8529 119.675V119.678ZM70.3415 118.221C70.3498 117.764 70.3332 116.589 70.372 115.579V115.574C70.372 115.535 70.3775 115.496 70.3775 115.46V115.452C70.3858 115.247 70.3996 115.051 70.4134 114.874L70.5434 112.681C70.5351 112.302 70.5683 111.832 70.6181 111.453L70.8089 109.752C70.8006 109.276 70.8698 108.651 70.9915 108.104C71.0966 107.639 71.2404 107.23 71.4146 107.009C72.8196 105.214 78.7574 106.414 79.045 106.632C79.5899 107.056 79.4461 107.844 79.341 108.508C79.2331 109.18 79.2414 109.655 79.2331 109.99C79.2331 110.04 79.2331 110.084 79.2276 110.125L79.1335 113.242V113.267L79.0782 114.968C79.1667 116.033 79.1391 118.292 79.0478 118.743C78.5777 119.02 76.2047 119.551 75.4774 119.739L70.9693 120.917C70.4605 121.003 70.4245 120.892 70.3803 120.433C70.3194 119.794 70.3305 118.87 70.3415 118.218V118.221ZM69.5672 128.169C69.3127 127.95 69.4289 125.099 69.451 124.83L73.4667 124.797C73.1902 125.027 72.9081 124.949 72.6813 125.201C72.9717 125.395 73.0132 125.262 73.3395 125.547C73.5027 125.691 73.6935 125.915 73.7931 126.172C74.0669 126.869 73.8152 127.389 73.7986 128.05L74.4762 128.257C73.8705 128.318 69.8271 128.335 69.5699 128.171L69.5672 128.169ZM102.89 126.578C102.885 128.96 103.438 128.614 97.3537 128.606L95.5283 128.561L98.1502 128.31C98.2055 127.884 97.9842 127.444 98.0008 126.924C98.0174 126.31 98.3382 126.081 98.3493 125.724L94.7069 125.715C94.8784 125.536 96.2087 125.137 96.5682 125.019C97.4394 124.736 97.9372 124.695 98.9356 124.698C103.153 124.706 102.896 124.413 102.893 126.584L102.89 126.578ZM99.6409 123.973C97.5085 124.02 95.3181 124.158 93.1499 124.205C86.5317 124.349 79.5318 124.255 72.9551 123.929C74.2052 123.655 77.9858 123.86 79.5207 123.86L92.9231 123.918C94.978 123.923 97.6662 123.755 99.6381 123.973H99.6409ZM115.521 120.281L114.564 120.3L114.437 119.808C114.338 118.204 114.6 118.868 113.978 118.389L114.235 105.983C114.664 105.839 115.181 105.894 115.615 105.924C115.668 107.495 115.734 119.681 115.521 120.281ZM123.874 117.098C123.575 116.329 123.857 113.851 123.68 112.792C123.428 111.282 121.899 111.439 120.309 111.436C118.445 111.436 117.618 111.32 117.471 113.187L117.358 116.542C117.344 117.427 117.358 117.266 117.255 117.565C117.247 117.582 117.236 117.612 117.225 117.634C117.095 116.506 117.017 114.075 117.142 112.919C117.333 111.165 118.428 111.063 120.22 111.046C121.882 111.027 123.439 111.066 123.887 112.352C124.078 112.908 123.929 116.318 123.879 117.1L123.874 117.098ZM124.399 115.552L124.288 106.754C124.288 105.648 123.749 105.75 123.099 105.335C124.604 105.446 124.615 106.392 124.612 107.813C124.612 109.083 124.703 114.595 124.396 115.552H124.399Z" fill="#0C213F"/>
<path fill-rule="evenodd" clip-rule="evenodd" d="M100.363 95.8936L92.0491 96.2227C91.4462 96.2393 91.3245 96.2863 90.8073 96.4053C90.4533 96.4855 89.9334 96.4855 89.5573 96.5131C88.6557 96.5795 87.7485 96.632 86.8607 96.6846C85.3839 96.7676 85.2318 96.6265 84.568 97.2598C84.8418 96.4633 85.099 96.4357 85.6826 96.0125C86.0255 95.7636 87.1373 92.9288 90.0302 91.0731C90.4976 90.7744 90.9373 90.5227 91.4822 90.2517C94.4912 88.761 96.3857 89.0237 99.4942 88.8495C106.978 88.4291 114.454 88.2162 122.015 87.7709C123.511 87.6824 124.9 87.5607 126.354 87.4197C128.55 87.2039 133.111 86.471 134.131 88.5785C134.635 89.6183 135.301 94.8399 135.481 96.2725C136.031 100.639 135.536 99.0879 136.521 99.8236C134.535 99.8485 130.799 99.0299 129.46 98.9939L129.402 99.1737C129.432 100.595 130.342 100.424 132.801 100.62C133.982 100.714 136.026 100.792 137.068 101.005C137.079 101.027 137.088 101.057 137.093 101.076C137.218 101.558 137.115 101.92 137.179 103.247L137.303 106.55C137.386 106.436 137.348 106.514 137.403 106.326C137.425 106.251 137.433 106.176 137.442 106.099C137.456 105.969 137.45 105.77 137.453 105.631L137.566 101.743C137.572 101.312 137.555 101.284 137.721 101.054C137.989 100.684 137.973 99.724 137.934 99.229C137.693 99.0492 137.234 98.8888 136.944 98.7865C136.548 95.7526 136.41 92.7546 135.89 89.7317C135.296 86.2691 133.304 85.5943 129.413 85.7271C127.848 85.7713 126.252 86.0285 124.604 86.1143L100.014 87.3865C96.3829 87.5967 94.3252 87.4888 91.2803 88.902C86.4597 91.1395 85.3452 94.7597 84.8335 95.1967C83.0193 96.7482 84.2389 96.8561 82.8035 96.9556C79.1695 97.2128 74.3655 98.0646 71.4035 99.6549C68.353 101.292 68.5134 102.271 67.7335 102.293C66.901 102.318 65.9552 102.108 65.4546 103.784C65.8114 103.532 65.8556 103.032 66.3839 102.714C66.9038 102.401 67.6782 102.653 68.2894 102.581C72.0424 97.5751 81.0252 98.3025 86.7086 97.5336C89.5268 97.152 97.0024 96.8754 100 96.8008C103.322 96.7178 106.436 96.538 109.702 96.4163C110.524 96.3859 111.284 96.361 112.108 96.3665C112.808 96.3721 113.848 96.4716 114.495 96.3859C114.625 94.7708 102.099 95.8383 100.36 95.8908L100.363 95.8936Z" fill="#0C213F"/>
<path fill-rule="evenodd" clip-rule="evenodd" d="M127.812 134.535L123.157 135.387C122.77 135.45 121.96 135.417 121.675 135.705C122.103 135.887 128.44 135.406 129.684 135.334C130.624 135.279 131.33 135.193 132.248 135.061C133.952 134.814 133.553 132.978 133.503 130.782C133.484 129.886 133.468 129.023 133.443 128.133C133.398 126.434 132.594 126.177 131.053 126.587C130.447 126.747 127.759 127.35 127.383 127.718C128.42 127.69 131.631 127.015 132.245 127.206C132.718 127.602 132.444 129.692 132.428 130.428C132.406 131.407 132.508 133.05 132.353 133.94C132.005 134.115 128.301 134.601 127.815 134.535H127.812Z" fill="#0C213F"/>
<path fill-rule="evenodd" clip-rule="evenodd" d="M123.431 123.536L117.098 125.149C115.408 125.613 113.87 125.799 113.121 127.176C112.949 127.494 112.628 128.18 112.792 128.503C113.287 128.122 113.115 127.129 114.379 126.612C115.032 126.343 116.481 126.169 117.258 126.014C121.16 125.226 124.858 124.391 128.664 123.323L134.012 121.75C133.905 121.642 134.001 121.517 133.299 121.656C133.075 121.7 132.903 121.741 132.674 121.78C132.217 121.86 131.805 121.916 131.332 121.988C128.523 122.419 125.735 123.177 123.428 123.539L123.431 123.536Z" fill="#0C213F"/>
<path fill-rule="evenodd" clip-rule="evenodd" d="M64.7328 142.224C64.9015 143.001 66.0022 143.112 66.3368 142.464C66.5304 142.088 66.5083 135.642 66.4171 135.207C66.2511 134.419 65.1891 134.405 64.8628 134.95C64.5917 135.401 64.6581 141.884 64.7328 142.227V142.224Z" fill="#0C213F"/>
<path fill-rule="evenodd" clip-rule="evenodd" d="M126.022 128.03C124.487 127.939 123.542 129.444 123.26 130.785C122.834 132.807 123.354 132.483 124.147 132.419C124.554 132.386 124.991 132.353 125.395 132.325C125.995 132.284 126.169 132.35 126.169 131.742C126.169 130.865 126.205 128.727 126.025 128.03H126.022Z" fill="#0C213F"/>
<path fill-rule="evenodd" clip-rule="evenodd" d="M105.847 135.583C105.183 135.733 104.608 135.97 104.431 136.546C105.623 135.827 105.059 135.865 107.141 135.896C108.079 135.91 109.429 135.871 110.322 136.015L110.261 143.709C109.78 143.83 105.205 144.273 104.86 144.193C104.619 143.947 104.567 143.795 104.437 143.396L104.367 143.618C104.426 143.969 104.594 144.196 104.721 144.406C105.631 144.597 108.665 144.342 109.736 144.27C110.77 144.201 110.867 143.886 110.869 142.923C110.872 142.099 110.889 141.278 110.889 140.454C110.9 135.025 111.362 135.448 108.342 135.489C107.498 135.5 106.666 135.536 105.847 135.583Z" fill="#0C213F"/>
<path fill-rule="evenodd" clip-rule="evenodd" d="M129.302 95.7276C128.899 95.9212 127.881 96.1065 127.369 96.2586C124.996 96.9749 125.284 97.0468 123.013 96.856C122.596 96.82 122.222 96.7868 121.816 96.7509C121.39 96.7121 120.964 96.5849 120.685 96.8062C122.319 97.2127 123.636 97.1934 124.391 97.9346C125.4 98.9274 125.085 98.9772 125.458 99.3008C125.807 99.6023 126.971 99.6825 127.519 99.5525L127.079 99.4363C125.223 99.1515 125.87 99.0491 125.323 98.1918C125.104 97.8488 125.032 97.9595 124.933 97.5612C126.183 97.3676 132.463 95.487 132.989 94.9338L129.305 95.7276H129.302Z" fill="#0C213F"/>
<path fill-rule="evenodd" clip-rule="evenodd" d="M114.429 94.7734C115.112 94.5936 115.599 94.0129 115.889 93.4818C116.65 92.1046 117.247 91.3882 118.165 90.1824C118.406 89.8671 119.332 88.9628 119.374 88.6973C119.047 88.7692 118.204 89.527 117.889 89.8257C116.132 91.4906 115.446 93.6035 115.117 93.9797C114.83 94.3088 114.595 94.4 114.429 94.7706V94.7734Z" fill="#0C213F"/>
<path fill-rule="evenodd" clip-rule="evenodd" d="M91.5319 95.2655C91.9136 94.823 93.3407 92.0684 94.4137 91.1115C94.6433 90.9068 94.8064 90.7354 95.0277 90.5556C95.3126 90.3233 95.5449 90.2514 95.697 89.9084C93.2881 90.6026 91.33 94.4054 91.5319 95.2655Z" fill="#0C213F"/>
<path fill-rule="evenodd" clip-rule="evenodd" d="M95.2324 100.122C95.5643 99.6768 95.91 99.3118 96.2778 99.002C96.6594 98.6785 97.0439 98.3825 97.5693 98.1198C97.7906 98.0092 98.0782 97.8902 98.341 97.7962C98.8913 97.6026 98.8747 97.6745 99.0683 97.3979C97.691 97.456 96.5709 98.0534 95.838 98.6674C95.5034 98.9467 95.1273 99.4445 94.8507 99.9313C94.6516 100.28 94.2146 101.074 94.3557 101.411L95.2351 100.122H95.2324Z" fill="#0C213F"/>
<path fill-rule="evenodd" clip-rule="evenodd" d="M109.149 101.137C109.633 100.803 110.073 98.4076 113.154 97.5862C113.004 97.4479 113.317 97.4009 112.678 97.4562L111.539 97.8047C110.283 98.3412 109.055 99.8734 109.149 101.14V101.137Z" fill="#0C213F"/>
<path fill-rule="evenodd" clip-rule="evenodd" d="M100.335 101.25C100.686 101.093 100.968 100.562 101.167 100.244C101.427 99.8262 101.632 99.5634 101.906 99.1818C102.617 98.2 103.408 97.6662 103.56 97.3094C102.429 97.2901 100.631 99.7045 100.335 101.25Z" fill="#0C213F"/>
<path fill-rule="evenodd" clip-rule="evenodd" d="M106.464 101.121C106.74 100.905 106.917 100.357 107.105 100.006C107.437 99.3865 108.131 98.4683 108.665 98.0534C108.917 97.8571 109.464 97.575 109.617 97.2791C107.398 97.4865 106.182 100.498 106.461 101.121H106.464Z" fill="#0C213F"/>
<path fill-rule="evenodd" clip-rule="evenodd" d="M103.175 101.101C103.574 100.874 103.764 100.014 104.627 98.9579C105.014 98.4849 105.579 98.0756 106.176 97.788C106.522 97.6221 106.508 97.694 106.649 97.4395C104.865 97.4257 103.402 99.1653 103.175 101.101Z" fill="#0C213F"/>
<path fill-rule="evenodd" clip-rule="evenodd" d="M82.9004 101.397C83.2793 101.328 83.1548 101.322 83.6831 100.548C83.8656 100.28 84.1283 99.9175 84.333 99.6658C85.2512 98.5374 85.7518 98.6398 85.9675 98.1724C84.4851 98.2249 83.1963 100.023 82.9004 101.397Z" fill="#0C213F"/>
<path fill-rule="evenodd" clip-rule="evenodd" d="M77.7341 101.892C78.0439 101.742 78.2292 101.27 78.4228 100.985C79.5318 99.3419 80.3698 99.0266 80.7238 98.6394C80.0462 98.3408 77.9305 99.9199 77.7369 101.892H77.7341Z" fill="#0C213F"/>
<path fill-rule="evenodd" clip-rule="evenodd" d="M142.686 95.3848L188.822 107.034L141.502 97.6858L142.686 95.3848Z" fill="#0C213F"/>
<path fill-rule="evenodd" clip-rule="evenodd" d="M142.625 128.559L189.469 126.905L140.492 125.859L142.625 128.559Z" fill="#0C213F"/>
<path fill-rule="evenodd" clip-rule="evenodd" d="M142.672 102.384L182.583 109.066L141.579 104.815L142.672 102.384Z" fill="#0C213F"/>
<path fill-rule="evenodd" clip-rule="evenodd" d="M102.288 131.169C102.146 130.876 101.864 130.699 101.524 130.694L71.0329 130.273C70.5959 130.265 70.2308 130.572 70.1755 130.984C70.0815 131.684 70.2087 132.447 70.2474 133.15C70.2557 133.34 70.2474 133.52 70.2723 133.692L70.3525 134.992C70.347 135.036 70.347 135.086 70.3525 135.133L70.4853 137.594C70.4908 137.677 70.5046 137.757 70.5323 137.826L70.6401 139.558L70.701 141.632C70.7121 142.019 70.9969 142.337 71.3952 142.409C71.5501 142.437 71.7409 142.442 71.8985 142.451C72.1972 142.464 72.4931 142.475 72.7918 142.489C73.7875 142.528 74.7831 142.558 75.7787 142.589C78.7131 142.683 81.6474 142.766 84.5846 142.846C88.8658 142.965 93.1498 143.067 97.4283 143.2C98.009 143.219 98.5926 143.253 99.1761 143.275C99.5633 143.289 99.9561 143.3 100.343 143.302C100.631 143.302 100.982 143.302 101.264 143.244C101.557 143.183 101.781 143.001 101.886 142.733C101.956 142.553 102.016 142.243 102.066 141.881C102.113 141.519 102.146 141.104 102.16 140.716L102.335 137.943C102.343 137.865 102.346 137.79 102.348 137.713L102.448 134.248V134.225C102.459 133.462 102.603 131.808 102.293 131.169H102.288ZM101.079 142.448C100.567 142.553 98.186 142.406 97.4504 142.387C94.9585 142.309 72.1308 141.718 71.5501 141.61L71.4726 138.991L101.261 139.724C101.391 140.169 101.225 142.063 101.076 142.448H101.079ZM101.389 138.241C101.237 138.404 94.1344 138.161 93.9435 138.155C91.4296 138.095 88.9211 138.053 86.4154 137.995C83.9015 137.934 81.3792 137.918 78.8514 137.832C78.4974 137.821 71.7575 137.738 71.503 137.647C71.3482 137.591 71.4339 137.627 71.3316 137.55L71.1988 135.088L101.474 135.719C101.275 136.355 101.657 137.691 101.386 138.244L101.389 138.241ZM101.588 134.214C98.8968 134.297 95.9901 134.118 93.2825 134.107C90.4975 134.096 87.6849 134.051 84.9192 133.979C82.1287 133.905 79.3464 133.93 76.5559 133.86C75.1786 133.827 73.8372 133.827 72.4572 133.8C70.9139 133.769 71.1435 133.913 71.102 133.108C71.0688 132.514 70.9499 131.651 71.0246 131.089L101.516 131.51C101.712 131.916 101.599 133.659 101.593 134.212L101.588 134.214Z" fill="#0C213F"/>
<path fill-rule="evenodd" clip-rule="evenodd" d="M66.4447 135.55L66.3396 124.988L65.7312 135.553L66.4447 135.55Z" fill="#0C213F"/>
<path d="M75.1564 162.576L74.1414 161.417C71.9704 161.014 69.0775 160.435 65.6923 159.636C61.4166 158.63 54.4057 156.812 45.6192 153.662C45.445 153.602 45.2459 153.527 44.9721 153.427C37.7178 150.789 31.9514 148.034 27.5263 145.634C25.8227 144.727 24.4592 143.855 23.4774 143.186C20.7035 141.292 18.8118 139.524 17.4594 138.067C15.7281 136.203 15.2579 135.254 14.9841 134.447C14.796 133.888 14.3646 132.56 14.6826 130.945C15.0422 129.123 16.1457 127.981 16.9671 127.156C18.6265 125.486 20.3882 124.797 23.1815 123.702C24.9045 123.027 26.7077 122.507 27.2608 122.35C28.1043 122.109 28.8207 121.927 29.3489 121.799C28.9257 121.874 23.0404 122.939 19.2764 124.402C18.5214 124.695 17.1938 125.218 15.6119 126.199C14.8873 126.65 14.4365 126.93 13.8889 127.408C13.2749 127.945 11.61 129.441 11.0984 131.85C11.0486 132.085 10.8494 133.083 11.0375 134.48C11.527 138.081 14.0963 140.567 16.1208 142.525C17.7027 144.057 19.3234 145.219 20.5099 146.068C21.5719 146.828 22.4873 147.423 23.14 147.83C25.123 149 26.7962 149.898 27.9799 150.515C33.0161 153.137 37.4578 154.926 40.1294 155.994C46.3825 158.397 55.3737 161.412 66.9147 163.901C69.6638 163.458 72.4101 163.016 75.1592 162.573L75.1564 162.576Z" fill="#E2A827"/>
<path d="M64.8821 144.851C64.6719 144.801 63.9944 144.619 63.4993 143.974C63.173 143.551 63.0706 143.114 63.0374 142.885V141.012C58.629 139.909 55.0032 138.852 52.3675 138.042C50.3293 137.417 48.5897 136.792 45.1077 135.539C45.1077 135.539 40.4891 133.874 36.8688 131.048C36.3848 130.669 35.6519 130.024 35.3118 128.985C35.2454 128.777 35.1016 128.282 35.1348 127.768C35.1597 127.411 35.3228 126.158 37.7621 124.595C39.1588 123.699 40.6191 123.138 44.2614 122.314C47.0464 121.683 49.0045 121.365 49.0045 121.365C51.4438 120.972 54.7958 120.511 58.9111 120.187C54.5801 120.5 50.1467 120.837 45.6138 121.202C42.0627 121.487 39.6511 121.694 36.3738 122.234C35.7736 122.33 32.7121 122.845 28.7682 123.921C25.0318 124.941 23.7486 125.577 22.9493 126.023C21.3756 126.902 18.9474 128.301 18.3804 130.826C18.3804 130.826 18.2588 131.369 18.2615 131.947C18.2864 136.457 26.5529 141.79 26.5529 141.79C31.6224 145.061 35.7847 146.718 41.7143 149.044C43.3681 149.691 48.9686 151.856 56.6211 154.077C59.3287 154.863 61.6297 155.463 63.3251 155.886C63.278 152.75 63.231 149.611 63.1785 146.472C63.2144 146.298 63.3389 145.791 63.7952 145.368C64.2239 144.967 64.6996 144.87 64.8794 144.843L64.8821 144.851ZM33.1103 123.887C33.2901 124.017 33.4671 124.147 33.6441 124.277C32.7563 124.587 31.863 124.897 30.9752 125.209C30.7678 125.06 30.5576 124.908 30.3502 124.756C31.2711 124.465 32.1893 124.178 33.1103 123.885V123.887ZM29.0918 125.063L30.3502 125.624L27.7173 128.022L26.2045 127.513L29.0946 125.06L29.0918 125.063ZM25.466 132.223C25.3416 131.808 25.2227 131.335 25.1369 130.802C25.0235 130.094 24.9904 129.452 24.9959 128.91H27.0729C27.0535 129.311 27.0674 129.872 27.2305 130.522C27.3965 131.203 27.662 131.728 27.8777 132.082L25.4688 132.226L25.466 132.223ZM30.9835 137.174L27.0729 133.938L29.4375 133.526L34.0728 136.905L30.9835 137.174ZM34.0174 123.55L38.8352 122.27L39.1477 122.668L34.5374 124.006L34.0174 123.55ZM41.5704 142.533L34.6038 139.035L37.7179 138.263L44.8643 141.521L41.5732 142.533H41.5704ZM56.3888 147.437C53.1253 146.369 49.8591 145.299 46.5956 144.232C47.7766 143.847 48.952 143.465 50.1329 143.084L59.5472 146.173C58.4935 146.596 57.4425 147.014 56.3888 147.437Z" fill="#0C213F"/>
<path d="M44.0732 95.6777C43.9017 95.4897 40.6908 92.0851 35.8343 92.5028C33.0991 92.7378 31.271 94.0653 30.8921 94.3502C29.3212 95.5311 28.3781 97.044 27.8084 98.4904C26.8487 100.932 26.8349 103.64 27.6065 106.148C27.7033 106.467 27.8139 106.796 27.9411 107.136C28.3062 108.112 28.6657 108.815 30.8229 112.421C32.2694 114.835 32.9912 116.044 33.6799 117.117C34.8442 118.923 35.9256 120.494 36.8659 121.805C38.2625 119.744 39.4324 117.919 40.3672 116.417C41.9796 113.82 41.4154 114.562 43.6417 110.889C44.6346 109.252 45.1407 108.458 45.6496 107.136C46.2027 105.695 46.4516 104.428 46.5733 103.557C46.6452 102.96 47.049 98.9467 44.0732 95.6805V95.6777ZM36.7995 107.697C33.9509 107.697 31.6443 105.391 31.6443 102.542C31.6443 99.6934 33.9509 97.3869 36.7995 97.3869C39.6481 97.3869 41.9547 99.6934 41.9547 102.542C41.9547 105.391 39.6454 107.697 36.7995 107.697Z" fill="#E2A827"/>
<path d="M41.7088 41.8638L41.0368 44.6571H4.9035L24.0778 78.8627L21.1019 79.272L0 41.8638H41.7088Z" fill="#E2A827"/>
<path d="M184.367 41.8386L183.354 44.8034H198.928L175.815 86.739L178.127 88.0886L204 41.8386H184.367Z" fill="#E2A827"/>
<path d="M76.3899 184.923C84.3301 194.959 92.273 204.996 100.213 215.032C108.153 205.023 116.096 195.012 124.037 185.003L120.856 184.925C113.975 193.504 107.094 202.081 100.213 210.66C93.3682 202.081 86.5232 193.504 79.6783 184.925H76.3899V184.923Z" fill="#E2A827"/>
</svg>
