<svg width="32" height="32" viewBox="0 0 32 32" fill="none" xmlns="http://www.w3.org/2000/svg">
<rect width="32" height="32" rx="8" fill="#ECFDF5"/>
<path d="M10.9375 10.5H16C16.7425 10.5 16.7425 9.375 16 9.375H10.9375C10.195 9.375 10.195 10.5 10.9375 10.5ZM13.1875 11.625H10.9375C10.195 11.625 10.195 12.75 10.9375 12.75H13.1875C13.93 12.75 13.93 11.625 13.1875 11.625ZM10.9375 15H12.0625C12.805 15 12.805 13.875 12.0625 13.875H10.9375C10.195 13.875 10.195 15 10.9375 15ZM10.9375 17.25H12.0625C12.805 17.25 12.805 16.125 12.0625 16.125H10.9375C10.195 16.125 10.195 17.25 10.9375 17.25ZM12.625 18.375H10.9375C10.195 18.375 10.195 19.5 10.9375 19.5H12.625C13.3675 19.5 13.3675 18.375 12.625 18.375Z" fill="#059669"/>
<path d="M23.8244 14.055C23.7738 13.5319 23.3744 13.1156 22.8512 13.0425C21.0738 12.7894 19.9488 12.1706 19.4369 11.8219C19.2456 11.6925 19.0262 11.6306 18.8125 11.6306V8.8125C18.8125 7.88438 18.0531 7.125 17.125 7.125H9.8125C8.88438 7.125 8.125 7.88438 8.125 8.8125V20.0625C8.125 20.9906 8.88438 21.75 9.8125 21.75H16.4444C17.0631 22.2619 18.0138 22.875 18.8125 22.875C20.4663 22.875 24.3981 20.1244 23.8244 14.055ZM9.25 20.0625V8.8125C9.25 8.50312 9.50312 8.25 9.8125 8.25H17.125C17.4344 8.25 17.6875 8.50312 17.6875 8.8125V12.12C17.0688 12.4519 16.1012 12.8513 14.7737 13.0425C14.2506 13.1156 13.8513 13.5319 13.8006 14.055C13.6769 15.36 13.6375 18.3356 15.37 20.625H9.8125C9.50312 20.625 9.25 20.3719 9.25 20.0625ZM18.3737 21.6544C15.55 20.3325 14.6219 17.2163 14.9313 14.1562C16.5794 13.92 17.935 13.3519 18.8069 12.75C19.4031 13.155 20.6969 13.8694 22.6937 14.1562H22.705C23.2281 19.6912 19.5325 22.1944 18.3737 21.6544Z" fill="#059669"/>
<path d="M20.1006 15.7252L18.25 17.5758L17.5244 16.8502C16.9956 16.3214 16.2025 17.1202 16.7313 17.6433L17.8563 18.7683C18.0756 18.9877 18.43 18.9877 18.6494 18.7683L20.8994 16.5183C21.4281 15.9895 20.6294 15.1964 20.1063 15.7252H20.1006Z" fill="#059669"/>
</svg>
