<svg width="32" height="32" viewBox="0 0 32 32" fill="none" xmlns="http://www.w3.org/2000/svg">
<rect width="32" height="32" rx="8" fill="#ECFDF5"/>
<path d="M19.75 23.0625H9.25C8.90203 23.0621 8.56842 22.9237 8.32236 22.6776C8.07631 22.4316 7.9379 22.098 7.9375 21.75V8.25C7.9379 7.90203 8.07631 7.56842 8.32236 7.32236C8.56842 7.07631 8.90203 6.9379 9.25 6.9375H19.75C20.098 6.9379 20.4316 7.07631 20.6776 7.32236C20.9237 7.56842 21.0621 7.90203 21.0625 8.25V16.5C21.0625 16.6492 21.0032 16.7923 20.8977 16.8977C20.7923 17.0032 20.6492 17.0625 20.5 17.0625C20.3508 17.0625 20.2077 17.0032 20.1023 16.8977C19.9968 16.7923 19.9375 16.6492 19.9375 16.5V8.25C19.9369 8.20045 19.917 8.1531 19.8819 8.11806C19.8469 8.08303 19.7995 8.06308 19.75 8.0625H9.25C9.20045 8.06308 9.1531 8.08303 9.11806 8.11806C9.08303 8.1531 9.06308 8.20045 9.0625 8.25V21.75C9.06308 21.7995 9.08303 21.8469 9.11806 21.8819C9.1531 21.917 9.20045 21.9369 9.25 21.9375H19.75C19.8909 21.8816 20.0481 21.8829 20.1881 21.941C20.3282 21.9991 20.44 22.1095 20.5 22.2488C20.5292 22.3158 20.5447 22.388 20.5457 22.4611C20.5467 22.5342 20.5331 22.6067 20.5057 22.6745C20.4783 22.7423 20.4377 22.804 20.3863 22.8559C20.3348 22.9078 20.2735 22.949 20.206 22.977C20.0609 23.0345 19.9061 23.0635 19.75 23.0625Z" fill="#059669"/>
<path d="M17.875 11.0625H11.125C10.9758 11.0625 10.8327 11.0032 10.7273 10.8977C10.6218 10.7923 10.5625 10.6492 10.5625 10.5C10.5625 10.3508 10.6218 10.2077 10.7273 10.1023C10.8327 9.99676 10.9758 9.9375 11.125 9.9375H17.875C18.0242 9.9375 18.1673 9.99676 18.2727 10.1023C18.3782 10.2077 18.4375 10.3508 18.4375 10.5C18.4375 10.6492 18.3782 10.7923 18.2727 10.8977C18.1673 11.0032 18.0242 11.0625 17.875 11.0625ZM17.875 14.0625H11.125C10.9758 14.0625 10.8327 14.0032 10.7273 13.8977C10.6218 13.7923 10.5625 13.6492 10.5625 13.5C10.5625 13.3508 10.6218 13.2077 10.7273 13.1023C10.8327 12.9968 10.9758 12.9375 11.125 12.9375H17.875C18.0242 12.9375 18.1673 12.9968 18.2727 13.1023C18.3782 13.2077 18.4375 13.3508 18.4375 13.5C18.4375 13.6492 18.3782 13.7923 18.2727 13.8977C18.1673 14.0032 18.0242 14.0625 17.875 14.0625ZM16 17.0625H11.125C10.9758 17.0625 10.8327 17.0032 10.7273 16.8977C10.6218 16.7923 10.5625 16.6492 10.5625 16.5C10.5625 16.3508 10.6218 16.2077 10.7273 16.1023C10.8327 15.9968 10.9758 15.9375 11.125 15.9375H16C16.1492 15.9375 16.2923 15.9968 16.3977 16.1023C16.5032 16.2077 16.5625 16.3508 16.5625 16.5C16.5625 16.6492 16.5032 16.7923 16.3977 16.8977C16.2923 17.0032 16.1492 17.0625 16 17.0625ZM15.25 20.0625H11.125C10.9758 20.0625 10.8327 20.0032 10.7273 19.8977C10.6218 19.7923 10.5625 19.6492 10.5625 19.5C10.5625 19.3508 10.6218 19.2077 10.7273 19.1023C10.8327 18.9968 10.9758 18.9375 11.125 18.9375H15.25C15.3992 18.9375 15.5423 18.9968 15.6477 19.1023C15.7532 19.2077 15.8125 19.3508 15.8125 19.5C15.8125 19.6492 15.7532 19.7923 15.6477 19.8977C15.5423 20.0032 15.3992 20.0625 15.25 20.0625ZM20.5 23.0625C19.7954 23.0625 19.1066 22.8536 18.5208 22.4621C17.9349 22.0707 17.4783 21.5143 17.2087 20.8633C16.939 20.2123 16.8685 19.496 17.006 18.805C17.1434 18.1139 17.4827 17.4792 17.9809 16.9809C18.4792 16.4827 19.1139 16.1434 19.805 16.006C20.496 15.8685 21.2123 15.939 21.8633 16.2087C22.5143 16.4783 23.0707 16.9349 23.4621 17.5208C23.8536 18.1066 24.0625 18.7954 24.0625 19.5C24.0615 20.4445 23.6859 21.3501 23.018 22.018C22.3501 22.6859 21.4445 23.0615 20.5 23.0625ZM20.5 17.0625C20.0179 17.0625 19.5466 17.2055 19.1458 17.4733C18.745 17.7411 18.4325 18.1218 18.248 18.5672C18.0636 19.0126 18.0153 19.5027 18.1093 19.9755C18.2034 20.4484 18.4355 20.8827 18.7764 21.2236C19.1173 21.5645 19.5516 21.7966 20.0245 21.8907C20.4973 21.9847 20.9874 21.9364 21.4328 21.752C21.8782 21.5675 22.2589 21.255 22.5267 20.8542C22.7945 20.4534 22.9375 19.9821 22.9375 19.5C22.9367 18.8538 22.6796 18.2343 22.2227 17.7773C21.7657 17.3204 21.1462 17.0633 20.5 17.0625Z" fill="#059669"/>
<path d="M20.1251 20.8121C20.0513 20.8122 19.9781 20.7976 19.9099 20.7693C19.8417 20.741 19.7797 20.6995 19.7276 20.6471L18.9776 19.8971C18.9224 19.8456 18.878 19.7835 18.8473 19.7145C18.8165 19.6455 18.8 19.5711 18.7987 19.4955C18.7973 19.42 18.8112 19.345 18.8395 19.2749C18.8678 19.2049 18.9099 19.1413 18.9633 19.0879C19.0168 19.0344 19.0804 18.9923 19.1504 18.964C19.2205 18.9358 19.2955 18.9219 19.371 18.9232C19.4465 18.9245 19.521 18.9411 19.59 18.9718C19.659 19.0025 19.7211 19.0469 19.7726 19.1021L20.1251 19.4546L21.2276 18.3521C21.3342 18.2528 21.4753 18.1987 21.621 18.2013C21.7667 18.2038 21.9058 18.2629 22.0088 18.3659C22.1119 18.469 22.1709 18.608 22.1735 18.7537C22.1761 18.8995 22.122 19.0405 22.0226 19.1471L20.5226 20.6471C20.4705 20.6995 20.4085 20.741 20.3403 20.7693C20.2721 20.7976 20.199 20.8122 20.1251 20.8121Z" fill="#059669"/>
</svg>
