<svg width="28" height="28" viewBox="0 0 28 28" fill="none" xmlns="http://www.w3.org/2000/svg">
<path d="M3.9375 14.875H2.1875C2.07147 14.875 1.96019 14.9211 1.87814 15.0031C1.79609 15.0852 1.75 15.1965 1.75 15.3125V17.0625C1.75 17.1785 1.79609 17.2898 1.87814 17.3719C1.96019 17.4539 2.07147 17.5 2.1875 17.5C2.30353 17.5 2.41481 17.4539 2.49686 17.3719C2.57891 17.2898 2.625 17.1785 2.625 17.0625V15.75H3.5V17.0625C3.5 17.1785 3.54609 17.2898 3.62814 17.3719C3.71019 17.4539 3.82147 17.5 3.9375 17.5C4.05353 17.5 4.16481 17.4539 4.24686 17.3719C4.32891 17.2898 4.375 17.1785 4.375 17.0625V15.3125C4.375 15.1965 4.32891 15.0852 4.24686 15.0031C4.16481 14.9211 4.05353 14.875 3.9375 14.875ZM24.9375 17.0625C24.6779 17.0625 24.4242 17.1395 24.2083 17.2837C23.9925 17.4279 23.8242 17.6329 23.7249 17.8727C23.6256 18.1126 23.5996 18.3765 23.6502 18.6311C23.7009 18.8857 23.8259 19.1195 24.0094 19.3031C24.193 19.4866 24.4268 19.6116 24.6814 19.6623C24.936 19.7129 25.1999 19.6869 25.4398 19.5876C25.6796 19.4883 25.8846 19.32 26.0288 19.1042C26.173 18.8883 26.25 18.6346 26.25 18.375C26.25 18.0269 26.1117 17.6931 25.8656 17.4469C25.6194 17.2008 25.2856 17.0625 24.9375 17.0625ZM24.9375 18.8125C24.851 18.8125 24.7664 18.7868 24.6944 18.7388C24.6225 18.6907 24.5664 18.6224 24.5333 18.5424C24.5002 18.4625 24.4915 18.3745 24.5084 18.2896C24.5253 18.2048 24.567 18.1268 24.6281 18.0656C24.6893 18.0045 24.7673 17.9628 24.8521 17.9459C24.937 17.929 25.025 17.9377 25.1049 17.9708C25.1849 18.0039 25.2532 18.06 25.3013 18.1319C25.3493 18.2039 25.375 18.2885 25.375 18.375C25.375 18.491 25.3289 18.6023 25.2469 18.6844C25.1648 18.7664 25.0535 18.8125 24.9375 18.8125Z" fill="#00A658"/>
<path d="M25.8125 10.4996H24.0625C23.6648 10.5003 23.2753 10.6124 22.9381 10.8234L9.13937 2.86088C9.03945 2.80347 8.9209 2.78781 8.8095 2.8173C8.69809 2.84679 8.60282 2.91905 8.54438 3.01838L7.23188 5.29338C7.17447 5.3933 7.15881 5.51185 7.1883 5.62325C7.21779 5.73466 7.29005 5.82993 7.38937 5.88838L21.875 14.2534V23.1871H6.125V13.5621C6.125 13.4461 6.07891 13.3348 5.99686 13.2528C5.91481 13.1707 5.80353 13.1246 5.6875 13.1246H0.4375C0.321468 13.1246 0.210188 13.1707 0.128141 13.2528C0.0460936 13.3348 0 13.4461 0 13.5621L0 25.3746C0 25.4907 0.0460936 25.6019 0.128141 25.684C0.210188 25.766 0.321468 25.8121 0.4375 25.8121H27.5625C27.6785 25.8121 27.7898 25.766 27.8719 25.684C27.9539 25.6019 28 25.4907 28 25.3746V12.6871C28 12.107 27.7695 11.5506 27.3593 11.1403C26.9491 10.7301 26.3927 10.4996 25.8125 10.4996ZM8.2075 5.35025L9.0825 3.8365L11.025 4.9565L9.13937 5.88838L8.2075 5.35025ZM10.0625 6.41775L11.9481 5.4815L13.6981 6.48775L11.8125 7.43713L10.0625 6.41775ZM12.6875 7.949L14.5906 6.99963L16.3406 8.00588L14.4375 8.95087L12.6875 7.949ZM15.3388 9.48025L17.2244 8.544L18.9744 9.55025L17.0975 10.4996L15.3388 9.48025ZM17.99 11.0115L19.8931 10.0621L21.6431 11.0684L19.7575 12.0003L17.99 11.0115ZM20.6456 12.5428L22.5269 11.6065L24.2769 12.6128L22.4044 13.5621L20.6456 12.5428ZM25.2 13.1246L25.375 13.2296C25.4796 13.2843 25.572 13.3596 25.6467 13.451C25.7214 13.5423 25.7769 13.6478 25.8098 13.7612C25.8426 13.8745 25.8523 13.9933 25.838 14.1105C25.8238 14.2276 25.786 14.3407 25.727 14.4428C25.6679 14.545 25.5888 14.6342 25.4944 14.705C25.4 14.7758 25.2922 14.8267 25.1776 14.8548C25.063 14.8829 24.9438 14.8875 24.8274 14.8683C24.711 14.8492 24.5996 14.8067 24.5 14.7434L23.3144 14.0609L25.2 13.1246ZM0.875 13.9996H5.25V23.1871H0.875V13.9996ZM27.125 24.9371H0.875V24.0621H27.125V24.9371ZM27.125 23.1871H22.75V14.7565L24.0625 15.5134C24.4624 15.7226 24.9278 15.7692 25.3613 15.6434C25.7947 15.5177 26.1629 15.2293 26.3888 14.8385C26.6146 14.4477 26.6808 13.9848 26.5734 13.5464C26.466 13.108 26.1934 12.728 25.8125 12.4859L23.9181 11.3746H25.8125C26.1606 11.3746 26.4944 11.5129 26.7406 11.759C26.9867 12.0052 27.125 12.339 27.125 12.6871V23.1871Z" fill="#00A658"/>
</svg>
